<?xml version="1.0" encoding="utf-8"?>
<svg xmlns="http://www.w3.org/2000/svg" xmlns:xlink="http://www.w3.org/1999/xlink" width="600" height="400" viewBox="0 0 2400 1600">
<defs>
  <clipPath id="clip160">
    <rect x="0" y="0" width="2400" height="1600"/>
  </clipPath>
</defs>
<path clip-path="url(#clip160)" d="
M0 1600 L2400 1600 L2400 0 L0 0  Z
  " fill="#ffffff" fill-rule="evenodd" fill-opacity="1"/>
<defs>
  <clipPath id="clip161">
    <rect x="480" y="0" width="1681" height="1600"/>
  </clipPath>
</defs>
<defs>
  <clipPath id="clip162">
    <rect x="287" y="847" width="2066" height="640"/>
  </clipPath>
</defs>
<path clip-path="url(#clip160)" d="
M287.902 419.781 L2352.76 419.781 L2352.76 47.2441 L287.902 47.2441  Z
  " fill="#ffffff" fill-rule="evenodd" fill-opacity="1"/>
<defs>
  <clipPath id="clip163">
    <rect x="287" y="47" width="2066" height="374"/>
  </clipPath>
</defs>
<polyline clip-path="url(#clip163)" style="stroke:#000000; stroke-linecap:butt; stroke-linejoin:round; stroke-width:2; stroke-opacity:0.1; fill:none" points="
  326.665,419.781 326.665,47.2441 
  "/>
<polyline clip-path="url(#clip163)" style="stroke:#000000; stroke-linecap:butt; stroke-linejoin:round; stroke-width:2; stroke-opacity:0.1; fill:none" points="
  818.578,419.781 818.578,47.2441 
  "/>
<polyline clip-path="url(#clip163)" style="stroke:#000000; stroke-linecap:butt; stroke-linejoin:round; stroke-width:2; stroke-opacity:0.1; fill:none" points="
  1310.49,419.781 1310.49,47.2441 
  "/>
<polyline clip-path="url(#clip163)" style="stroke:#000000; stroke-linecap:butt; stroke-linejoin:round; stroke-width:2; stroke-opacity:0.1; fill:none" points="
  1802.4,419.781 1802.4,47.2441 
  "/>
<polyline clip-path="url(#clip163)" style="stroke:#000000; stroke-linecap:butt; stroke-linejoin:round; stroke-width:2; stroke-opacity:0.1; fill:none" points="
  2294.32,419.781 2294.32,47.2441 
  "/>
<polyline clip-path="url(#clip160)" style="stroke:#000000; stroke-linecap:butt; stroke-linejoin:round; stroke-width:4; stroke-opacity:1; fill:none" points="
  287.902,419.781 2352.76,419.781 
  "/>
<polyline clip-path="url(#clip160)" style="stroke:#000000; stroke-linecap:butt; stroke-linejoin:round; stroke-width:4; stroke-opacity:1; fill:none" points="
  326.665,419.781 326.665,400.884 
  "/>
<polyline clip-path="url(#clip160)" style="stroke:#000000; stroke-linecap:butt; stroke-linejoin:round; stroke-width:4; stroke-opacity:1; fill:none" points="
  818.578,419.781 818.578,400.884 
  "/>
<polyline clip-path="url(#clip160)" style="stroke:#000000; stroke-linecap:butt; stroke-linejoin:round; stroke-width:4; stroke-opacity:1; fill:none" points="
  1310.49,419.781 1310.49,400.884 
  "/>
<polyline clip-path="url(#clip160)" style="stroke:#000000; stroke-linecap:butt; stroke-linejoin:round; stroke-width:4; stroke-opacity:1; fill:none" points="
  1802.4,419.781 1802.4,400.884 
  "/>
<polyline clip-path="url(#clip160)" style="stroke:#000000; stroke-linecap:butt; stroke-linejoin:round; stroke-width:4; stroke-opacity:1; fill:none" points="
  2294.32,419.781 2294.32,400.884 
  "/>
<path clip-path="url(#clip160)" d="M326.665 450.7 Q323.054 450.7 321.225 454.265 Q319.42 457.806 319.42 464.936 Q319.42 472.042 321.225 475.607 Q323.054 479.149 326.665 479.149 Q330.299 479.149 332.105 475.607 Q333.934 472.042 333.934 464.936 Q333.934 457.806 332.105 454.265 Q330.299 450.7 326.665 450.7 M326.665 446.996 Q332.475 446.996 335.531 451.603 Q338.609 456.186 338.609 464.936 Q338.609 473.663 335.531 478.269 Q332.475 482.853 326.665 482.853 Q320.855 482.853 317.776 478.269 Q314.721 473.663 314.721 464.936 Q314.721 456.186 317.776 451.603 Q320.855 446.996 326.665 446.996 Z" fill="#000000" fill-rule="evenodd" fill-opacity="1" /><path clip-path="url(#clip160)" d="M797.849 478.246 L814.168 478.246 L814.168 482.181 L792.224 482.181 L792.224 478.246 Q794.886 475.491 799.469 470.862 Q804.076 466.209 805.256 464.866 Q807.502 462.343 808.381 460.607 Q809.284 458.848 809.284 457.158 Q809.284 454.404 807.34 452.667 Q805.418 450.931 802.317 450.931 Q800.117 450.931 797.664 451.695 Q795.233 452.459 792.455 454.01 L792.455 449.288 Q795.28 448.154 797.733 447.575 Q800.187 446.996 802.224 446.996 Q807.594 446.996 810.789 449.681 Q813.983 452.367 813.983 456.857 Q813.983 458.987 813.173 460.908 Q812.386 462.806 810.279 465.399 Q809.701 466.07 806.599 469.288 Q803.497 472.482 797.849 478.246 Z" fill="#000000" fill-rule="evenodd" fill-opacity="1" /><path clip-path="url(#clip160)" d="M824.029 447.621 L842.386 447.621 L842.386 451.556 L828.312 451.556 L828.312 460.029 Q829.33 459.681 830.349 459.519 Q831.367 459.334 832.386 459.334 Q838.173 459.334 841.552 462.505 Q844.932 465.677 844.932 471.093 Q844.932 476.672 841.46 479.774 Q837.988 482.853 831.668 482.853 Q829.492 482.853 827.224 482.482 Q824.978 482.112 822.571 481.371 L822.571 476.672 Q824.654 477.806 826.877 478.362 Q829.099 478.917 831.576 478.917 Q835.58 478.917 837.918 476.811 Q840.256 474.704 840.256 471.093 Q840.256 467.482 837.918 465.376 Q835.58 463.269 831.576 463.269 Q829.701 463.269 827.826 463.686 Q825.974 464.103 824.029 464.982 L824.029 447.621 Z" fill="#000000" fill-rule="evenodd" fill-opacity="1" /><path clip-path="url(#clip160)" d="M1285.19 447.621 L1303.55 447.621 L1303.55 451.556 L1289.47 451.556 L1289.47 460.029 Q1290.49 459.681 1291.51 459.519 Q1292.53 459.334 1293.55 459.334 Q1299.33 459.334 1302.71 462.505 Q1306.09 465.677 1306.09 471.093 Q1306.09 476.672 1302.62 479.774 Q1299.15 482.853 1292.83 482.853 Q1290.65 482.853 1288.38 482.482 Q1286.14 482.112 1283.73 481.371 L1283.73 476.672 Q1285.82 477.806 1288.04 478.362 Q1290.26 478.917 1292.74 478.917 Q1296.74 478.917 1299.08 476.811 Q1301.42 474.704 1301.42 471.093 Q1301.42 467.482 1299.08 465.376 Q1296.74 463.269 1292.74 463.269 Q1290.86 463.269 1288.99 463.686 Q1287.13 464.103 1285.19 464.982 L1285.19 447.621 Z" fill="#000000" fill-rule="evenodd" fill-opacity="1" /><path clip-path="url(#clip160)" d="M1325.31 450.7 Q1321.69 450.7 1319.87 454.265 Q1318.06 457.806 1318.06 464.936 Q1318.06 472.042 1319.87 475.607 Q1321.69 479.149 1325.31 479.149 Q1328.94 479.149 1330.75 475.607 Q1332.57 472.042 1332.57 464.936 Q1332.57 457.806 1330.75 454.265 Q1328.94 450.7 1325.31 450.7 M1325.31 446.996 Q1331.12 446.996 1334.17 451.603 Q1337.25 456.186 1337.25 464.936 Q1337.25 473.663 1334.17 478.269 Q1331.12 482.853 1325.31 482.853 Q1319.5 482.853 1316.42 478.269 Q1313.36 473.663 1313.36 464.936 Q1313.36 456.186 1316.42 451.603 Q1319.5 446.996 1325.31 446.996 Z" fill="#000000" fill-rule="evenodd" fill-opacity="1" /><path clip-path="url(#clip160)" d="M1776.26 447.621 L1798.48 447.621 L1798.48 449.612 L1785.93 482.181 L1781.05 482.181 L1792.86 451.556 L1776.26 451.556 L1776.26 447.621 Z" fill="#000000" fill-rule="evenodd" fill-opacity="1" /><path clip-path="url(#clip160)" d="M1807.65 447.621 L1826 447.621 L1826 451.556 L1811.93 451.556 L1811.93 460.029 Q1812.95 459.681 1813.97 459.519 Q1814.98 459.334 1816 459.334 Q1821.79 459.334 1825.17 462.505 Q1828.55 465.677 1828.55 471.093 Q1828.55 476.672 1825.08 479.774 Q1821.61 482.853 1815.29 482.853 Q1813.11 482.853 1810.84 482.482 Q1808.6 482.112 1806.19 481.371 L1806.19 476.672 Q1808.27 477.806 1810.49 478.362 Q1812.72 478.917 1815.19 478.917 Q1819.2 478.917 1821.54 476.811 Q1823.87 474.704 1823.87 471.093 Q1823.87 467.482 1821.54 465.376 Q1819.2 463.269 1815.19 463.269 Q1813.32 463.269 1811.44 463.686 Q1809.59 464.103 1807.65 464.982 L1807.65 447.621 Z" fill="#000000" fill-rule="evenodd" fill-opacity="1" /><path clip-path="url(#clip160)" d="M2253.92 478.246 L2261.56 478.246 L2261.56 451.88 L2253.25 453.547 L2253.25 449.288 L2261.52 447.621 L2266.19 447.621 L2266.19 478.246 L2273.83 478.246 L2273.83 482.181 L2253.92 482.181 L2253.92 478.246 Z" fill="#000000" fill-rule="evenodd" fill-opacity="1" /><path clip-path="url(#clip160)" d="M2293.27 450.7 Q2289.66 450.7 2287.84 454.265 Q2286.03 457.806 2286.03 464.936 Q2286.03 472.042 2287.84 475.607 Q2289.66 479.149 2293.27 479.149 Q2296.91 479.149 2298.71 475.607 Q2300.54 472.042 2300.54 464.936 Q2300.54 457.806 2298.71 454.265 Q2296.91 450.7 2293.27 450.7 M2293.27 446.996 Q2299.09 446.996 2302.14 451.603 Q2305.22 456.186 2305.22 464.936 Q2305.22 473.663 2302.14 478.269 Q2299.09 482.853 2293.27 482.853 Q2287.46 482.853 2284.39 478.269 Q2281.33 473.663 2281.33 464.936 Q2281.33 456.186 2284.39 451.603 Q2287.46 446.996 2293.27 446.996 Z" fill="#000000" fill-rule="evenodd" fill-opacity="1" /><path clip-path="url(#clip160)" d="M2323.44 450.7 Q2319.83 450.7 2318 454.265 Q2316.19 457.806 2316.19 464.936 Q2316.19 472.042 2318 475.607 Q2319.83 479.149 2323.44 479.149 Q2327.07 479.149 2328.88 475.607 Q2330.71 472.042 2330.71 464.936 Q2330.71 457.806 2328.88 454.265 Q2327.07 450.7 2323.44 450.7 M2323.44 446.996 Q2329.25 446.996 2332.3 451.603 Q2335.38 456.186 2335.38 464.936 Q2335.38 473.663 2332.3 478.269 Q2329.25 482.853 2323.44 482.853 Q2317.63 482.853 2314.55 478.269 Q2311.49 473.663 2311.49 464.936 Q2311.49 456.186 2314.55 451.603 Q2317.63 446.996 2323.44 446.996 Z" fill="#000000" fill-rule="evenodd" fill-opacity="1" /><polyline clip-path="url(#clip163)" style="stroke:#000000; stroke-linecap:butt; stroke-linejoin:round; stroke-width:2; stroke-opacity:0.1; fill:none" points="
  287.902,417.808 2352.76,417.808 
  "/>
<polyline clip-path="url(#clip163)" style="stroke:#000000; stroke-linecap:butt; stroke-linejoin:round; stroke-width:2; stroke-opacity:0.1; fill:none" points="
  287.902,363.262 2352.76,363.262 
  "/>
<polyline clip-path="url(#clip163)" style="stroke:#000000; stroke-linecap:butt; stroke-linejoin:round; stroke-width:2; stroke-opacity:0.1; fill:none" points="
  287.902,308.717 2352.76,308.717 
  "/>
<polyline clip-path="url(#clip163)" style="stroke:#000000; stroke-linecap:butt; stroke-linejoin:round; stroke-width:2; stroke-opacity:0.1; fill:none" points="
  287.902,254.172 2352.76,254.172 
  "/>
<polyline clip-path="url(#clip163)" style="stroke:#000000; stroke-linecap:butt; stroke-linejoin:round; stroke-width:2; stroke-opacity:0.1; fill:none" points="
  287.902,199.627 2352.76,199.627 
  "/>
<polyline clip-path="url(#clip163)" style="stroke:#000000; stroke-linecap:butt; stroke-linejoin:round; stroke-width:2; stroke-opacity:0.1; fill:none" points="
  287.902,145.081 2352.76,145.081 
  "/>
<polyline clip-path="url(#clip163)" style="stroke:#000000; stroke-linecap:butt; stroke-linejoin:round; stroke-width:2; stroke-opacity:0.1; fill:none" points="
  287.902,90.5361 2352.76,90.5361 
  "/>
<polyline clip-path="url(#clip160)" style="stroke:#000000; stroke-linecap:butt; stroke-linejoin:round; stroke-width:4; stroke-opacity:1; fill:none" points="
  287.902,419.781 287.902,47.2441 
  "/>
<polyline clip-path="url(#clip160)" style="stroke:#000000; stroke-linecap:butt; stroke-linejoin:round; stroke-width:4; stroke-opacity:1; fill:none" points="
  287.902,417.808 306.8,417.808 
  "/>
<polyline clip-path="url(#clip160)" style="stroke:#000000; stroke-linecap:butt; stroke-linejoin:round; stroke-width:4; stroke-opacity:1; fill:none" points="
  287.902,363.262 306.8,363.262 
  "/>
<polyline clip-path="url(#clip160)" style="stroke:#000000; stroke-linecap:butt; stroke-linejoin:round; stroke-width:4; stroke-opacity:1; fill:none" points="
  287.902,308.717 306.8,308.717 
  "/>
<polyline clip-path="url(#clip160)" style="stroke:#000000; stroke-linecap:butt; stroke-linejoin:round; stroke-width:4; stroke-opacity:1; fill:none" points="
  287.902,254.172 306.8,254.172 
  "/>
<polyline clip-path="url(#clip160)" style="stroke:#000000; stroke-linecap:butt; stroke-linejoin:round; stroke-width:4; stroke-opacity:1; fill:none" points="
  287.902,199.627 306.8,199.627 
  "/>
<polyline clip-path="url(#clip160)" style="stroke:#000000; stroke-linecap:butt; stroke-linejoin:round; stroke-width:4; stroke-opacity:1; fill:none" points="
  287.902,145.081 306.8,145.081 
  "/>
<polyline clip-path="url(#clip160)" style="stroke:#000000; stroke-linecap:butt; stroke-linejoin:round; stroke-width:4; stroke-opacity:1; fill:none" points="
  287.902,90.5361 306.8,90.5361 
  "/>
<path clip-path="url(#clip160)" d="M146.185 418.259 L175.861 418.259 L175.861 422.194 L146.185 422.194 L146.185 418.259 Z" fill="#000000" fill-rule="evenodd" fill-opacity="1" /><path clip-path="url(#clip160)" d="M195.954 403.606 Q192.342 403.606 190.514 407.171 Q188.708 410.713 188.708 417.842 Q188.708 424.949 190.514 428.514 Q192.342 432.055 195.954 432.055 Q199.588 432.055 201.393 428.514 Q203.222 424.949 203.222 417.842 Q203.222 410.713 201.393 407.171 Q199.588 403.606 195.954 403.606 M195.954 399.903 Q201.764 399.903 204.819 404.509 Q207.898 409.092 207.898 417.842 Q207.898 426.569 204.819 431.176 Q201.764 435.759 195.954 435.759 Q190.143 435.759 187.065 431.176 Q184.009 426.569 184.009 417.842 Q184.009 409.092 187.065 404.509 Q190.143 399.903 195.954 399.903 Z" fill="#000000" fill-rule="evenodd" fill-opacity="1" /><path clip-path="url(#clip160)" d="M216.116 429.208 L221 429.208 L221 435.088 L216.116 435.088 L216.116 429.208 Z" fill="#000000" fill-rule="evenodd" fill-opacity="1" /><path clip-path="url(#clip160)" d="M231.995 431.152 L239.634 431.152 L239.634 404.787 L231.324 406.453 L231.324 402.194 L239.588 400.528 L244.264 400.528 L244.264 431.152 L251.902 431.152 L251.902 435.088 L231.995 435.088 L231.995 431.152 Z" fill="#000000" fill-rule="evenodd" fill-opacity="1" /><path clip-path="url(#clip160)" d="M194.727 349.061 Q191.116 349.061 189.287 352.626 Q187.481 356.167 187.481 363.297 Q187.481 370.403 189.287 373.968 Q191.116 377.51 194.727 377.51 Q198.361 377.51 200.167 373.968 Q201.995 370.403 201.995 363.297 Q201.995 356.167 200.167 352.626 Q198.361 349.061 194.727 349.061 M194.727 345.357 Q200.537 345.357 203.592 349.964 Q206.671 354.547 206.671 363.297 Q206.671 372.024 203.592 376.63 Q200.537 381.214 194.727 381.214 Q188.917 381.214 185.838 376.63 Q182.782 372.024 182.782 363.297 Q182.782 354.547 185.838 349.964 Q188.917 345.357 194.727 345.357 Z" fill="#000000" fill-rule="evenodd" fill-opacity="1" /><path clip-path="url(#clip160)" d="M214.889 374.663 L219.773 374.663 L219.773 380.542 L214.889 380.542 L214.889 374.663 Z" fill="#000000" fill-rule="evenodd" fill-opacity="1" /><path clip-path="url(#clip160)" d="M239.958 349.061 Q236.347 349.061 234.518 352.626 Q232.713 356.167 232.713 363.297 Q232.713 370.403 234.518 373.968 Q236.347 377.51 239.958 377.51 Q243.592 377.51 245.398 373.968 Q247.226 370.403 247.226 363.297 Q247.226 356.167 245.398 352.626 Q243.592 349.061 239.958 349.061 M239.958 345.357 Q245.768 345.357 248.824 349.964 Q251.902 354.547 251.902 363.297 Q251.902 372.024 248.824 376.63 Q245.768 381.214 239.958 381.214 Q234.148 381.214 231.069 376.63 Q228.014 372.024 228.014 363.297 Q228.014 354.547 231.069 349.964 Q234.148 345.357 239.958 345.357 Z" fill="#000000" fill-rule="evenodd" fill-opacity="1" /><path clip-path="url(#clip160)" d="M195.954 294.516 Q192.342 294.516 190.514 298.081 Q188.708 301.622 188.708 308.752 Q188.708 315.858 190.514 319.423 Q192.342 322.965 195.954 322.965 Q199.588 322.965 201.393 319.423 Q203.222 315.858 203.222 308.752 Q203.222 301.622 201.393 298.081 Q199.588 294.516 195.954 294.516 M195.954 290.812 Q201.764 290.812 204.819 295.419 Q207.898 300.002 207.898 308.752 Q207.898 317.479 204.819 322.085 Q201.764 326.668 195.954 326.668 Q190.143 326.668 187.065 322.085 Q184.009 317.479 184.009 308.752 Q184.009 300.002 187.065 295.419 Q190.143 290.812 195.954 290.812 Z" fill="#000000" fill-rule="evenodd" fill-opacity="1" /><path clip-path="url(#clip160)" d="M216.116 320.117 L221 320.117 L221 325.997 L216.116 325.997 L216.116 320.117 Z" fill="#000000" fill-rule="evenodd" fill-opacity="1" /><path clip-path="url(#clip160)" d="M231.995 322.062 L239.634 322.062 L239.634 295.696 L231.324 297.363 L231.324 293.104 L239.588 291.437 L244.264 291.437 L244.264 322.062 L251.902 322.062 L251.902 325.997 L231.995 325.997 L231.995 322.062 Z" fill="#000000" fill-rule="evenodd" fill-opacity="1" /><path clip-path="url(#clip160)" d="M196.324 239.971 Q192.713 239.971 190.884 243.535 Q189.079 247.077 189.079 254.207 Q189.079 261.313 190.884 264.878 Q192.713 268.419 196.324 268.419 Q199.958 268.419 201.764 264.878 Q203.592 261.313 203.592 254.207 Q203.592 247.077 201.764 243.535 Q199.958 239.971 196.324 239.971 M196.324 236.267 Q202.134 236.267 205.19 240.873 Q208.268 245.457 208.268 254.207 Q208.268 262.933 205.19 267.54 Q202.134 272.123 196.324 272.123 Q190.514 272.123 187.435 267.54 Q184.38 262.933 184.38 254.207 Q184.38 245.457 187.435 240.873 Q190.514 236.267 196.324 236.267 Z" fill="#000000" fill-rule="evenodd" fill-opacity="1" /><path clip-path="url(#clip160)" d="M216.486 265.572 L221.37 265.572 L221.37 271.452 L216.486 271.452 L216.486 265.572 Z" fill="#000000" fill-rule="evenodd" fill-opacity="1" /><path clip-path="url(#clip160)" d="M235.583 267.517 L251.902 267.517 L251.902 271.452 L229.958 271.452 L229.958 267.517 Q232.62 264.762 237.203 260.132 Q241.81 255.48 242.99 254.137 Q245.236 251.614 246.115 249.878 Q247.018 248.119 247.018 246.429 Q247.018 243.674 245.074 241.938 Q243.152 240.202 240.051 240.202 Q237.852 240.202 235.398 240.966 Q232.967 241.73 230.19 243.281 L230.19 238.558 Q233.014 237.424 235.467 236.846 Q237.921 236.267 239.958 236.267 Q245.328 236.267 248.523 238.952 Q251.717 241.637 251.717 246.128 Q251.717 248.258 250.907 250.179 Q250.12 252.077 248.013 254.67 Q247.435 255.341 244.333 258.558 Q241.231 261.753 235.583 267.517 Z" fill="#000000" fill-rule="evenodd" fill-opacity="1" /><path clip-path="url(#clip160)" d="M195.375 185.425 Q191.764 185.425 189.935 188.99 Q188.13 192.532 188.13 199.661 Q188.13 206.768 189.935 210.333 Q191.764 213.874 195.375 213.874 Q199.009 213.874 200.815 210.333 Q202.643 206.768 202.643 199.661 Q202.643 192.532 200.815 188.99 Q199.009 185.425 195.375 185.425 M195.375 181.722 Q201.185 181.722 204.241 186.328 Q207.319 190.911 207.319 199.661 Q207.319 208.388 204.241 212.995 Q201.185 217.578 195.375 217.578 Q189.565 217.578 186.486 212.995 Q183.431 208.388 183.431 199.661 Q183.431 190.911 186.486 186.328 Q189.565 181.722 195.375 181.722 Z" fill="#000000" fill-rule="evenodd" fill-opacity="1" /><path clip-path="url(#clip160)" d="M215.537 211.027 L220.421 211.027 L220.421 216.907 L215.537 216.907 L215.537 211.027 Z" fill="#000000" fill-rule="evenodd" fill-opacity="1" /><path clip-path="url(#clip160)" d="M244.773 198.272 Q248.129 198.99 250.004 201.259 Q251.902 203.527 251.902 206.86 Q251.902 211.976 248.384 214.777 Q244.865 217.578 238.384 217.578 Q236.208 217.578 233.893 217.138 Q231.602 216.721 229.148 215.865 L229.148 211.351 Q231.092 212.485 233.407 213.064 Q235.722 213.643 238.245 213.643 Q242.643 213.643 244.935 211.907 Q247.25 210.171 247.25 206.86 Q247.25 203.805 245.097 202.092 Q242.967 200.356 239.148 200.356 L235.12 200.356 L235.12 196.513 L239.333 196.513 Q242.782 196.513 244.611 195.147 Q246.439 193.759 246.439 191.166 Q246.439 188.504 244.541 187.092 Q242.666 185.657 239.148 185.657 Q237.227 185.657 235.027 186.073 Q232.828 186.49 230.19 187.37 L230.19 183.203 Q232.852 182.462 235.166 182.092 Q237.504 181.722 239.564 181.722 Q244.889 181.722 247.99 184.152 Q251.092 186.56 251.092 190.68 Q251.092 193.55 249.449 195.541 Q247.805 197.509 244.773 198.272 Z" fill="#000000" fill-rule="evenodd" fill-opacity="1" /><path clip-path="url(#clip160)" d="M194.241 130.88 Q190.63 130.88 188.801 134.445 Q186.995 137.986 186.995 145.116 Q186.995 152.223 188.801 155.787 Q190.63 159.329 194.241 159.329 Q197.875 159.329 199.68 155.787 Q201.509 152.223 201.509 145.116 Q201.509 137.986 199.68 134.445 Q197.875 130.88 194.241 130.88 M194.241 127.176 Q200.051 127.176 203.106 131.783 Q206.185 136.366 206.185 145.116 Q206.185 153.843 203.106 158.449 Q200.051 163.033 194.241 163.033 Q188.43 163.033 185.352 158.449 Q182.296 153.843 182.296 145.116 Q182.296 136.366 185.352 131.783 Q188.43 127.176 194.241 127.176 Z" fill="#000000" fill-rule="evenodd" fill-opacity="1" /><path clip-path="url(#clip160)" d="M214.403 156.482 L219.287 156.482 L219.287 162.361 L214.403 162.361 L214.403 156.482 Z" fill="#000000" fill-rule="evenodd" fill-opacity="1" /><path clip-path="url(#clip160)" d="M242.319 131.875 L230.514 150.324 L242.319 150.324 L242.319 131.875 M241.092 127.801 L246.972 127.801 L246.972 150.324 L251.902 150.324 L251.902 154.213 L246.972 154.213 L246.972 162.361 L242.319 162.361 L242.319 154.213 L226.717 154.213 L226.717 149.699 L241.092 127.801 Z" fill="#000000" fill-rule="evenodd" fill-opacity="1" /><path clip-path="url(#clip160)" d="M195.722 76.3348 Q192.111 76.3348 190.282 79.8996 Q188.477 83.4412 188.477 90.5708 Q188.477 97.6773 190.282 101.242 Q192.111 104.784 195.722 104.784 Q199.356 104.784 201.162 101.242 Q202.991 97.6773 202.991 90.5708 Q202.991 83.4412 201.162 79.8996 Q199.356 76.3348 195.722 76.3348 M195.722 72.6311 Q201.532 72.6311 204.588 77.2376 Q207.666 81.8209 207.666 90.5708 Q207.666 99.2976 204.588 103.904 Q201.532 108.487 195.722 108.487 Q189.912 108.487 186.833 103.904 Q183.778 99.2976 183.778 90.5708 Q183.778 81.8209 186.833 77.2376 Q189.912 72.6311 195.722 72.6311 Z" fill="#000000" fill-rule="evenodd" fill-opacity="1" /><path clip-path="url(#clip160)" d="M215.884 101.936 L220.768 101.936 L220.768 107.816 L215.884 107.816 L215.884 101.936 Z" fill="#000000" fill-rule="evenodd" fill-opacity="1" /><path clip-path="url(#clip160)" d="M231 73.2561 L249.356 73.2561 L249.356 77.1913 L235.282 77.1913 L235.282 85.6634 Q236.301 85.3162 237.319 85.1542 Q238.338 84.969 239.356 84.969 Q245.143 84.969 248.523 88.1403 Q251.902 91.3116 251.902 96.7282 Q251.902 102.307 248.43 105.409 Q244.958 108.487 238.639 108.487 Q236.463 108.487 234.194 108.117 Q231.949 107.747 229.541 107.006 L229.541 102.307 Q231.625 103.441 233.847 103.997 Q236.069 104.552 238.546 104.552 Q242.551 104.552 244.889 102.446 Q247.226 100.339 247.226 96.7282 Q247.226 93.1171 244.889 91.0106 Q242.551 88.9042 238.546 88.9042 Q236.671 88.9042 234.796 89.3208 Q232.944 89.7375 231 90.6171 L231 73.2561 Z" fill="#000000" fill-rule="evenodd" fill-opacity="1" /><path clip-path="url(#clip160)" d="M58.421 216.628 Q60.1924 216.628 61.2874 217.755 Q62.3824 218.85 62.3824 220.235 Q62.3824 221.233 61.7704 221.974 Q61.1585 222.682 60.0957 222.682 Q59.0007 222.682 57.8413 221.845 Q56.6819 221.008 56.5209 219.107 Q55.3293 220.363 55.3293 222.36 Q55.3293 223.359 55.9734 224.196 Q56.5853 225.001 57.5837 225.452 Q58.6143 225.935 64.4435 227.03 Q66.3437 227.384 68.1794 227.706 Q70.0151 228.028 71.9475 228.415 L71.9475 222.94 Q71.9475 222.231 71.9797 221.942 Q72.0119 221.652 72.1729 221.426 Q72.334 221.169 72.6882 221.169 Q73.59 221.169 73.8154 221.587 Q74.0087 221.974 74.0087 223.133 L74.0087 228.801 L94.9103 232.763 Q95.5222 232.859 97.4545 233.278 Q99.3547 233.664 102.479 234.598 Q105.635 235.532 107.503 236.466 Q108.566 236.982 109.564 237.658 Q110.595 238.302 111.625 239.236 Q112.656 240.17 113.268 241.394 Q113.912 242.618 113.912 243.906 Q113.912 246.096 112.688 247.803 Q111.464 249.51 109.371 249.51 Q107.599 249.51 106.504 248.415 Q105.409 247.288 105.409 245.903 Q105.409 244.904 106.021 244.196 Q106.633 243.455 107.696 243.455 Q108.147 243.455 108.662 243.616 Q109.177 243.777 109.757 244.131 Q110.369 244.486 110.788 245.259 Q111.206 246.032 111.271 247.094 Q112.462 245.838 112.462 243.906 Q112.462 243.294 112.205 242.747 Q111.979 242.199 111.4 241.748 Q110.82 241.265 110.24 240.911 Q109.693 240.557 108.63 240.202 Q107.599 239.848 106.826 239.623 Q106.054 239.397 104.669 239.107 Q103.284 238.785 102.446 238.624 Q101.641 238.463 100.063 238.173 L74.0087 233.246 L74.0087 237.594 Q74.0087 238.367 73.9765 238.689 Q73.9443 238.978 73.7832 239.204 Q73.59 239.429 73.2035 239.429 Q72.5916 239.429 72.334 239.172 Q72.0441 238.882 72.0119 238.56 Q71.9475 238.238 71.9475 237.465 L71.9475 232.892 Q63.7994 231.346 61.6094 230.734 Q59.2906 230.025 57.6803 228.93 Q56.0378 227.835 55.2649 226.611 Q54.4919 225.388 54.2021 224.389 Q53.88 223.359 53.88 222.36 Q53.88 220.106 55.1038 218.367 Q56.2954 216.628 58.421 216.628 Z" fill="#000000" fill-rule="evenodd" fill-opacity="1" /><polyline clip-path="url(#clip163)" style="stroke:#009af9; stroke-linecap:butt; stroke-linejoin:round; stroke-width:4; stroke-opacity:1; fill:none" points="
  346.342,93.396 366.018,113.094 385.695,92.9686 405.371,130.252 425.048,121.218 444.724,137.73 464.401,125.838 484.077,103.399 503.754,119.377 523.43,113.892 
  543.107,175.483 562.783,151.087 582.46,188.263 602.136,156.404 621.813,163.471 641.489,142.455 661.166,153.284 680.842,170.902 700.519,207.947 720.195,212.608 
  739.872,261.033 759.548,222.762 779.225,258.295 798.901,196.086 818.578,202.301 838.255,228.582 857.931,248.128 877.608,239.361 897.284,204.944 916.961,217.378 
  936.637,271.857 956.314,260.488 975.99,301.094 995.667,265.061 1015.34,261.288 1035.02,262.352 1054.7,334.114 1074.37,284.046 1094.05,326.832 1113.73,318.987 
  1133.4,292.68 1153.08,311.493 1172.76,329.546 1192.43,313.988 1212.11,291.413 1231.78,358.449 1251.46,383.72 1271.14,384.051 1290.81,383.561 1310.49,381.568 
  1330.17,342.08 1349.84,409.238 1369.52,340.463 1389.2,362.674 1408.87,306.002 1428.55,353.869 1448.23,324.875 1467.9,345.197 1487.58,332.76 1507.26,315.812 
  1526.93,309.502 1546.61,312.121 1566.29,261.581 1585.96,271.895 1605.64,230.85 1625.32,283.553 1644.99,241.446 1664.67,322.333 1684.34,242.213 1704.02,244.041 
  1723.7,258.922 1743.37,224.299 1763.05,213.873 1782.73,204.165 1802.4,215.45 1822.08,205.052 1841.76,234.372 1861.43,240.404 1881.11,212.38 1900.79,194.539 
  1920.46,168.237 1940.14,210.277 1959.82,196.612 1979.49,96.6868 1999.17,189.334 2018.85,114.528 2038.52,135.232 2058.2,171.203 2077.87,153.442 2097.55,150.949 
  2117.23,126.714 2136.9,96.9277 2156.58,173.385 2176.26,68.0709 2195.93,96.5964 2215.61,127.324 2235.29,110.336 2254.96,93.2748 2274.64,87.9133 2294.32,57.7876 
  
  "/>
<path clip-path="url(#clip160)" d="
M287.902 953.115 L2352.76 953.115 L2352.76 580.577 L287.902 580.577  Z
  " fill="#ffffff" fill-rule="evenodd" fill-opacity="1"/>
<defs>
  <clipPath id="clip164">
    <rect x="287" y="580" width="2066" height="374"/>
  </clipPath>
</defs>
<polyline clip-path="url(#clip164)" style="stroke:#000000; stroke-linecap:butt; stroke-linejoin:round; stroke-width:2; stroke-opacity:0.1; fill:none" points="
  326.464,953.115 326.464,580.577 
  "/>
<polyline clip-path="url(#clip164)" style="stroke:#000000; stroke-linecap:butt; stroke-linejoin:round; stroke-width:2; stroke-opacity:0.1; fill:none" points="
  823.397,953.115 823.397,580.577 
  "/>
<polyline clip-path="url(#clip164)" style="stroke:#000000; stroke-linecap:butt; stroke-linejoin:round; stroke-width:2; stroke-opacity:0.1; fill:none" points="
  1320.33,953.115 1320.33,580.577 
  "/>
<polyline clip-path="url(#clip164)" style="stroke:#000000; stroke-linecap:butt; stroke-linejoin:round; stroke-width:2; stroke-opacity:0.1; fill:none" points="
  1817.26,953.115 1817.26,580.577 
  "/>
<polyline clip-path="url(#clip164)" style="stroke:#000000; stroke-linecap:butt; stroke-linejoin:round; stroke-width:2; stroke-opacity:0.1; fill:none" points="
  2314.19,953.115 2314.19,580.577 
  "/>
<polyline clip-path="url(#clip160)" style="stroke:#000000; stroke-linecap:butt; stroke-linejoin:round; stroke-width:4; stroke-opacity:1; fill:none" points="
  287.902,953.115 2352.76,953.115 
  "/>
<polyline clip-path="url(#clip160)" style="stroke:#000000; stroke-linecap:butt; stroke-linejoin:round; stroke-width:4; stroke-opacity:1; fill:none" points="
  326.464,953.115 326.464,934.217 
  "/>
<polyline clip-path="url(#clip160)" style="stroke:#000000; stroke-linecap:butt; stroke-linejoin:round; stroke-width:4; stroke-opacity:1; fill:none" points="
  823.397,953.115 823.397,934.217 
  "/>
<polyline clip-path="url(#clip160)" style="stroke:#000000; stroke-linecap:butt; stroke-linejoin:round; stroke-width:4; stroke-opacity:1; fill:none" points="
  1320.33,953.115 1320.33,934.217 
  "/>
<polyline clip-path="url(#clip160)" style="stroke:#000000; stroke-linecap:butt; stroke-linejoin:round; stroke-width:4; stroke-opacity:1; fill:none" points="
  1817.26,953.115 1817.26,934.217 
  "/>
<polyline clip-path="url(#clip160)" style="stroke:#000000; stroke-linecap:butt; stroke-linejoin:round; stroke-width:4; stroke-opacity:1; fill:none" points="
  2314.19,953.115 2314.19,934.217 
  "/>
<path clip-path="url(#clip160)" d="M326.464 984.033 Q322.853 984.033 321.025 987.598 Q319.219 991.14 319.219 998.269 Q319.219 1005.38 321.025 1008.94 Q322.853 1012.48 326.464 1012.48 Q330.099 1012.48 331.904 1008.94 Q333.733 1005.38 333.733 998.269 Q333.733 991.14 331.904 987.598 Q330.099 984.033 326.464 984.033 M326.464 980.33 Q332.274 980.33 335.33 984.936 Q338.409 989.519 338.409 998.269 Q338.409 1007 335.33 1011.6 Q332.274 1016.19 326.464 1016.19 Q320.654 1016.19 317.575 1011.6 Q314.52 1007 314.52 998.269 Q314.52 989.519 317.575 984.936 Q320.654 980.33 326.464 980.33 Z" fill="#000000" fill-rule="evenodd" fill-opacity="1" /><path clip-path="url(#clip160)" d="M802.668 1011.58 L818.987 1011.58 L818.987 1015.51 L797.043 1015.51 L797.043 1011.58 Q799.705 1008.82 804.288 1004.2 Q808.894 999.542 810.075 998.2 Q812.32 995.677 813.2 993.941 Q814.103 992.181 814.103 990.492 Q814.103 987.737 812.158 986.001 Q810.237 984.265 807.135 984.265 Q804.936 984.265 802.482 985.029 Q800.052 985.792 797.274 987.343 L797.274 982.621 Q800.098 981.487 802.552 980.908 Q805.006 980.33 807.043 980.33 Q812.413 980.33 815.607 983.015 Q818.802 985.7 818.802 990.191 Q818.802 992.32 817.992 994.242 Q817.205 996.14 815.098 998.732 Q814.519 999.404 811.418 1002.62 Q808.316 1005.82 802.668 1011.58 Z" fill="#000000" fill-rule="evenodd" fill-opacity="1" /><path clip-path="url(#clip160)" d="M828.848 980.955 L847.204 980.955 L847.204 984.89 L833.13 984.89 L833.13 993.362 Q834.149 993.015 835.167 992.853 Q836.186 992.667 837.205 992.667 Q842.992 992.667 846.371 995.839 Q849.751 999.01 849.751 1004.43 Q849.751 1010.01 846.279 1013.11 Q842.806 1016.19 836.487 1016.19 Q834.311 1016.19 832.043 1015.82 Q829.797 1015.45 827.39 1014.7 L827.39 1010.01 Q829.473 1011.14 831.695 1011.7 Q833.918 1012.25 836.394 1012.25 Q840.399 1012.25 842.737 1010.14 Q845.075 1008.04 845.075 1004.43 Q845.075 1000.82 842.737 998.709 Q840.399 996.603 836.394 996.603 Q834.519 996.603 832.644 997.019 Q830.793 997.436 828.848 998.316 L828.848 980.955 Z" fill="#000000" fill-rule="evenodd" fill-opacity="1" /><path clip-path="url(#clip160)" d="M1295.03 980.955 L1313.38 980.955 L1313.38 984.89 L1299.31 984.89 L1299.31 993.362 Q1300.33 993.015 1301.35 992.853 Q1302.37 992.667 1303.38 992.667 Q1309.17 992.667 1312.55 995.839 Q1315.93 999.01 1315.93 1004.43 Q1315.93 1010.01 1312.46 1013.11 Q1308.99 1016.19 1302.67 1016.19 Q1300.49 1016.19 1298.22 1015.82 Q1295.98 1015.45 1293.57 1014.7 L1293.57 1010.01 Q1295.65 1011.14 1297.88 1011.7 Q1300.1 1012.25 1302.57 1012.25 Q1306.58 1012.25 1308.92 1010.14 Q1311.26 1008.04 1311.26 1004.43 Q1311.26 1000.82 1308.92 998.709 Q1306.58 996.603 1302.57 996.603 Q1300.7 996.603 1298.82 997.019 Q1296.97 997.436 1295.03 998.316 L1295.03 980.955 Z" fill="#000000" fill-rule="evenodd" fill-opacity="1" /><path clip-path="url(#clip160)" d="M1335.14 984.033 Q1331.53 984.033 1329.7 987.598 Q1327.9 991.14 1327.9 998.269 Q1327.9 1005.38 1329.7 1008.94 Q1331.53 1012.48 1335.14 1012.48 Q1338.78 1012.48 1340.58 1008.94 Q1342.41 1005.38 1342.41 998.269 Q1342.41 991.14 1340.58 987.598 Q1338.78 984.033 1335.14 984.033 M1335.14 980.33 Q1340.95 980.33 1344.01 984.936 Q1347.09 989.519 1347.09 998.269 Q1347.09 1007 1344.01 1011.6 Q1340.95 1016.19 1335.14 1016.19 Q1329.33 1016.19 1326.26 1011.6 Q1323.2 1007 1323.2 998.269 Q1323.2 989.519 1326.26 984.936 Q1329.33 980.33 1335.14 980.33 Z" fill="#000000" fill-rule="evenodd" fill-opacity="1" /><path clip-path="url(#clip160)" d="M1791.12 980.955 L1813.34 980.955 L1813.34 982.945 L1800.79 1015.51 L1795.91 1015.51 L1807.71 984.89 L1791.12 984.89 L1791.12 980.955 Z" fill="#000000" fill-rule="evenodd" fill-opacity="1" /><path clip-path="url(#clip160)" d="M1822.5 980.955 L1840.86 980.955 L1840.86 984.89 L1826.79 984.89 L1826.79 993.362 Q1827.81 993.015 1828.82 992.853 Q1829.84 992.667 1830.86 992.667 Q1836.65 992.667 1840.03 995.839 Q1843.41 999.01 1843.41 1004.43 Q1843.41 1010.01 1839.94 1013.11 Q1836.46 1016.19 1830.14 1016.19 Q1827.97 1016.19 1825.7 1015.82 Q1823.45 1015.45 1821.05 1014.7 L1821.05 1010.01 Q1823.13 1011.14 1825.35 1011.7 Q1827.57 1012.25 1830.05 1012.25 Q1834.06 1012.25 1836.39 1010.14 Q1838.73 1008.04 1838.73 1004.43 Q1838.73 1000.82 1836.39 998.709 Q1834.06 996.603 1830.05 996.603 Q1828.18 996.603 1826.3 997.019 Q1824.45 997.436 1822.5 998.316 L1822.5 980.955 Z" fill="#000000" fill-rule="evenodd" fill-opacity="1" /><path clip-path="url(#clip160)" d="M2273.8 1011.58 L2281.44 1011.58 L2281.44 985.214 L2273.13 986.88 L2273.13 982.621 L2281.39 980.955 L2286.07 980.955 L2286.07 1011.58 L2293.71 1011.58 L2293.71 1015.51 L2273.8 1015.51 L2273.8 1011.58 Z" fill="#000000" fill-rule="evenodd" fill-opacity="1" /><path clip-path="url(#clip160)" d="M2313.15 984.033 Q2309.54 984.033 2307.71 987.598 Q2305.91 991.14 2305.91 998.269 Q2305.91 1005.38 2307.71 1008.94 Q2309.54 1012.48 2313.15 1012.48 Q2316.79 1012.48 2318.59 1008.94 Q2320.42 1005.38 2320.42 998.269 Q2320.42 991.14 2318.59 987.598 Q2316.79 984.033 2313.15 984.033 M2313.15 980.33 Q2318.96 980.33 2322.02 984.936 Q2325.1 989.519 2325.1 998.269 Q2325.1 1007 2322.02 1011.6 Q2318.96 1016.19 2313.15 1016.19 Q2307.34 1016.19 2304.26 1011.6 Q2301.21 1007 2301.21 998.269 Q2301.21 989.519 2304.26 984.936 Q2307.34 980.33 2313.15 980.33 Z" fill="#000000" fill-rule="evenodd" fill-opacity="1" /><path clip-path="url(#clip160)" d="M2343.31 984.033 Q2339.7 984.033 2337.87 987.598 Q2336.07 991.14 2336.07 998.269 Q2336.07 1005.38 2337.87 1008.94 Q2339.7 1012.48 2343.31 1012.48 Q2346.95 1012.48 2348.75 1008.94 Q2350.58 1005.38 2350.58 998.269 Q2350.58 991.14 2348.75 987.598 Q2346.95 984.033 2343.31 984.033 M2343.31 980.33 Q2349.12 980.33 2352.18 984.936 Q2355.26 989.519 2355.26 998.269 Q2355.26 1007 2352.18 1011.6 Q2349.12 1016.19 2343.31 1016.19 Q2337.5 1016.19 2334.43 1011.6 Q2331.37 1007 2331.37 998.269 Q2331.37 989.519 2334.43 984.936 Q2337.5 980.33 2343.31 980.33 Z" fill="#000000" fill-rule="evenodd" fill-opacity="1" /><polyline clip-path="url(#clip164)" style="stroke:#000000; stroke-linecap:butt; stroke-linejoin:round; stroke-width:2; stroke-opacity:0.1; fill:none" points="
  287.902,875.906 2352.76,875.906 
  "/>
<polyline clip-path="url(#clip164)" style="stroke:#000000; stroke-linecap:butt; stroke-linejoin:round; stroke-width:2; stroke-opacity:0.1; fill:none" points="
  287.902,778.091 2352.76,778.091 
  "/>
<polyline clip-path="url(#clip164)" style="stroke:#000000; stroke-linecap:butt; stroke-linejoin:round; stroke-width:2; stroke-opacity:0.1; fill:none" points="
  287.902,680.275 2352.76,680.275 
  "/>
<polyline clip-path="url(#clip164)" style="stroke:#000000; stroke-linecap:butt; stroke-linejoin:round; stroke-width:2; stroke-opacity:0.1; fill:none" points="
  287.902,582.46 2352.76,582.46 
  "/>
<polyline clip-path="url(#clip160)" style="stroke:#000000; stroke-linecap:butt; stroke-linejoin:round; stroke-width:4; stroke-opacity:1; fill:none" points="
  287.902,953.115 287.902,580.577 
  "/>
<polyline clip-path="url(#clip160)" style="stroke:#000000; stroke-linecap:butt; stroke-linejoin:round; stroke-width:4; stroke-opacity:1; fill:none" points="
  287.902,875.906 306.8,875.906 
  "/>
<polyline clip-path="url(#clip160)" style="stroke:#000000; stroke-linecap:butt; stroke-linejoin:round; stroke-width:4; stroke-opacity:1; fill:none" points="
  287.902,778.091 306.8,778.091 
  "/>
<polyline clip-path="url(#clip160)" style="stroke:#000000; stroke-linecap:butt; stroke-linejoin:round; stroke-width:4; stroke-opacity:1; fill:none" points="
  287.902,680.275 306.8,680.275 
  "/>
<polyline clip-path="url(#clip160)" style="stroke:#000000; stroke-linecap:butt; stroke-linejoin:round; stroke-width:4; stroke-opacity:1; fill:none" points="
  287.902,582.46 306.8,582.46 
  "/>
<path clip-path="url(#clip160)" d="M160.028 876.357 L189.704 876.357 L189.704 880.292 L160.028 880.292 L160.028 876.357 Z" fill="#000000" fill-rule="evenodd" fill-opacity="1" /><path clip-path="url(#clip160)" d="M200.606 889.251 L208.245 889.251 L208.245 862.885 L199.935 864.552 L199.935 860.292 L208.199 858.626 L212.875 858.626 L212.875 889.251 L220.514 889.251 L220.514 893.186 L200.606 893.186 L200.606 889.251 Z" fill="#000000" fill-rule="evenodd" fill-opacity="1" /><path clip-path="url(#clip160)" d="M239.958 861.704 Q236.347 861.704 234.518 865.269 Q232.713 868.811 232.713 875.94 Q232.713 883.047 234.518 886.612 Q236.347 890.153 239.958 890.153 Q243.592 890.153 245.398 886.612 Q247.226 883.047 247.226 875.94 Q247.226 868.811 245.398 865.269 Q243.592 861.704 239.958 861.704 M239.958 858.001 Q245.768 858.001 248.824 862.607 Q251.902 867.19 251.902 875.94 Q251.902 884.667 248.824 889.274 Q245.768 893.857 239.958 893.857 Q234.148 893.857 231.069 889.274 Q228.014 884.667 228.014 875.94 Q228.014 867.19 231.069 862.607 Q234.148 858.001 239.958 858.001 Z" fill="#000000" fill-rule="evenodd" fill-opacity="1" /><path clip-path="url(#clip160)" d="M239.958 763.889 Q236.347 763.889 234.518 767.454 Q232.713 770.996 232.713 778.125 Q232.713 785.232 234.518 788.796 Q236.347 792.338 239.958 792.338 Q243.592 792.338 245.398 788.796 Q247.226 785.232 247.226 778.125 Q247.226 770.996 245.398 767.454 Q243.592 763.889 239.958 763.889 M239.958 760.186 Q245.768 760.186 248.824 764.792 Q251.902 769.375 251.902 778.125 Q251.902 786.852 248.824 791.459 Q245.768 796.042 239.958 796.042 Q234.148 796.042 231.069 791.459 Q228.014 786.852 228.014 778.125 Q228.014 769.375 231.069 764.792 Q234.148 760.186 239.958 760.186 Z" fill="#000000" fill-rule="evenodd" fill-opacity="1" /><path clip-path="url(#clip160)" d="M200.606 693.62 L208.245 693.62 L208.245 667.255 L199.935 668.921 L199.935 664.662 L208.199 662.995 L212.875 662.995 L212.875 693.62 L220.514 693.62 L220.514 697.555 L200.606 697.555 L200.606 693.62 Z" fill="#000000" fill-rule="evenodd" fill-opacity="1" /><path clip-path="url(#clip160)" d="M239.958 666.074 Q236.347 666.074 234.518 669.639 Q232.713 673.181 232.713 680.31 Q232.713 687.417 234.518 690.981 Q236.347 694.523 239.958 694.523 Q243.592 694.523 245.398 690.981 Q247.226 687.417 247.226 680.31 Q247.226 673.181 245.398 669.639 Q243.592 666.074 239.958 666.074 M239.958 662.37 Q245.768 662.37 248.824 666.977 Q251.902 671.56 251.902 680.31 Q251.902 689.037 248.824 693.643 Q245.768 698.227 239.958 698.227 Q234.148 698.227 231.069 693.643 Q228.014 689.037 228.014 680.31 Q228.014 671.56 231.069 666.977 Q234.148 662.37 239.958 662.37 Z" fill="#000000" fill-rule="evenodd" fill-opacity="1" /><path clip-path="url(#clip160)" d="M203.824 595.805 L220.143 595.805 L220.143 599.74 L198.199 599.74 L198.199 595.805 Q200.861 593.05 205.444 588.421 Q210.051 583.768 211.231 582.426 Q213.477 579.902 214.356 578.166 Q215.259 576.407 215.259 574.717 Q215.259 571.963 213.315 570.227 Q211.393 568.49 208.291 568.49 Q206.092 568.49 203.639 569.254 Q201.208 570.018 198.43 571.569 L198.43 566.847 Q201.254 565.713 203.708 565.134 Q206.162 564.555 208.199 564.555 Q213.569 564.555 216.764 567.24 Q219.958 569.926 219.958 574.416 Q219.958 576.546 219.148 578.467 Q218.361 580.365 216.254 582.958 Q215.676 583.629 212.574 586.847 Q209.472 590.041 203.824 595.805 Z" fill="#000000" fill-rule="evenodd" fill-opacity="1" /><path clip-path="url(#clip160)" d="M239.958 568.259 Q236.347 568.259 234.518 571.824 Q232.713 575.365 232.713 582.495 Q232.713 589.601 234.518 593.166 Q236.347 596.708 239.958 596.708 Q243.592 596.708 245.398 593.166 Q247.226 589.601 247.226 582.495 Q247.226 575.365 245.398 571.824 Q243.592 568.259 239.958 568.259 M239.958 564.555 Q245.768 564.555 248.824 569.162 Q251.902 573.745 251.902 582.495 Q251.902 591.222 248.824 595.828 Q245.768 600.412 239.958 600.412 Q234.148 600.412 231.069 595.828 Q228.014 591.222 228.014 582.495 Q228.014 573.745 231.069 569.162 Q234.148 564.555 239.958 564.555 Z" fill="#000000" fill-rule="evenodd" fill-opacity="1" /><path clip-path="url(#clip160)" d="M72.372 820.38 L73.2963 820.943 Q71.7859 824.438 69.3737 828.789 Q71.7859 833.14 73.2963 836.634 L72.372 837.175 Q69.0581 833.365 66.5106 828.789 Q69.0806 824.167 72.372 820.38 Z" fill="#000000" fill-rule="evenodd" fill-opacity="1" /><path clip-path="url(#clip160)" d="M100.032 816.155 Q104.187 816.992 106.57 818.119 Q110.209 819.955 110.209 823.015 Q110.209 825.14 109.018 826.75 Q107.794 828.329 105.765 828.876 Q106.57 829.488 107.118 830.035 Q107.665 830.551 108.503 831.549 Q109.308 832.548 109.759 833.9 Q110.209 835.221 110.209 836.734 Q110.209 837.894 109.984 838.957 Q109.791 840.019 109.243 841.147 Q108.664 842.241 107.794 843.047 Q106.924 843.82 105.507 844.335 Q104.09 844.85 102.287 844.85 Q100.032 844.85 96.9729 843.981 Q93.9133 843.079 88.4383 841.018 Q85.5398 839.89 83.9295 839.89 Q83.1887 839.89 82.7057 840.052 Q82.2226 840.213 82.0615 840.535 Q81.8683 840.824 81.8361 841.018 Q81.7717 841.211 81.7717 841.533 Q81.7717 843.53 83.8007 845.269 Q85.8296 847.008 89.952 848.2 Q90.7571 848.457 90.9504 848.618 Q91.1436 848.779 91.1436 849.262 Q91.1114 850.068 90.4673 850.068 Q90.2096 850.068 89.2112 849.778 Q88.1807 849.488 86.667 848.811 Q85.1211 848.103 83.7362 847.137 Q82.3192 846.171 81.3208 844.657 Q80.3224 843.111 80.3224 841.34 Q80.3224 838.924 81.9005 837.443 Q83.4464 835.929 85.733 835.929 Q87.1501 835.929 89.8876 837.056 Q99.3883 840.631 103.35 840.631 Q108.728 840.631 108.728 836.541 Q108.728 835.188 108.18 833.932 Q107.633 832.644 106.86 831.807 Q106.087 830.969 105.25 830.325 Q104.412 829.649 103.865 829.359 Q103.317 829.037 103.189 829.005 L83.3498 824.077 Q82.5768 823.884 82.0615 823.53 Q81.514 823.143 81.3208 822.693 Q81.1276 822.242 81.0954 821.984 Q81.031 821.726 81.031 821.501 Q81.031 820.696 81.514 820.148 Q81.9971 819.569 82.8345 819.569 Q82.9955 819.569 83.7685 819.762 Q84.5092 819.923 85.6042 820.18 Q86.667 820.438 87.2467 820.567 Q91.3046 821.598 91.7233 821.694 L98.8408 823.53 Q99.2595 823.627 100.612 823.949 Q101.965 824.238 102.673 824.399 Q103.35 824.56 104.284 824.722 Q105.185 824.85 105.701 824.85 Q107.311 824.85 108.019 824.367 Q108.728 823.884 108.728 822.821 Q108.728 821.823 108.052 821.05 Q107.343 820.245 105.99 819.633 Q104.606 819.021 103.478 818.667 Q102.351 818.313 100.58 817.862 Q99.807 817.701 99.6137 817.572 Q99.3883 817.411 99.3883 816.96 Q99.3883 816.155 100.032 816.155 Z" fill="#000000" fill-rule="evenodd" fill-opacity="1" /><path clip-path="url(#clip160)" d="M98.8041 776.67 L106.785 777.595 Q107.506 777.662 107.732 777.775 Q107.935 777.888 107.935 778.248 Q107.935 778.789 107.393 778.789 Q107.168 778.789 106.559 778.699 Q105.319 778.564 104.057 778.564 Q102.637 778.564 101.757 778.835 Q100.856 779.082 100.202 779.804 Q99.5481 780.525 99.2776 781.855 Q98.9845 783.186 98.9845 785.305 L98.9845 791.392 Q98.9845 792.879 99.255 793.24 Q99.5256 793.578 100.788 793.894 L112.511 796.847 L112.511 792.654 Q112.511 789.723 111.654 788.574 Q110.798 787.424 108.07 786.702 Q107.641 786.59 107.484 786.545 Q107.303 786.477 107.213 786.364 Q107.1 786.229 107.1 786.004 Q107.1 785.801 107.236 785.665 Q107.348 785.53 107.484 785.485 L107.619 785.44 Q107.844 785.44 108.363 785.575 L118.372 788.123 Q119.049 788.303 119.207 788.416 Q119.342 788.506 119.342 788.822 Q119.342 789.047 119.184 789.205 Q119.026 789.363 118.778 789.363 Q118.508 789.318 118.282 789.227 Q116.907 788.912 116.028 788.912 Q115.464 788.912 115.126 789.024 Q114.788 789.137 114.495 789.52 Q114.202 789.904 114.066 790.693 Q113.931 791.482 113.931 792.744 L113.931 797.208 L125.429 800.071 L126.488 800.274 Q126.962 800.274 127.142 800.026 Q127.322 799.755 127.413 798.786 Q127.525 797.343 127.525 796.396 Q127.525 795.224 127.57 795.089 Q127.706 794.818 128.066 794.818 Q128.472 794.818 128.698 794.999 Q128.901 795.179 128.923 795.337 Q128.946 795.495 128.946 795.788 L128.81 802.664 L128.946 808.751 Q128.946 809.449 128.382 809.449 Q127.954 809.449 127.773 809.269 Q127.57 809.089 127.548 808.886 Q127.525 808.683 127.525 808.164 Q127.525 807.037 127.458 806.361 Q127.39 805.685 127.3 805.256 Q127.187 804.805 126.872 804.58 Q126.556 804.332 126.285 804.219 Q125.992 804.106 125.339 803.949 L100.923 797.862 Q100.089 797.636 99.8186 797.636 Q99.5256 797.636 99.3452 797.839 Q99.1648 798.02 99.0972 798.516 Q99.007 799.011 99.007 799.417 Q98.9845 799.801 98.9845 800.635 Q98.9845 801.176 98.9619 801.401 Q98.9394 801.604 98.8267 801.762 Q98.714 801.92 98.466 801.92 Q97.8347 801.92 97.6995 801.649 Q97.5417 801.356 97.5417 800.544 L97.5417 777.91 Q97.5417 777.008 97.7446 776.806 Q97.9249 776.58 98.8041 776.67 Z" fill="#000000" fill-rule="evenodd" fill-opacity="1" /><path clip-path="url(#clip160)" d="M109.084 738.685 Q112.804 738.685 116.456 740.285 Q120.086 741.863 122.836 744.433 Q125.564 746.981 127.255 750.43 Q128.946 753.879 128.946 757.396 L128.946 772.681 Q128.946 773.222 128.923 773.448 Q128.901 773.65 128.788 773.808 Q128.653 773.966 128.382 773.966 Q127.954 773.966 127.773 773.786 Q127.57 773.605 127.548 773.402 Q127.525 773.2 127.525 772.681 Q127.525 771.554 127.458 770.878 Q127.39 770.201 127.3 769.773 Q127.187 769.322 126.872 769.097 Q126.556 768.849 126.285 768.736 Q125.992 768.623 125.339 768.465 L100.54 762.288 Q99.7961 762.108 99.6834 762.108 Q99.3001 762.108 99.1648 762.333 Q99.007 762.536 98.9394 763.122 Q98.8492 764.25 98.8492 765.106 Q98.8492 765.67 98.8267 765.895 Q98.8041 766.098 98.6914 766.279 Q98.5562 766.436 98.2856 766.436 Q97.8573 766.436 97.6769 766.256 Q97.474 766.053 97.4515 765.828 Q97.4064 765.602 97.4064 765.061 L97.4064 749.551 Q97.4064 746.192 98.9845 743.689 Q100.54 741.187 103.178 739.947 Q105.793 738.685 109.084 738.685 M107.393 742.72 Q103.088 742.72 100.968 745.065 Q98.8492 747.387 98.8492 751.061 L98.8492 755.998 Q98.8492 757.464 99.1198 757.825 Q99.3677 758.185 100.608 758.501 L125.947 764.836 Q126.781 765.061 127.007 765.061 Q127.255 765.061 127.345 764.948 Q127.413 764.813 127.458 764.452 Q127.525 764.047 127.525 763.438 L127.525 758.23 Q127.525 756.224 126.984 754.398 Q126.421 752.549 125.541 751.219 Q124.64 749.889 123.873 749.032 Q123.084 748.176 122.295 747.567 Q120.514 746.192 118.192 745.177 Q115.87 744.14 113.751 743.667 Q111.609 743.171 110.031 742.945 Q108.43 742.72 107.393 742.72 Z" fill="#000000" fill-rule="evenodd" fill-opacity="1" /><path clip-path="url(#clip160)" d="M97.9249 688.749 Q98.5787 688.749 98.714 689.042 Q98.8492 689.313 98.8492 690.215 Q98.8492 691.274 98.9394 691.928 Q99.007 692.582 99.1198 692.988 Q99.2099 693.393 99.5256 693.641 Q99.8412 693.867 100.112 693.957 Q100.36 694.047 100.968 694.205 L125.564 700.337 Q126.398 700.562 126.691 700.562 Q126.984 700.562 127.165 700.382 Q127.345 700.179 127.435 699.683 Q127.503 699.187 127.525 698.804 Q127.525 698.398 127.525 697.564 Q127.525 696.527 127.706 696.369 Q127.818 696.279 128.021 696.279 Q128.45 696.279 128.675 696.459 Q128.878 696.64 128.923 696.797 Q128.946 696.933 128.946 697.158 Q128.946 698.105 128.878 700.044 Q128.81 701.983 128.81 702.929 L128.946 708.656 Q128.946 709.332 128.382 709.332 Q127.954 709.332 127.773 709.152 Q127.57 708.971 127.548 708.768 Q127.525 708.566 127.525 708.047 Q127.525 706.198 127.322 705.409 Q127.12 704.598 126.759 704.372 Q126.376 704.124 125.339 703.854 L98.8943 697.248 L98.8943 697.293 L128.111 715.937 L128.314 716.073 Q128.495 716.208 128.562 716.253 Q128.607 716.298 128.743 716.433 Q128.855 716.546 128.901 716.681 Q128.946 716.794 128.946 716.952 Q128.946 717.222 128.765 717.38 Q128.585 717.516 128.45 717.561 Q128.292 717.583 127.886 717.651 L99.255 721.619 L99.255 721.664 L124.414 727.953 Q125.113 728.134 125.474 728.134 Q126.398 728.134 126.962 727.48 Q127.503 726.804 127.525 725 Q127.525 724.166 128.021 724.166 Q128.946 724.166 128.946 725 Q128.946 725.767 128.878 727.367 Q128.81 728.968 128.81 729.757 Q128.81 730.523 128.878 732.079 Q128.946 733.612 128.946 734.356 Q128.946 735.01 128.382 735.01 Q127.525 735.01 127.525 734.176 Q127.48 732.823 127.21 731.899 Q126.939 730.974 126.421 730.456 Q125.902 729.915 125.384 729.667 Q124.843 729.396 124.054 729.193 L100.54 723.332 Q99.7961 723.152 99.6834 723.152 Q99.3001 723.152 99.1648 723.377 Q99.007 723.58 98.9394 724.166 Q98.8492 725.293 98.8492 726.15 Q98.8492 726.714 98.8267 726.939 Q98.8041 727.142 98.6914 727.322 Q98.5562 727.48 98.2856 727.48 Q97.8573 727.48 97.6769 727.3 Q97.474 727.097 97.4515 726.871 Q97.4064 726.646 97.4064 726.105 L97.4064 719.77 Q97.4064 718.846 97.5642 718.643 Q97.6995 718.44 98.466 718.35 L124.595 714.743 L98.2856 697.88 Q97.6318 697.451 97.5191 697.226 Q97.4064 697 97.4064 696.099 L97.4064 689.989 Q97.4064 689.493 97.4289 689.29 Q97.4515 689.087 97.5642 688.93 Q97.6769 688.749 97.9249 688.749 Z" fill="#000000" fill-rule="evenodd" fill-opacity="1" /><polyline clip-path="url(#clip164)" style="stroke:#009af9; stroke-linecap:butt; stroke-linejoin:round; stroke-width:4; stroke-opacity:1; fill:none" points="
  346.342,813.061 366.219,742.361 386.096,844.283 405.974,762.052 425.851,807.406 445.728,756.977 465.605,738.254 485.483,806.458 505.36,768.352 525.237,887.435 
  545.115,734.779 564.992,844.092 584.869,721.529 604.746,790.637 624.624,740.779 644.501,797.317 664.378,809.369 684.256,843.857 704.133,786.366 724.01,864.061 
  743.888,710.147 763.765,841.175 783.642,667.647 803.519,789.124 823.397,824.749 843.274,812.792 863.151,762.525 883.029,716.988 902.906,800.166 922.783,874.809 
  942.661,757.907 962.538,850.181 982.415,714.119 1002.29,771.393 1022.17,779.98 1042.05,905.492 1061.92,689.202 1081.8,854.051 1101.68,764.162 1121.56,731.388 
  1141.43,811.49 1161.31,810.141 1181.19,750.469 1201.07,738.011 1220.94,897.103 1240.82,822.955 1260.7,778.678 1280.57,777.221 1300.45,774.553 1320.33,707.986 
  1340.21,897.319 1360.08,655.992 1379.96,817.522 1399.84,677.478 1419.72,863.071 1439.59,726.616 1459.47,814.169 1479.35,756.01 1499.22,748.002 1519.1,766.889 
  1538.98,782.74 1558.86,688.365 1578.73,796.401 1598.61,705.22 1618.49,871.657 1638.37,703.336 1658.24,921.693 1678.12,635.85 1698,781.335 1717.88,804.51 
  1737.75,716.622 1757.63,759.581 1777.51,760.855 1797.38,798.127 1817.26,759.63 1837.14,830.145 1857.02,788.799 1876.89,728.338 1896.77,746.417 1916.65,731.396 
  1936.53,852.726 1956.4,753.831 1976.28,600.687 1996.16,942.571 2016.03,645.284 2035.91,814.848 2055.79,841.952 2075.67,746.558 2095.54,773.665 2115.42,735.063 
  2135.3,725.21 2155.18,913.829 2175.05,591.121 2194.93,828.733 2214.81,832.643 2234.68,747.931 2254.56,747.8 2274.44,768.572 2294.32,724.607 
  "/>
<path clip-path="url(#clip160)" d="
M287.902 1486.45 L2352.76 1486.45 L2352.76 1113.91 L287.902 1113.91  Z
  " fill="#ffffff" fill-rule="evenodd" fill-opacity="1"/>
<defs>
  <clipPath id="clip165">
    <rect x="287" y="1113" width="2066" height="374"/>
  </clipPath>
</defs>
<polyline clip-path="url(#clip165)" style="stroke:#000000; stroke-linecap:butt; stroke-linejoin:round; stroke-width:2; stroke-opacity:0.1; fill:none" points="
  326.665,1486.45 326.665,1113.91 
  "/>
<polyline clip-path="url(#clip165)" style="stroke:#000000; stroke-linecap:butt; stroke-linejoin:round; stroke-width:2; stroke-opacity:0.1; fill:none" points="
  818.578,1486.45 818.578,1113.91 
  "/>
<polyline clip-path="url(#clip165)" style="stroke:#000000; stroke-linecap:butt; stroke-linejoin:round; stroke-width:2; stroke-opacity:0.1; fill:none" points="
  1310.49,1486.45 1310.49,1113.91 
  "/>
<polyline clip-path="url(#clip165)" style="stroke:#000000; stroke-linecap:butt; stroke-linejoin:round; stroke-width:2; stroke-opacity:0.1; fill:none" points="
  1802.4,1486.45 1802.4,1113.91 
  "/>
<polyline clip-path="url(#clip165)" style="stroke:#000000; stroke-linecap:butt; stroke-linejoin:round; stroke-width:2; stroke-opacity:0.1; fill:none" points="
  2294.32,1486.45 2294.32,1113.91 
  "/>
<polyline clip-path="url(#clip160)" style="stroke:#000000; stroke-linecap:butt; stroke-linejoin:round; stroke-width:4; stroke-opacity:1; fill:none" points="
  287.902,1486.45 2352.76,1486.45 
  "/>
<polyline clip-path="url(#clip160)" style="stroke:#000000; stroke-linecap:butt; stroke-linejoin:round; stroke-width:4; stroke-opacity:1; fill:none" points="
  326.665,1486.45 326.665,1467.55 
  "/>
<polyline clip-path="url(#clip160)" style="stroke:#000000; stroke-linecap:butt; stroke-linejoin:round; stroke-width:4; stroke-opacity:1; fill:none" points="
  818.578,1486.45 818.578,1467.55 
  "/>
<polyline clip-path="url(#clip160)" style="stroke:#000000; stroke-linecap:butt; stroke-linejoin:round; stroke-width:4; stroke-opacity:1; fill:none" points="
  1310.49,1486.45 1310.49,1467.55 
  "/>
<polyline clip-path="url(#clip160)" style="stroke:#000000; stroke-linecap:butt; stroke-linejoin:round; stroke-width:4; stroke-opacity:1; fill:none" points="
  1802.4,1486.45 1802.4,1467.55 
  "/>
<polyline clip-path="url(#clip160)" style="stroke:#000000; stroke-linecap:butt; stroke-linejoin:round; stroke-width:4; stroke-opacity:1; fill:none" points="
  2294.32,1486.45 2294.32,1467.55 
  "/>
<path clip-path="url(#clip160)" d="M326.665 1517.37 Q323.054 1517.37 321.225 1520.93 Q319.42 1524.47 319.42 1531.6 Q319.42 1538.71 321.225 1542.27 Q323.054 1545.82 326.665 1545.82 Q330.299 1545.82 332.105 1542.27 Q333.934 1538.71 333.934 1531.6 Q333.934 1524.47 332.105 1520.93 Q330.299 1517.37 326.665 1517.37 M326.665 1513.66 Q332.475 1513.66 335.531 1518.27 Q338.609 1522.85 338.609 1531.6 Q338.609 1540.33 335.531 1544.94 Q332.475 1549.52 326.665 1549.52 Q320.855 1549.52 317.776 1544.94 Q314.721 1540.33 314.721 1531.6 Q314.721 1522.85 317.776 1518.27 Q320.855 1513.66 326.665 1513.66 Z" fill="#000000" fill-rule="evenodd" fill-opacity="1" /><path clip-path="url(#clip160)" d="M797.849 1544.91 L814.168 1544.91 L814.168 1548.85 L792.224 1548.85 L792.224 1544.91 Q794.886 1542.16 799.469 1537.53 Q804.076 1532.88 805.256 1531.53 Q807.502 1529.01 808.381 1527.27 Q809.284 1525.51 809.284 1523.82 Q809.284 1521.07 807.34 1519.33 Q805.418 1517.6 802.317 1517.6 Q800.117 1517.6 797.664 1518.36 Q795.233 1519.13 792.455 1520.68 L792.455 1515.95 Q795.28 1514.82 797.733 1514.24 Q800.187 1513.66 802.224 1513.66 Q807.594 1513.66 810.789 1516.35 Q813.983 1519.03 813.983 1523.52 Q813.983 1525.65 813.173 1527.57 Q812.386 1529.47 810.279 1532.07 Q809.701 1532.74 806.599 1535.95 Q803.497 1539.15 797.849 1544.91 Z" fill="#000000" fill-rule="evenodd" fill-opacity="1" /><path clip-path="url(#clip160)" d="M824.029 1514.29 L842.386 1514.29 L842.386 1518.22 L828.312 1518.22 L828.312 1526.7 Q829.33 1526.35 830.349 1526.19 Q831.367 1526 832.386 1526 Q838.173 1526 841.552 1529.17 Q844.932 1532.34 844.932 1537.76 Q844.932 1543.34 841.46 1546.44 Q837.988 1549.52 831.668 1549.52 Q829.492 1549.52 827.224 1549.15 Q824.978 1548.78 822.571 1548.04 L822.571 1543.34 Q824.654 1544.47 826.877 1545.03 Q829.099 1545.58 831.576 1545.58 Q835.58 1545.58 837.918 1543.48 Q840.256 1541.37 840.256 1537.76 Q840.256 1534.15 837.918 1532.04 Q835.58 1529.94 831.576 1529.94 Q829.701 1529.94 827.826 1530.35 Q825.974 1530.77 824.029 1531.65 L824.029 1514.29 Z" fill="#000000" fill-rule="evenodd" fill-opacity="1" /><path clip-path="url(#clip160)" d="M1285.19 1514.29 L1303.55 1514.29 L1303.55 1518.22 L1289.47 1518.22 L1289.47 1526.7 Q1290.49 1526.35 1291.51 1526.19 Q1292.53 1526 1293.55 1526 Q1299.33 1526 1302.71 1529.17 Q1306.09 1532.34 1306.09 1537.76 Q1306.09 1543.34 1302.62 1546.44 Q1299.15 1549.52 1292.83 1549.52 Q1290.65 1549.52 1288.38 1549.15 Q1286.14 1548.78 1283.73 1548.04 L1283.73 1543.34 Q1285.82 1544.47 1288.04 1545.03 Q1290.26 1545.58 1292.74 1545.58 Q1296.74 1545.58 1299.08 1543.48 Q1301.42 1541.37 1301.42 1537.76 Q1301.42 1534.15 1299.08 1532.04 Q1296.74 1529.94 1292.74 1529.94 Q1290.86 1529.94 1288.99 1530.35 Q1287.13 1530.77 1285.19 1531.65 L1285.19 1514.29 Z" fill="#000000" fill-rule="evenodd" fill-opacity="1" /><path clip-path="url(#clip160)" d="M1325.31 1517.37 Q1321.69 1517.37 1319.87 1520.93 Q1318.06 1524.47 1318.06 1531.6 Q1318.06 1538.71 1319.87 1542.27 Q1321.69 1545.82 1325.31 1545.82 Q1328.94 1545.82 1330.75 1542.27 Q1332.57 1538.71 1332.57 1531.6 Q1332.57 1524.47 1330.75 1520.93 Q1328.94 1517.37 1325.31 1517.37 M1325.31 1513.66 Q1331.12 1513.66 1334.17 1518.27 Q1337.25 1522.85 1337.25 1531.6 Q1337.25 1540.33 1334.17 1544.94 Q1331.12 1549.52 1325.31 1549.52 Q1319.5 1549.52 1316.42 1544.94 Q1313.36 1540.33 1313.36 1531.6 Q1313.36 1522.85 1316.42 1518.27 Q1319.5 1513.66 1325.31 1513.66 Z" fill="#000000" fill-rule="evenodd" fill-opacity="1" /><path clip-path="url(#clip160)" d="M1776.26 1514.29 L1798.48 1514.29 L1798.48 1516.28 L1785.93 1548.85 L1781.05 1548.85 L1792.86 1518.22 L1776.26 1518.22 L1776.26 1514.29 Z" fill="#000000" fill-rule="evenodd" fill-opacity="1" /><path clip-path="url(#clip160)" d="M1807.65 1514.29 L1826 1514.29 L1826 1518.22 L1811.93 1518.22 L1811.93 1526.7 Q1812.95 1526.35 1813.97 1526.19 Q1814.98 1526 1816 1526 Q1821.79 1526 1825.17 1529.17 Q1828.55 1532.34 1828.55 1537.76 Q1828.55 1543.34 1825.08 1546.44 Q1821.61 1549.52 1815.29 1549.52 Q1813.11 1549.52 1810.84 1549.15 Q1808.6 1548.78 1806.19 1548.04 L1806.19 1543.34 Q1808.27 1544.47 1810.49 1545.03 Q1812.72 1545.58 1815.19 1545.58 Q1819.2 1545.58 1821.54 1543.48 Q1823.87 1541.37 1823.87 1537.76 Q1823.87 1534.15 1821.54 1532.04 Q1819.2 1529.94 1815.19 1529.94 Q1813.32 1529.94 1811.44 1530.35 Q1809.59 1530.77 1807.65 1531.65 L1807.65 1514.29 Z" fill="#000000" fill-rule="evenodd" fill-opacity="1" /><path clip-path="url(#clip160)" d="M2253.92 1544.91 L2261.56 1544.91 L2261.56 1518.55 L2253.25 1520.21 L2253.25 1515.95 L2261.52 1514.29 L2266.19 1514.29 L2266.19 1544.91 L2273.83 1544.91 L2273.83 1548.85 L2253.92 1548.85 L2253.92 1544.91 Z" fill="#000000" fill-rule="evenodd" fill-opacity="1" /><path clip-path="url(#clip160)" d="M2293.27 1517.37 Q2289.66 1517.37 2287.84 1520.93 Q2286.03 1524.47 2286.03 1531.6 Q2286.03 1538.71 2287.84 1542.27 Q2289.66 1545.82 2293.27 1545.82 Q2296.91 1545.82 2298.71 1542.27 Q2300.54 1538.71 2300.54 1531.6 Q2300.54 1524.47 2298.71 1520.93 Q2296.91 1517.37 2293.27 1517.37 M2293.27 1513.66 Q2299.09 1513.66 2302.14 1518.27 Q2305.22 1522.85 2305.22 1531.6 Q2305.22 1540.33 2302.14 1544.94 Q2299.09 1549.52 2293.27 1549.52 Q2287.46 1549.52 2284.39 1544.94 Q2281.33 1540.33 2281.33 1531.6 Q2281.33 1522.85 2284.39 1518.27 Q2287.46 1513.66 2293.27 1513.66 Z" fill="#000000" fill-rule="evenodd" fill-opacity="1" /><path clip-path="url(#clip160)" d="M2323.44 1517.37 Q2319.83 1517.37 2318 1520.93 Q2316.19 1524.47 2316.19 1531.6 Q2316.19 1538.71 2318 1542.27 Q2319.83 1545.82 2323.44 1545.82 Q2327.07 1545.82 2328.88 1542.27 Q2330.71 1538.71 2330.71 1531.6 Q2330.71 1524.47 2328.88 1520.93 Q2327.07 1517.37 2323.44 1517.37 M2323.44 1513.66 Q2329.25 1513.66 2332.3 1518.27 Q2335.38 1522.85 2335.38 1531.6 Q2335.38 1540.33 2332.3 1544.94 Q2329.25 1549.52 2323.44 1549.52 Q2317.63 1549.52 2314.55 1544.94 Q2311.49 1540.33 2311.49 1531.6 Q2311.49 1522.85 2314.55 1518.27 Q2317.63 1513.66 2323.44 1513.66 Z" fill="#000000" fill-rule="evenodd" fill-opacity="1" /><polyline clip-path="url(#clip165)" style="stroke:#000000; stroke-linecap:butt; stroke-linejoin:round; stroke-width:2; stroke-opacity:0.1; fill:none" points="
  287.902,1444.89 2352.76,1444.89 
  "/>
<polyline clip-path="url(#clip165)" style="stroke:#000000; stroke-linecap:butt; stroke-linejoin:round; stroke-width:2; stroke-opacity:0.1; fill:none" points="
  287.902,1395.76 2352.76,1395.76 
  "/>
<polyline clip-path="url(#clip165)" style="stroke:#000000; stroke-linecap:butt; stroke-linejoin:round; stroke-width:2; stroke-opacity:0.1; fill:none" points="
  287.902,1346.63 2352.76,1346.63 
  "/>
<polyline clip-path="url(#clip165)" style="stroke:#000000; stroke-linecap:butt; stroke-linejoin:round; stroke-width:2; stroke-opacity:0.1; fill:none" points="
  287.902,1297.5 2352.76,1297.5 
  "/>
<polyline clip-path="url(#clip165)" style="stroke:#000000; stroke-linecap:butt; stroke-linejoin:round; stroke-width:2; stroke-opacity:0.1; fill:none" points="
  287.902,1248.37 2352.76,1248.37 
  "/>
<polyline clip-path="url(#clip165)" style="stroke:#000000; stroke-linecap:butt; stroke-linejoin:round; stroke-width:2; stroke-opacity:0.1; fill:none" points="
  287.902,1199.24 2352.76,1199.24 
  "/>
<polyline clip-path="url(#clip165)" style="stroke:#000000; stroke-linecap:butt; stroke-linejoin:round; stroke-width:2; stroke-opacity:0.1; fill:none" points="
  287.902,1150.11 2352.76,1150.11 
  "/>
<polyline clip-path="url(#clip160)" style="stroke:#000000; stroke-linecap:butt; stroke-linejoin:round; stroke-width:4; stroke-opacity:1; fill:none" points="
  287.902,1486.45 287.902,1113.91 
  "/>
<polyline clip-path="url(#clip160)" style="stroke:#000000; stroke-linecap:butt; stroke-linejoin:round; stroke-width:4; stroke-opacity:1; fill:none" points="
  287.902,1444.89 306.8,1444.89 
  "/>
<polyline clip-path="url(#clip160)" style="stroke:#000000; stroke-linecap:butt; stroke-linejoin:round; stroke-width:4; stroke-opacity:1; fill:none" points="
  287.902,1395.76 306.8,1395.76 
  "/>
<polyline clip-path="url(#clip160)" style="stroke:#000000; stroke-linecap:butt; stroke-linejoin:round; stroke-width:4; stroke-opacity:1; fill:none" points="
  287.902,1346.63 306.8,1346.63 
  "/>
<polyline clip-path="url(#clip160)" style="stroke:#000000; stroke-linecap:butt; stroke-linejoin:round; stroke-width:4; stroke-opacity:1; fill:none" points="
  287.902,1297.5 306.8,1297.5 
  "/>
<polyline clip-path="url(#clip160)" style="stroke:#000000; stroke-linecap:butt; stroke-linejoin:round; stroke-width:4; stroke-opacity:1; fill:none" points="
  287.902,1248.37 306.8,1248.37 
  "/>
<polyline clip-path="url(#clip160)" style="stroke:#000000; stroke-linecap:butt; stroke-linejoin:round; stroke-width:4; stroke-opacity:1; fill:none" points="
  287.902,1199.24 306.8,1199.24 
  "/>
<polyline clip-path="url(#clip160)" style="stroke:#000000; stroke-linecap:butt; stroke-linejoin:round; stroke-width:4; stroke-opacity:1; fill:none" points="
  287.902,1150.11 306.8,1150.11 
  "/>
<path clip-path="url(#clip160)" d="M115.792 1445.34 L145.468 1445.34 L145.468 1449.28 L115.792 1449.28 L115.792 1445.34 Z" fill="#000000" fill-rule="evenodd" fill-opacity="1" /><path clip-path="url(#clip160)" d="M165.56 1430.69 Q161.949 1430.69 160.12 1434.25 Q158.315 1437.79 158.315 1444.92 Q158.315 1452.03 160.12 1455.59 Q161.949 1459.14 165.56 1459.14 Q169.194 1459.14 171 1455.59 Q172.829 1452.03 172.829 1444.92 Q172.829 1437.79 171 1434.25 Q169.194 1430.69 165.56 1430.69 M165.56 1426.98 Q171.37 1426.98 174.426 1431.59 Q177.505 1436.17 177.505 1444.92 Q177.505 1453.65 174.426 1458.26 Q171.37 1462.84 165.56 1462.84 Q159.75 1462.84 156.671 1458.26 Q153.616 1453.65 153.616 1444.92 Q153.616 1436.17 156.671 1431.59 Q159.75 1426.98 165.56 1426.98 Z" fill="#000000" fill-rule="evenodd" fill-opacity="1" /><path clip-path="url(#clip160)" d="M185.722 1456.29 L190.606 1456.29 L190.606 1462.17 L185.722 1462.17 L185.722 1456.29 Z" fill="#000000" fill-rule="evenodd" fill-opacity="1" /><path clip-path="url(#clip160)" d="M199.611 1427.61 L221.833 1427.61 L221.833 1429.6 L209.287 1462.17 L204.403 1462.17 L216.208 1431.54 L199.611 1431.54 L199.611 1427.61 Z" fill="#000000" fill-rule="evenodd" fill-opacity="1" /><path clip-path="url(#clip160)" d="M231 1427.61 L249.356 1427.61 L249.356 1431.54 L235.282 1431.54 L235.282 1440.02 Q236.301 1439.67 237.319 1439.51 Q238.338 1439.32 239.356 1439.32 Q245.143 1439.32 248.523 1442.49 Q251.902 1445.66 251.902 1451.08 Q251.902 1456.66 248.43 1459.76 Q244.958 1462.84 238.639 1462.84 Q236.463 1462.84 234.194 1462.47 Q231.949 1462.1 229.541 1461.36 L229.541 1456.66 Q231.625 1457.79 233.847 1458.35 Q236.069 1458.9 238.546 1458.9 Q242.551 1458.9 244.889 1456.8 Q247.226 1454.69 247.226 1451.08 Q247.226 1447.47 244.889 1445.36 Q242.551 1443.26 238.546 1443.26 Q236.671 1443.26 234.796 1443.67 Q232.944 1444.09 231 1444.97 L231 1427.61 Z" fill="#000000" fill-rule="evenodd" fill-opacity="1" /><path clip-path="url(#clip160)" d="M114.797 1396.21 L144.472 1396.21 L144.472 1400.15 L114.797 1400.15 L114.797 1396.21 Z" fill="#000000" fill-rule="evenodd" fill-opacity="1" /><path clip-path="url(#clip160)" d="M164.565 1381.56 Q160.954 1381.56 159.125 1385.12 Q157.32 1388.66 157.32 1395.79 Q157.32 1402.9 159.125 1406.46 Q160.954 1410.01 164.565 1410.01 Q168.199 1410.01 170.005 1406.46 Q171.833 1402.9 171.833 1395.79 Q171.833 1388.66 170.005 1385.12 Q168.199 1381.56 164.565 1381.56 M164.565 1377.85 Q170.375 1377.85 173.431 1382.46 Q176.509 1387.04 176.509 1395.79 Q176.509 1404.52 173.431 1409.13 Q170.375 1413.71 164.565 1413.71 Q158.755 1413.71 155.676 1409.13 Q152.62 1404.52 152.62 1395.79 Q152.62 1387.04 155.676 1382.46 Q158.755 1377.85 164.565 1377.85 Z" fill="#000000" fill-rule="evenodd" fill-opacity="1" /><path clip-path="url(#clip160)" d="M184.727 1407.16 L189.611 1407.16 L189.611 1413.04 L184.727 1413.04 L184.727 1407.16 Z" fill="#000000" fill-rule="evenodd" fill-opacity="1" /><path clip-path="url(#clip160)" d="M199.842 1378.48 L218.199 1378.48 L218.199 1382.41 L204.125 1382.41 L204.125 1390.89 Q205.143 1390.54 206.162 1390.38 Q207.18 1390.19 208.199 1390.19 Q213.986 1390.19 217.366 1393.36 Q220.745 1396.53 220.745 1401.95 Q220.745 1407.53 217.273 1410.63 Q213.801 1413.71 207.481 1413.71 Q205.305 1413.71 203.037 1413.34 Q200.792 1412.97 198.384 1412.23 L198.384 1407.53 Q200.467 1408.66 202.69 1409.22 Q204.912 1409.77 207.389 1409.77 Q211.393 1409.77 213.731 1407.67 Q216.069 1405.56 216.069 1401.95 Q216.069 1398.34 213.731 1396.23 Q211.393 1394.13 207.389 1394.13 Q205.514 1394.13 203.639 1394.54 Q201.787 1394.96 199.842 1395.84 L199.842 1378.48 Z" fill="#000000" fill-rule="evenodd" fill-opacity="1" /><path clip-path="url(#clip160)" d="M239.958 1381.56 Q236.347 1381.56 234.518 1385.12 Q232.713 1388.66 232.713 1395.79 Q232.713 1402.9 234.518 1406.46 Q236.347 1410.01 239.958 1410.01 Q243.592 1410.01 245.398 1406.46 Q247.226 1402.9 247.226 1395.79 Q247.226 1388.66 245.398 1385.12 Q243.592 1381.56 239.958 1381.56 M239.958 1377.85 Q245.768 1377.85 248.824 1382.46 Q251.902 1387.04 251.902 1395.79 Q251.902 1404.52 248.824 1409.13 Q245.768 1413.71 239.958 1413.71 Q234.148 1413.71 231.069 1409.13 Q228.014 1404.52 228.014 1395.79 Q228.014 1387.04 231.069 1382.46 Q234.148 1377.85 239.958 1377.85 Z" fill="#000000" fill-rule="evenodd" fill-opacity="1" /><path clip-path="url(#clip160)" d="M115.792 1347.08 L145.468 1347.08 L145.468 1351.01 L115.792 1351.01 L115.792 1347.08 Z" fill="#000000" fill-rule="evenodd" fill-opacity="1" /><path clip-path="url(#clip160)" d="M165.56 1332.43 Q161.949 1332.43 160.12 1335.99 Q158.315 1339.53 158.315 1346.66 Q158.315 1353.77 160.12 1357.33 Q161.949 1360.88 165.56 1360.88 Q169.194 1360.88 171 1357.33 Q172.829 1353.77 172.829 1346.66 Q172.829 1339.53 171 1335.99 Q169.194 1332.43 165.56 1332.43 M165.56 1328.72 Q171.37 1328.72 174.426 1333.33 Q177.505 1337.91 177.505 1346.66 Q177.505 1355.39 174.426 1360 Q171.37 1364.58 165.56 1364.58 Q159.75 1364.58 156.671 1360 Q153.616 1355.39 153.616 1346.66 Q153.616 1337.91 156.671 1333.33 Q159.75 1328.72 165.56 1328.72 Z" fill="#000000" fill-rule="evenodd" fill-opacity="1" /><path clip-path="url(#clip160)" d="M185.722 1358.03 L190.606 1358.03 L190.606 1363.91 L185.722 1363.91 L185.722 1358.03 Z" fill="#000000" fill-rule="evenodd" fill-opacity="1" /><path clip-path="url(#clip160)" d="M204.819 1359.97 L221.139 1359.97 L221.139 1363.91 L199.194 1363.91 L199.194 1359.97 Q201.856 1357.22 206.44 1352.59 Q211.046 1347.94 212.227 1346.59 Q214.472 1344.07 215.352 1342.33 Q216.254 1340.57 216.254 1338.89 Q216.254 1336.13 214.31 1334.39 Q212.389 1332.66 209.287 1332.66 Q207.088 1332.66 204.634 1333.42 Q202.204 1334.19 199.426 1335.74 L199.426 1331.01 Q202.25 1329.88 204.704 1329.3 Q207.157 1328.72 209.194 1328.72 Q214.565 1328.72 217.759 1331.41 Q220.953 1334.09 220.953 1338.58 Q220.953 1340.71 220.143 1342.64 Q219.356 1344.53 217.25 1347.13 Q216.671 1347.8 213.569 1351.01 Q210.467 1354.21 204.819 1359.97 Z" fill="#000000" fill-rule="evenodd" fill-opacity="1" /><path clip-path="url(#clip160)" d="M231 1329.35 L249.356 1329.35 L249.356 1333.28 L235.282 1333.28 L235.282 1341.76 Q236.301 1341.41 237.319 1341.25 Q238.338 1341.06 239.356 1341.06 Q245.143 1341.06 248.523 1344.23 Q251.902 1347.4 251.902 1352.82 Q251.902 1358.4 248.43 1361.5 Q244.958 1364.58 238.639 1364.58 Q236.463 1364.58 234.194 1364.21 Q231.949 1363.84 229.541 1363.1 L229.541 1358.4 Q231.625 1359.53 233.847 1360.09 Q236.069 1360.64 238.546 1360.64 Q242.551 1360.64 244.889 1358.54 Q247.226 1356.43 247.226 1352.82 Q247.226 1349.21 244.889 1347.1 Q242.551 1345 238.546 1345 Q236.671 1345 234.796 1345.41 Q232.944 1345.83 231 1346.71 L231 1329.35 Z" fill="#000000" fill-rule="evenodd" fill-opacity="1" /><path clip-path="url(#clip160)" d="M164.565 1283.3 Q160.954 1283.3 159.125 1286.86 Q157.32 1290.4 157.32 1297.53 Q157.32 1304.64 159.125 1308.2 Q160.954 1311.75 164.565 1311.75 Q168.199 1311.75 170.005 1308.2 Q171.833 1304.64 171.833 1297.53 Q171.833 1290.4 170.005 1286.86 Q168.199 1283.3 164.565 1283.3 M164.565 1279.59 Q170.375 1279.59 173.431 1284.2 Q176.509 1288.78 176.509 1297.53 Q176.509 1306.26 173.431 1310.87 Q170.375 1315.45 164.565 1315.45 Q158.755 1315.45 155.676 1310.87 Q152.62 1306.26 152.62 1297.53 Q152.62 1288.78 155.676 1284.2 Q158.755 1279.59 164.565 1279.59 Z" fill="#000000" fill-rule="evenodd" fill-opacity="1" /><path clip-path="url(#clip160)" d="M184.727 1308.9 L189.611 1308.9 L189.611 1314.78 L184.727 1314.78 L184.727 1308.9 Z" fill="#000000" fill-rule="evenodd" fill-opacity="1" /><path clip-path="url(#clip160)" d="M209.796 1283.3 Q206.185 1283.3 204.356 1286.86 Q202.551 1290.4 202.551 1297.53 Q202.551 1304.64 204.356 1308.2 Q206.185 1311.75 209.796 1311.75 Q213.43 1311.75 215.236 1308.2 Q217.065 1304.64 217.065 1297.53 Q217.065 1290.4 215.236 1286.86 Q213.43 1283.3 209.796 1283.3 M209.796 1279.59 Q215.606 1279.59 218.662 1284.2 Q221.74 1288.78 221.74 1297.53 Q221.74 1306.26 218.662 1310.87 Q215.606 1315.45 209.796 1315.45 Q203.986 1315.45 200.907 1310.87 Q197.852 1306.26 197.852 1297.53 Q197.852 1288.78 200.907 1284.2 Q203.986 1279.59 209.796 1279.59 Z" fill="#000000" fill-rule="evenodd" fill-opacity="1" /><path clip-path="url(#clip160)" d="M239.958 1283.3 Q236.347 1283.3 234.518 1286.86 Q232.713 1290.4 232.713 1297.53 Q232.713 1304.64 234.518 1308.2 Q236.347 1311.75 239.958 1311.75 Q243.592 1311.75 245.398 1308.2 Q247.226 1304.64 247.226 1297.53 Q247.226 1290.4 245.398 1286.86 Q243.592 1283.3 239.958 1283.3 M239.958 1279.59 Q245.768 1279.59 248.824 1284.2 Q251.902 1288.78 251.902 1297.53 Q251.902 1306.26 248.824 1310.87 Q245.768 1315.45 239.958 1315.45 Q234.148 1315.45 231.069 1310.87 Q228.014 1306.26 228.014 1297.53 Q228.014 1288.78 231.069 1284.2 Q234.148 1279.59 239.958 1279.59 Z" fill="#000000" fill-rule="evenodd" fill-opacity="1" /><path clip-path="url(#clip160)" d="M165.56 1234.17 Q161.949 1234.17 160.12 1237.73 Q158.315 1241.27 158.315 1248.4 Q158.315 1255.51 160.12 1259.07 Q161.949 1262.62 165.56 1262.62 Q169.194 1262.62 171 1259.07 Q172.829 1255.51 172.829 1248.4 Q172.829 1241.27 171 1237.73 Q169.194 1234.17 165.56 1234.17 M165.56 1230.46 Q171.37 1230.46 174.426 1235.07 Q177.505 1239.65 177.505 1248.4 Q177.505 1257.13 174.426 1261.74 Q171.37 1266.32 165.56 1266.32 Q159.75 1266.32 156.671 1261.74 Q153.616 1257.13 153.616 1248.4 Q153.616 1239.65 156.671 1235.07 Q159.75 1230.46 165.56 1230.46 Z" fill="#000000" fill-rule="evenodd" fill-opacity="1" /><path clip-path="url(#clip160)" d="M185.722 1259.77 L190.606 1259.77 L190.606 1265.65 L185.722 1265.65 L185.722 1259.77 Z" fill="#000000" fill-rule="evenodd" fill-opacity="1" /><path clip-path="url(#clip160)" d="M204.819 1261.71 L221.139 1261.71 L221.139 1265.65 L199.194 1265.65 L199.194 1261.71 Q201.856 1258.96 206.44 1254.33 Q211.046 1249.68 212.227 1248.33 Q214.472 1245.81 215.352 1244.07 Q216.254 1242.31 216.254 1240.62 Q216.254 1237.87 214.31 1236.13 Q212.389 1234.4 209.287 1234.4 Q207.088 1234.4 204.634 1235.16 Q202.204 1235.93 199.426 1237.48 L199.426 1232.75 Q202.25 1231.62 204.704 1231.04 Q207.157 1230.46 209.194 1230.46 Q214.565 1230.46 217.759 1233.15 Q220.953 1235.83 220.953 1240.32 Q220.953 1242.45 220.143 1244.37 Q219.356 1246.27 217.25 1248.87 Q216.671 1249.54 213.569 1252.75 Q210.467 1255.95 204.819 1261.71 Z" fill="#000000" fill-rule="evenodd" fill-opacity="1" /><path clip-path="url(#clip160)" d="M231 1231.09 L249.356 1231.09 L249.356 1235.02 L235.282 1235.02 L235.282 1243.49 Q236.301 1243.15 237.319 1242.99 Q238.338 1242.8 239.356 1242.8 Q245.143 1242.8 248.523 1245.97 Q251.902 1249.14 251.902 1254.56 Q251.902 1260.14 248.43 1263.24 Q244.958 1266.32 238.639 1266.32 Q236.463 1266.32 234.194 1265.95 Q231.949 1265.58 229.541 1264.84 L229.541 1260.14 Q231.625 1261.27 233.847 1261.83 Q236.069 1262.38 238.546 1262.38 Q242.551 1262.38 244.889 1260.28 Q247.226 1258.17 247.226 1254.56 Q247.226 1250.95 244.889 1248.84 Q242.551 1246.74 238.546 1246.74 Q236.671 1246.74 234.796 1247.15 Q232.944 1247.57 231 1248.45 L231 1231.09 Z" fill="#000000" fill-rule="evenodd" fill-opacity="1" /><path clip-path="url(#clip160)" d="M164.565 1185.04 Q160.954 1185.04 159.125 1188.6 Q157.32 1192.14 157.32 1199.27 Q157.32 1206.38 159.125 1209.94 Q160.954 1213.48 164.565 1213.48 Q168.199 1213.48 170.005 1209.94 Q171.833 1206.38 171.833 1199.27 Q171.833 1192.14 170.005 1188.6 Q168.199 1185.04 164.565 1185.04 M164.565 1181.33 Q170.375 1181.33 173.431 1185.94 Q176.509 1190.52 176.509 1199.27 Q176.509 1208 173.431 1212.61 Q170.375 1217.19 164.565 1217.19 Q158.755 1217.19 155.676 1212.61 Q152.62 1208 152.62 1199.27 Q152.62 1190.52 155.676 1185.94 Q158.755 1181.33 164.565 1181.33 Z" fill="#000000" fill-rule="evenodd" fill-opacity="1" /><path clip-path="url(#clip160)" d="M184.727 1210.64 L189.611 1210.64 L189.611 1216.52 L184.727 1216.52 L184.727 1210.64 Z" fill="#000000" fill-rule="evenodd" fill-opacity="1" /><path clip-path="url(#clip160)" d="M199.842 1181.96 L218.199 1181.96 L218.199 1185.89 L204.125 1185.89 L204.125 1194.36 Q205.143 1194.02 206.162 1193.86 Q207.18 1193.67 208.199 1193.67 Q213.986 1193.67 217.366 1196.84 Q220.745 1200.01 220.745 1205.43 Q220.745 1211.01 217.273 1214.11 Q213.801 1217.19 207.481 1217.19 Q205.305 1217.19 203.037 1216.82 Q200.792 1216.45 198.384 1215.71 L198.384 1211.01 Q200.467 1212.14 202.69 1212.7 Q204.912 1213.25 207.389 1213.25 Q211.393 1213.25 213.731 1211.15 Q216.069 1209.04 216.069 1205.43 Q216.069 1201.82 213.731 1199.71 Q211.393 1197.61 207.389 1197.61 Q205.514 1197.61 203.639 1198.02 Q201.787 1198.44 199.842 1199.32 L199.842 1181.96 Z" fill="#000000" fill-rule="evenodd" fill-opacity="1" /><path clip-path="url(#clip160)" d="M239.958 1185.04 Q236.347 1185.04 234.518 1188.6 Q232.713 1192.14 232.713 1199.27 Q232.713 1206.38 234.518 1209.94 Q236.347 1213.48 239.958 1213.48 Q243.592 1213.48 245.398 1209.94 Q247.226 1206.38 247.226 1199.27 Q247.226 1192.14 245.398 1188.6 Q243.592 1185.04 239.958 1185.04 M239.958 1181.33 Q245.768 1181.33 248.824 1185.94 Q251.902 1190.52 251.902 1199.27 Q251.902 1208 248.824 1212.61 Q245.768 1217.19 239.958 1217.19 Q234.148 1217.19 231.069 1212.61 Q228.014 1208 228.014 1199.27 Q228.014 1190.52 231.069 1185.94 Q234.148 1181.33 239.958 1181.33 Z" fill="#000000" fill-rule="evenodd" fill-opacity="1" /><path clip-path="url(#clip160)" d="M165.56 1135.91 Q161.949 1135.91 160.12 1139.47 Q158.315 1143.01 158.315 1150.14 Q158.315 1157.25 160.12 1160.81 Q161.949 1164.35 165.56 1164.35 Q169.194 1164.35 171 1160.81 Q172.829 1157.25 172.829 1150.14 Q172.829 1143.01 171 1139.47 Q169.194 1135.91 165.56 1135.91 M165.56 1132.2 Q171.37 1132.2 174.426 1136.81 Q177.505 1141.39 177.505 1150.14 Q177.505 1158.87 174.426 1163.47 Q171.37 1168.06 165.56 1168.06 Q159.75 1168.06 156.671 1163.47 Q153.616 1158.87 153.616 1150.14 Q153.616 1141.39 156.671 1136.81 Q159.75 1132.2 165.56 1132.2 Z" fill="#000000" fill-rule="evenodd" fill-opacity="1" /><path clip-path="url(#clip160)" d="M185.722 1161.51 L190.606 1161.51 L190.606 1167.39 L185.722 1167.39 L185.722 1161.51 Z" fill="#000000" fill-rule="evenodd" fill-opacity="1" /><path clip-path="url(#clip160)" d="M199.611 1132.83 L221.833 1132.83 L221.833 1134.82 L209.287 1167.39 L204.403 1167.39 L216.208 1136.76 L199.611 1136.76 L199.611 1132.83 Z" fill="#000000" fill-rule="evenodd" fill-opacity="1" /><path clip-path="url(#clip160)" d="M231 1132.83 L249.356 1132.83 L249.356 1136.76 L235.282 1136.76 L235.282 1145.23 Q236.301 1144.89 237.319 1144.72 Q238.338 1144.54 239.356 1144.54 Q245.143 1144.54 248.523 1147.71 Q251.902 1150.88 251.902 1156.3 Q251.902 1161.88 248.43 1164.98 Q244.958 1168.06 238.639 1168.06 Q236.463 1168.06 234.194 1167.69 Q231.949 1167.32 229.541 1166.58 L229.541 1161.88 Q231.625 1163.01 233.847 1163.57 Q236.069 1164.12 238.546 1164.12 Q242.551 1164.12 244.889 1162.02 Q247.226 1159.91 247.226 1156.3 Q247.226 1152.69 244.889 1150.58 Q242.551 1148.47 238.546 1148.47 Q236.671 1148.47 234.796 1148.89 Q232.944 1149.31 231 1150.19 L231 1132.83 Z" fill="#000000" fill-rule="evenodd" fill-opacity="1" /><path clip-path="url(#clip160)" d="M21.7499 1358.86 L22.6742 1359.43 Q21.1637 1362.92 18.7515 1367.27 Q21.1637 1371.62 22.6742 1375.12 L21.7499 1375.66 Q18.4359 1371.85 15.8884 1367.27 Q18.4584 1362.65 21.7499 1358.86 Z" fill="#000000" fill-rule="evenodd" fill-opacity="1" /><path clip-path="url(#clip160)" d="M49.4102 1354.64 Q53.5648 1355.48 55.948 1356.6 Q59.5873 1358.44 59.5873 1361.5 Q59.5873 1363.62 58.3957 1365.23 Q57.1718 1366.81 55.1429 1367.36 Q55.948 1367.97 56.4955 1368.52 Q57.043 1369.04 57.8804 1370.03 Q58.6855 1371.03 59.1364 1372.38 Q59.5873 1373.7 59.5873 1375.22 Q59.5873 1376.38 59.3618 1377.44 Q59.1686 1378.5 58.6211 1379.63 Q58.0414 1380.73 57.1718 1381.53 Q56.3023 1382.3 54.8852 1382.82 Q53.4682 1383.33 51.6646 1383.33 Q49.4102 1383.33 46.3507 1382.46 Q43.2911 1381.56 37.8161 1379.5 Q34.9176 1378.37 33.3073 1378.37 Q32.5666 1378.37 32.0835 1378.54 Q31.6004 1378.7 31.4394 1379.02 Q31.2461 1379.31 31.2139 1379.5 Q31.1495 1379.7 31.1495 1380.02 Q31.1495 1382.01 33.1785 1383.75 Q35.2075 1385.49 39.3298 1386.68 Q40.1349 1386.94 40.3282 1387.1 Q40.5214 1387.26 40.5214 1387.75 Q40.4892 1388.55 39.8451 1388.55 Q39.5874 1388.55 38.5891 1388.26 Q37.5585 1387.97 36.0448 1387.3 Q34.4989 1386.59 33.1141 1385.62 Q31.697 1384.65 30.6986 1383.14 Q29.7002 1381.6 29.7002 1379.82 Q29.7002 1377.41 31.2783 1375.93 Q32.8242 1374.41 35.1108 1374.41 Q36.5279 1374.41 39.2654 1375.54 Q48.7661 1379.12 52.7274 1379.12 Q58.1058 1379.12 58.1058 1375.03 Q58.1058 1373.67 57.5583 1372.42 Q57.0108 1371.13 56.2379 1370.29 Q55.4649 1369.45 54.6276 1368.81 Q53.7902 1368.13 53.2427 1367.84 Q52.6952 1367.52 52.5664 1367.49 L32.7276 1362.56 Q31.9547 1362.37 31.4394 1362.01 Q30.8919 1361.63 30.6986 1361.18 Q30.5054 1360.73 30.4732 1360.47 Q30.4088 1360.21 30.4088 1359.99 Q30.4088 1359.18 30.8919 1358.63 Q31.375 1358.05 32.2123 1358.05 Q32.3733 1358.05 33.1463 1358.25 Q33.887 1358.41 34.982 1358.66 Q36.0448 1358.92 36.6245 1359.05 Q40.6824 1360.08 41.1011 1360.18 L48.2186 1362.01 Q48.6373 1362.11 49.9899 1362.43 Q51.3426 1362.72 52.0511 1362.88 Q52.7274 1363.04 53.6614 1363.21 Q54.5632 1363.33 55.0785 1363.33 Q56.6888 1363.33 57.3973 1362.85 Q58.1058 1362.37 58.1058 1361.31 Q58.1058 1360.31 57.4295 1359.53 Q56.721 1358.73 55.3683 1358.12 Q53.9835 1357.51 52.8563 1357.15 Q51.7291 1356.8 49.9577 1356.35 Q49.1848 1356.18 48.9916 1356.06 Q48.7661 1355.9 48.7661 1355.44 Q48.7661 1354.64 49.4102 1354.64 Z" fill="#000000" fill-rule="evenodd" fill-opacity="1" /><path clip-path="url(#clip160)" d="M59.5392 1333.75 Q60.1705 1333.75 60.3283 1334.05 Q60.4636 1334.34 60.4636 1335.15 L60.4636 1339.48 L74.0802 1342.91 Q75.275 1343.18 76.2895 1343.18 Q77.4167 1343.18 77.9127 1342.84 Q78.4087 1342.48 78.4087 1341.73 Q78.4087 1340.27 77.0786 1338.69 Q75.7485 1337.09 72.5021 1335.74 Q72.0738 1335.56 71.9836 1335.47 Q71.8709 1335.35 71.8709 1335.06 Q71.8709 1334.5 72.3218 1334.5 Q72.4796 1334.5 73.201 1334.81 Q73.9224 1335.11 74.982 1335.76 Q76.0415 1336.39 77.0335 1337.23 Q78.0254 1338.04 78.7468 1339.28 Q79.4457 1340.52 79.4457 1341.85 Q79.4457 1343.72 78.2509 1344.91 Q77.056 1346.09 75.1849 1346.09 Q74.5762 1346.09 72.6374 1345.61 Q70.676 1345.14 60.4636 1342.57 L60.4636 1346.65 Q60.4636 1347.21 60.441 1347.44 Q60.4185 1347.64 60.3057 1347.8 Q60.1705 1347.93 59.9 1347.93 Q59.4716 1347.93 59.2913 1347.75 Q59.0884 1347.57 59.0658 1347.35 Q59.0207 1347.1 59.0207 1346.54 L59.0207 1342.21 L51.6939 1340.4 Q50.9725 1340.22 50.5667 1339.77 Q50.1384 1339.3 50.0933 1339.03 Q50.0256 1338.76 50.0256 1338.56 Q50.0256 1337.95 50.3638 1337.59 Q50.6794 1337.23 51.2656 1337.23 Q51.5812 1337.23 59.0207 1339.12 L59.0207 1335.06 Q59.0207 1334.54 59.0433 1334.34 Q59.0658 1334.11 59.1785 1333.93 Q59.2913 1333.75 59.5392 1333.75 Z" fill="#000000" fill-rule="evenodd" fill-opacity="1" /><path clip-path="url(#clip160)" d="M61.7486 1311.72 Q62.3347 1311.72 63.4845 1311.88 Q64.6342 1312.04 66.3025 1312.42 Q67.9707 1312.8 69.7292 1313.37 Q71.4876 1313.91 73.2461 1314.76 Q74.982 1315.62 76.3572 1316.63 Q77.7323 1317.65 78.589 1319.07 Q79.4457 1320.49 79.4457 1322.09 Q79.4457 1322.83 79.333 1323.56 Q79.2203 1324.28 78.8595 1325.18 Q78.4988 1326.08 77.9127 1326.73 Q77.304 1327.39 76.2219 1327.84 Q75.1398 1328.29 73.7195 1328.29 Q72.2541 1328.29 70.2928 1327.75 Q68.3089 1327.19 64.251 1325.65 Q62.1544 1324.86 61.0046 1324.86 Q60.4861 1324.86 60.1705 1324.98 Q59.8323 1325.09 59.7196 1325.31 Q59.5843 1325.54 59.5618 1325.67 Q59.5392 1325.79 59.5392 1326.01 Q59.5392 1327.25 60.8243 1328.52 Q62.1093 1329.78 65.2655 1330.68 Q65.8291 1330.86 65.9643 1330.97 Q66.0996 1331.09 66.0996 1331.42 Q66.077 1331.99 65.6262 1331.99 Q65.4909 1331.99 64.9724 1331.83 Q64.4313 1331.67 63.6197 1331.38 Q62.7856 1331.09 61.9289 1330.57 Q61.0497 1330.05 60.2832 1329.42 Q59.5167 1328.76 59.0207 1327.84 Q58.5248 1326.91 58.5248 1325.88 Q58.5248 1324.19 59.6294 1323.15 Q60.7115 1322.09 62.3122 1322.09 Q63.1914 1322.09 64.6117 1322.65 Q67.1817 1323.6 68.4216 1324.03 Q69.6616 1324.46 71.42 1324.91 Q73.1784 1325.34 74.3958 1325.34 Q76.2444 1325.34 77.3265 1324.48 Q78.4087 1323.62 78.4087 1321.91 Q78.4087 1320.38 77.304 1319 Q76.1768 1317.6 74.5762 1316.68 Q72.953 1315.76 71.1495 1315.06 Q69.3234 1314.36 67.9482 1314.04 Q66.5505 1313.7 65.8967 1313.7 Q63.6197 1313.7 62.1318 1315.26 Q61.7035 1315.69 61.433 1315.85 Q61.1624 1316 60.7341 1316 Q59.945 1316 59.2462 1315.3 Q58.5248 1314.58 58.5248 1313.75 Q58.5248 1312.98 59.2913 1312.35 Q60.0578 1311.72 61.7486 1311.72 Z" fill="#000000" fill-rule="evenodd" fill-opacity="1" /><path clip-path="url(#clip160)" d="M47.388 1285.06 L74.0802 1291.71 Q75.275 1291.98 76.2895 1291.98 Q78.4087 1291.98 78.4087 1290.61 Q78.4087 1289.93 77.9803 1289.39 Q77.552 1288.85 76.6502 1288.42 Q75.7485 1287.99 74.9143 1287.72 Q74.0577 1287.45 72.705 1287.09 Q72.1639 1286.98 72.0287 1286.89 Q71.8709 1286.78 71.8709 1286.46 Q71.8709 1285.9 72.3218 1285.9 Q75.2299 1286.5 76.8982 1287.29 Q79.4457 1288.56 79.4457 1290.7 Q79.4457 1292.32 78.4538 1293.47 Q77.4618 1294.62 75.9739 1294.89 Q79.4457 1297.84 79.4457 1300.91 Q79.4457 1303.62 77.3942 1305.33 Q75.3201 1307.04 72.0512 1307.04 Q68.7598 1307.04 65.6036 1305.42 Q62.4474 1303.77 60.4861 1301.18 Q58.5248 1298.59 58.5248 1295.93 Q58.5248 1293.11 61.478 1291.67 L50.5216 1288.89 L49.6198 1288.76 Q49.3493 1288.76 49.2141 1288.87 Q49.0562 1288.96 48.9435 1289.5 Q48.8308 1290.02 48.8308 1291.06 Q48.8308 1291.49 48.8083 1291.69 Q48.7857 1291.87 48.673 1292.03 Q48.5377 1292.19 48.2672 1292.19 Q47.4782 1292.19 47.388 1291.53 Q46.892 1287.2 46.892 1285.67 Q46.892 1285.4 47.0273 1285.24 Q47.14 1285.08 47.2753 1285.08 L47.388 1285.06 M63.5972 1292.23 Q63.3943 1292.23 62.8307 1292.39 Q62.2671 1292.55 61.478 1292.91 Q60.689 1293.27 60.1254 1294.06 Q59.5392 1294.82 59.5392 1295.86 Q59.5392 1297.26 60.7341 1298.72 Q61.9289 1300.17 63.9579 1301.23 Q65.5811 1302.04 68.9852 1302.92 Q72.3894 1303.77 74.0802 1303.77 Q75.1172 1303.77 76.0415 1303.55 Q76.9433 1303.3 77.6873 1302.6 Q78.4087 1301.9 78.4087 1300.82 Q78.4087 1298.18 75.1398 1295.59 Q74.5762 1295.09 74.3507 1294.98 Q74.1027 1294.85 73.4264 1294.67 L64.3862 1292.37 Q63.7099 1292.23 63.5972 1292.23 Z" fill="#000000" fill-rule="evenodd" fill-opacity="1" /><path clip-path="url(#clip160)" d="M50.0707 1272.42 Q51.0627 1272.42 51.8066 1273.23 Q52.528 1274.02 52.528 1274.88 Q52.528 1275.66 52.0546 1276.16 Q51.5586 1276.63 50.8598 1276.63 Q49.9355 1276.63 49.169 1275.84 Q48.4025 1275.06 48.4025 1274.13 Q48.4025 1273.36 48.8759 1272.89 Q49.3493 1272.42 50.0707 1272.42 M72.3218 1272.01 Q72.5021 1272.01 73.2235 1272.21 Q73.9224 1272.42 75.0045 1272.91 Q76.0641 1273.39 77.056 1274.04 Q78.048 1274.69 78.7468 1275.78 Q79.4457 1276.84 79.4457 1278.05 Q79.4457 1279.7 78.3636 1280.78 Q77.2815 1281.84 75.6583 1281.84 Q74.7791 1281.84 71.9611 1280.78 Q63.755 1277.72 63.4168 1277.6 Q62.1318 1277.08 61.0046 1277.08 Q60.4861 1277.08 60.1705 1277.2 Q59.8323 1277.31 59.7196 1277.54 Q59.5843 1277.76 59.5618 1277.9 Q59.5392 1278.01 59.5392 1278.23 Q59.5392 1279.56 60.8919 1280.8 Q62.2445 1282.04 65.2655 1282.9 Q65.8291 1283.08 65.9643 1283.19 Q66.0996 1283.31 66.0996 1283.64 Q66.077 1284.21 65.6262 1284.21 Q65.4909 1284.21 64.9724 1284.05 Q64.4313 1283.89 63.6197 1283.6 Q62.7856 1283.31 61.9289 1282.79 Q61.0497 1282.27 60.2832 1281.64 Q59.5167 1280.98 59.0207 1280.06 Q58.5248 1279.14 58.5248 1278.1 Q58.5248 1276.41 59.6294 1275.37 Q60.7115 1274.31 62.3122 1274.31 Q63.1914 1274.31 64.7469 1274.92 Q66.7759 1275.66 67.4297 1275.93 L72.2767 1277.74 Q74.0351 1278.39 74.5762 1278.59 Q75.0947 1278.78 75.7259 1278.93 Q76.3346 1279.07 76.8982 1279.07 Q77.6873 1279.07 78.048 1278.82 Q78.4087 1278.55 78.4087 1277.96 Q78.4087 1276.34 76.808 1275.15 Q75.1849 1273.95 72.705 1273.25 Q72.6374 1273.23 72.5247 1273.21 Q71.9611 1273.03 71.8934 1272.85 Q71.8709 1272.76 71.8709 1272.58 Q71.8709 1272.01 72.3218 1272.01 Z" fill="#000000" fill-rule="evenodd" fill-opacity="1" /><path clip-path="url(#clip160)" d="M49.5522 1244.13 Q50.7921 1244.13 51.5586 1244.92 Q52.3251 1245.69 52.3251 1246.66 Q52.3251 1247.36 51.8968 1247.88 Q51.4685 1248.37 50.7245 1248.37 Q49.958 1248.37 49.1464 1247.79 Q48.3348 1247.2 48.2221 1245.87 Q47.388 1246.75 47.388 1248.15 Q47.388 1248.84 47.8389 1249.43 Q48.2672 1249.99 48.9661 1250.31 Q49.6875 1250.65 53.768 1251.41 Q55.0981 1251.66 56.3831 1251.89 Q57.6681 1252.11 59.0207 1252.38 L59.0207 1248.55 Q59.0207 1248.06 59.0433 1247.85 Q59.0658 1247.65 59.1785 1247.49 Q59.2913 1247.31 59.5392 1247.31 Q60.1705 1247.31 60.3283 1247.6 Q60.4636 1247.88 60.4636 1248.69 L60.4636 1252.65 L75.0947 1255.43 Q75.523 1255.5 76.8757 1255.79 Q78.2058 1256.06 80.3925 1256.71 Q82.6019 1257.37 83.9094 1258.02 Q84.6534 1258.38 85.3522 1258.85 Q86.0737 1259.31 86.7951 1259.96 Q87.5165 1260.61 87.9448 1261.47 Q88.3957 1262.33 88.3957 1263.23 Q88.3957 1264.76 87.539 1265.96 Q86.6823 1267.15 85.217 1267.15 Q83.9771 1267.15 83.2106 1266.38 Q82.4441 1265.6 82.4441 1264.63 Q82.4441 1263.93 82.8724 1263.43 Q83.3007 1262.91 84.0447 1262.91 Q84.3603 1262.91 84.721 1263.02 Q85.0817 1263.14 85.4875 1263.39 Q85.9159 1263.63 86.2089 1264.17 Q86.502 1264.72 86.5471 1265.46 Q87.3812 1264.58 87.3812 1263.23 Q87.3812 1262.8 87.2009 1262.42 Q87.0431 1262.03 86.6373 1261.72 Q86.2315 1261.38 85.8257 1261.13 Q85.4424 1260.88 84.6985 1260.64 Q83.9771 1260.39 83.436 1260.23 Q82.8949 1260.07 81.9255 1259.87 Q80.9561 1259.64 80.37 1259.53 Q79.8064 1259.42 78.7017 1259.22 L60.4636 1255.77 L60.4636 1258.81 Q60.4636 1259.35 60.441 1259.58 Q60.4185 1259.78 60.3057 1259.94 Q60.1705 1260.09 59.9 1260.09 Q59.4716 1260.09 59.2913 1259.91 Q59.0884 1259.71 59.0658 1259.49 Q59.0207 1259.26 59.0207 1258.72 L59.0207 1255.52 Q53.3171 1254.44 51.7841 1254.01 Q50.1609 1253.51 49.0337 1252.74 Q47.8839 1251.98 47.3429 1251.12 Q46.8018 1250.27 46.5989 1249.57 Q46.3735 1248.84 46.3735 1248.15 Q46.3735 1246.57 47.2302 1245.35 Q48.0643 1244.13 49.5522 1244.13 Z" fill="#000000" fill-rule="evenodd" fill-opacity="1" /><path clip-path="url(#clip160)" d="M49.5522 1218.23 Q50.7921 1218.23 51.5586 1219.01 Q52.3251 1219.78 52.3251 1220.75 Q52.3251 1221.45 51.8968 1221.97 Q51.4685 1222.46 50.7245 1222.46 Q49.958 1222.46 49.1464 1221.88 Q48.3348 1221.29 48.2221 1219.96 Q47.388 1220.84 47.388 1222.24 Q47.388 1222.94 47.8389 1223.52 Q48.2672 1224.09 48.9661 1224.4 Q49.6875 1224.74 53.768 1225.51 Q55.0981 1225.75 56.3831 1225.98 Q57.6681 1226.21 59.0207 1226.48 L59.0207 1222.64 Q59.0207 1222.15 59.0433 1221.94 Q59.0658 1221.74 59.1785 1221.58 Q59.2913 1221.4 59.5392 1221.4 Q60.1705 1221.4 60.3283 1221.7 Q60.4636 1221.97 60.4636 1222.78 L60.4636 1226.75 L75.0947 1229.52 Q75.523 1229.59 76.8757 1229.88 Q78.2058 1230.15 80.3925 1230.8 Q82.6019 1231.46 83.9094 1232.11 Q84.6534 1232.47 85.3522 1232.95 Q86.0737 1233.4 86.7951 1234.05 Q87.5165 1234.7 87.9448 1235.56 Q88.3957 1236.42 88.3957 1237.32 Q88.3957 1238.85 87.539 1240.05 Q86.6823 1241.24 85.217 1241.24 Q83.9771 1241.24 83.2106 1240.48 Q82.4441 1239.69 82.4441 1238.72 Q82.4441 1238.02 82.8724 1237.52 Q83.3007 1237 84.0447 1237 Q84.3603 1237 84.721 1237.12 Q85.0817 1237.23 85.4875 1237.48 Q85.9159 1237.73 86.2089 1238.27 Q86.502 1238.81 86.5471 1239.55 Q87.3812 1238.67 87.3812 1237.32 Q87.3812 1236.89 87.2009 1236.51 Q87.0431 1236.13 86.6373 1235.81 Q86.2315 1235.47 85.8257 1235.22 Q85.4424 1234.98 84.6985 1234.73 Q83.9771 1234.48 83.436 1234.32 Q82.8949 1234.16 81.9255 1233.96 Q80.9561 1233.74 80.37 1233.62 Q79.8064 1233.51 78.7017 1233.31 L60.4636 1229.86 L60.4636 1232.9 Q60.4636 1233.44 60.441 1233.67 Q60.4185 1233.87 60.3057 1234.03 Q60.1705 1234.19 59.9 1234.19 Q59.4716 1234.19 59.2913 1234.01 Q59.0884 1233.8 59.0658 1233.58 Q59.0207 1233.35 59.0207 1232.81 L59.0207 1229.61 Q53.3171 1228.53 51.7841 1228.1 Q50.1609 1227.6 49.0337 1226.84 Q47.8839 1226.07 47.3429 1225.21 Q46.8018 1224.36 46.5989 1223.66 Q46.3735 1222.94 46.3735 1222.24 Q46.3735 1220.66 47.2302 1219.44 Q48.0643 1218.23 49.5522 1218.23 Z" fill="#000000" fill-rule="evenodd" fill-opacity="1" /><polyline clip-path="url(#clip165)" style="stroke:#009af9; stroke-linecap:butt; stroke-linejoin:round; stroke-width:4; stroke-opacity:1; fill:none" points="
  346.342,1475.9 366.018,1475.9 385.695,1475.9 405.371,1475.9 425.048,1475.9 444.724,1475.9 464.401,1475.9 484.077,1475.9 503.754,1475.9 523.43,1475.9 
  543.107,1475.9 562.783,1475.9 582.46,1475.9 602.136,1475.9 621.813,1475.9 641.489,1475.9 661.166,1475.9 680.842,1475.9 700.519,1475.9 720.195,1475.9 
  739.872,1475.9 759.548,1475.9 779.225,1475.89 798.901,1475.89 818.578,1475.89 838.255,1475.89 857.931,1475.89 877.608,1475.89 897.284,1475.89 916.961,1475.88 
  936.637,1475.88 956.314,1475.88 975.99,1475.88 995.667,1475.88 1015.34,1475.87 1035.02,1475.87 1054.7,1475.87 1074.37,1475.87 1094.05,1475.86 1113.73,1475.86 
  1133.4,1475.86 1153.08,1475.85 1172.76,1475.85 1192.43,1475.84 1212.11,1475.84 1231.78,1475.83 1251.46,1475.82 1271.14,1475.81 1290.81,1475.79 1310.49,1474.93 
  1330.17,1124.59 1349.84,1124.56 1369.52,1124.54 1389.2,1124.53 1408.87,1124.52 1428.55,1124.51 1448.23,1124.51 1467.9,1124.5 1487.58,1124.5 1507.26,1124.49 
  1526.93,1124.49 1546.61,1124.49 1566.29,1124.48 1585.96,1124.48 1605.64,1124.48 1625.32,1124.48 1644.99,1124.48 1664.67,1124.47 1684.34,1124.47 1704.02,1124.47 
  1723.7,1124.47 1743.37,1124.47 1763.05,1124.47 1782.73,1124.46 1802.4,1124.46 1822.08,1124.46 1841.76,1124.46 1861.43,1124.46 1881.11,1124.46 1900.79,1124.46 
  1920.46,1124.46 1940.14,1124.46 1959.82,1124.46 1979.49,1124.46 1999.17,1124.46 2018.85,1124.46 2038.52,1124.46 2058.2,1124.46 2077.87,1124.46 2097.55,1124.46 
  2117.23,1124.45 2136.9,1124.45 2156.58,1124.45 2176.26,1124.45 2195.93,1124.45 2215.61,1124.45 2235.29,1124.45 2254.96,1124.45 2274.64,1124.45 2294.32,1124.45 
  
  "/>
</svg>
