<?xml version="1.0" encoding="utf-8"?>
<svg xmlns="http://www.w3.org/2000/svg" xmlns:xlink="http://www.w3.org/1999/xlink" width="600" height="400" viewBox="0 0 2400 1600">
<defs>
  <clipPath id="clip060">
    <rect x="0" y="0" width="2400" height="1600"/>
  </clipPath>
</defs>
<path clip-path="url(#clip060)" d="
M0 1600 L2400 1600 L2400 0 L0 0  Z
  " fill="#ffffff" fill-rule="evenodd" fill-opacity="1"/>
<defs>
  <clipPath id="clip061">
    <rect x="480" y="0" width="1681" height="1600"/>
  </clipPath>
</defs>
<defs>
  <clipPath id="clip062">
    <rect x="257" y="847" width="2097" height="640"/>
  </clipPath>
</defs>
<path clip-path="url(#clip060)" d="
M255.977 686.448 L2352.76 686.448 L2352.76 47.2441 L255.977 47.2441  Z
  " fill="#ffffff" fill-rule="evenodd" fill-opacity="1"/>
<defs>
  <clipPath id="clip063">
    <rect x="255" y="47" width="2098" height="640"/>
  </clipPath>
</defs>
<polyline clip-path="url(#clip063)" style="stroke:#000000; stroke-linecap:round; stroke-linejoin:round; stroke-width:2; stroke-opacity:0.1; fill:none" points="
  315.32,686.448 315.32,47.2441 
  "/>
<polyline clip-path="url(#clip063)" style="stroke:#000000; stroke-linecap:round; stroke-linejoin:round; stroke-width:2; stroke-opacity:0.1; fill:none" points="
  809.843,686.448 809.843,47.2441 
  "/>
<polyline clip-path="url(#clip063)" style="stroke:#000000; stroke-linecap:round; stroke-linejoin:round; stroke-width:2; stroke-opacity:0.1; fill:none" points="
  1304.37,686.448 1304.37,47.2441 
  "/>
<polyline clip-path="url(#clip063)" style="stroke:#000000; stroke-linecap:round; stroke-linejoin:round; stroke-width:2; stroke-opacity:0.1; fill:none" points="
  1798.89,686.448 1798.89,47.2441 
  "/>
<polyline clip-path="url(#clip063)" style="stroke:#000000; stroke-linecap:round; stroke-linejoin:round; stroke-width:2; stroke-opacity:0.1; fill:none" points="
  2293.41,686.448 2293.41,47.2441 
  "/>
<polyline clip-path="url(#clip060)" style="stroke:#000000; stroke-linecap:round; stroke-linejoin:round; stroke-width:4; stroke-opacity:1; fill:none" points="
  255.977,686.448 2352.76,686.448 
  "/>
<polyline clip-path="url(#clip060)" style="stroke:#000000; stroke-linecap:round; stroke-linejoin:round; stroke-width:4; stroke-opacity:1; fill:none" points="
  315.32,686.448 315.32,667.55 
  "/>
<polyline clip-path="url(#clip060)" style="stroke:#000000; stroke-linecap:round; stroke-linejoin:round; stroke-width:4; stroke-opacity:1; fill:none" points="
  809.843,686.448 809.843,667.55 
  "/>
<polyline clip-path="url(#clip060)" style="stroke:#000000; stroke-linecap:round; stroke-linejoin:round; stroke-width:4; stroke-opacity:1; fill:none" points="
  1304.37,686.448 1304.37,667.55 
  "/>
<polyline clip-path="url(#clip060)" style="stroke:#000000; stroke-linecap:round; stroke-linejoin:round; stroke-width:4; stroke-opacity:1; fill:none" points="
  1798.89,686.448 1798.89,667.55 
  "/>
<polyline clip-path="url(#clip060)" style="stroke:#000000; stroke-linecap:round; stroke-linejoin:round; stroke-width:4; stroke-opacity:1; fill:none" points="
  2293.41,686.448 2293.41,667.55 
  "/>
<path clip-path="url(#clip060)" d="M277.623 717.367 Q274.012 717.367 272.184 720.931 Q270.378 724.473 270.378 731.603 Q270.378 738.709 272.184 742.274 Q274.012 745.815 277.623 745.815 Q281.258 745.815 283.063 742.274 Q284.892 738.709 284.892 731.603 Q284.892 724.473 283.063 720.931 Q281.258 717.367 277.623 717.367 M277.623 713.663 Q283.434 713.663 286.489 718.269 Q289.568 722.853 289.568 731.603 Q289.568 740.329 286.489 744.936 Q283.434 749.519 277.623 749.519 Q271.813 749.519 268.735 744.936 Q265.679 740.329 265.679 731.603 Q265.679 722.853 268.735 718.269 Q271.813 713.663 277.623 713.663 Z" fill="#000000" fill-rule="evenodd" fill-opacity="1" /><path clip-path="url(#clip060)" d="M297.785 742.968 L302.67 742.968 L302.67 748.848 L297.785 748.848 L297.785 742.968 Z" fill="#000000" fill-rule="evenodd" fill-opacity="1" /><path clip-path="url(#clip060)" d="M322.855 717.367 Q319.244 717.367 317.415 720.931 Q315.609 724.473 315.609 731.603 Q315.609 738.709 317.415 742.274 Q319.244 745.815 322.855 745.815 Q326.489 745.815 328.294 742.274 Q330.123 738.709 330.123 731.603 Q330.123 724.473 328.294 720.931 Q326.489 717.367 322.855 717.367 M322.855 713.663 Q328.665 713.663 331.72 718.269 Q334.799 722.853 334.799 731.603 Q334.799 740.329 331.72 744.936 Q328.665 749.519 322.855 749.519 Q317.045 749.519 313.966 744.936 Q310.91 740.329 310.91 731.603 Q310.91 722.853 313.966 718.269 Q317.045 713.663 322.855 713.663 Z" fill="#000000" fill-rule="evenodd" fill-opacity="1" /><path clip-path="url(#clip060)" d="M353.017 717.367 Q349.405 717.367 347.577 720.931 Q345.771 724.473 345.771 731.603 Q345.771 738.709 347.577 742.274 Q349.405 745.815 353.017 745.815 Q356.651 745.815 358.456 742.274 Q360.285 738.709 360.285 731.603 Q360.285 724.473 358.456 720.931 Q356.651 717.367 353.017 717.367 M353.017 713.663 Q358.827 713.663 361.882 718.269 Q364.961 722.853 364.961 731.603 Q364.961 740.329 361.882 744.936 Q358.827 749.519 353.017 749.519 Q347.206 749.519 344.128 744.936 Q341.072 740.329 341.072 731.603 Q341.072 722.853 344.128 718.269 Q347.206 713.663 353.017 713.663 Z" fill="#000000" fill-rule="evenodd" fill-opacity="1" /><path clip-path="url(#clip060)" d="M772.644 717.367 Q769.033 717.367 767.205 720.931 Q765.399 724.473 765.399 731.603 Q765.399 738.709 767.205 742.274 Q769.033 745.815 772.644 745.815 Q776.279 745.815 778.084 742.274 Q779.913 738.709 779.913 731.603 Q779.913 724.473 778.084 720.931 Q776.279 717.367 772.644 717.367 M772.644 713.663 Q778.455 713.663 781.51 718.269 Q784.589 722.853 784.589 731.603 Q784.589 740.329 781.51 744.936 Q778.455 749.519 772.644 749.519 Q766.834 749.519 763.756 744.936 Q760.7 740.329 760.7 731.603 Q760.7 722.853 763.756 718.269 Q766.834 713.663 772.644 713.663 Z" fill="#000000" fill-rule="evenodd" fill-opacity="1" /><path clip-path="url(#clip060)" d="M792.806 742.968 L797.691 742.968 L797.691 748.848 L792.806 748.848 L792.806 742.968 Z" fill="#000000" fill-rule="evenodd" fill-opacity="1" /><path clip-path="url(#clip060)" d="M811.903 744.913 L828.223 744.913 L828.223 748.848 L806.278 748.848 L806.278 744.913 Q808.94 742.158 813.524 737.528 Q818.13 732.876 819.311 731.533 Q821.556 729.01 822.436 727.274 Q823.339 725.515 823.339 723.825 Q823.339 721.07 821.394 719.334 Q819.473 717.598 816.371 717.598 Q814.172 717.598 811.718 718.362 Q809.288 719.126 806.51 720.677 L806.51 715.955 Q809.334 714.82 811.788 714.242 Q814.241 713.663 816.278 713.663 Q821.649 713.663 824.843 716.348 Q828.038 719.033 828.038 723.524 Q828.038 725.654 827.227 727.575 Q826.44 729.473 824.334 732.066 Q823.755 732.737 820.653 735.954 Q817.552 739.149 811.903 744.913 Z" fill="#000000" fill-rule="evenodd" fill-opacity="1" /><path clip-path="url(#clip060)" d="M838.084 714.288 L856.44 714.288 L856.44 718.223 L842.366 718.223 L842.366 726.695 Q843.385 726.348 844.403 726.186 Q845.422 726.001 846.44 726.001 Q852.227 726.001 855.607 729.172 Q858.987 732.343 858.987 737.76 Q858.987 743.339 855.514 746.44 Q852.042 749.519 845.723 749.519 Q843.547 749.519 841.278 749.149 Q839.033 748.778 836.626 748.038 L836.626 743.339 Q838.709 744.473 840.931 745.028 Q843.153 745.584 845.63 745.584 Q849.635 745.584 851.973 743.478 Q854.311 741.371 854.311 737.76 Q854.311 734.149 851.973 732.042 Q849.635 729.936 845.63 729.936 Q843.755 729.936 841.88 730.353 Q840.028 730.769 838.084 731.649 L838.084 714.288 Z" fill="#000000" fill-rule="evenodd" fill-opacity="1" /><path clip-path="url(#clip060)" d="M1266.67 717.367 Q1263.06 717.367 1261.23 720.931 Q1259.42 724.473 1259.42 731.603 Q1259.42 738.709 1261.23 742.274 Q1263.06 745.815 1266.67 745.815 Q1270.3 745.815 1272.11 742.274 Q1273.94 738.709 1273.94 731.603 Q1273.94 724.473 1272.11 720.931 Q1270.3 717.367 1266.67 717.367 M1266.67 713.663 Q1272.48 713.663 1275.54 718.269 Q1278.61 722.853 1278.61 731.603 Q1278.61 740.329 1275.54 744.936 Q1272.48 749.519 1266.67 749.519 Q1260.86 749.519 1257.78 744.936 Q1254.73 740.329 1254.73 731.603 Q1254.73 722.853 1257.78 718.269 Q1260.86 713.663 1266.67 713.663 Z" fill="#000000" fill-rule="evenodd" fill-opacity="1" /><path clip-path="url(#clip060)" d="M1286.83 742.968 L1291.72 742.968 L1291.72 748.848 L1286.83 748.848 L1286.83 742.968 Z" fill="#000000" fill-rule="evenodd" fill-opacity="1" /><path clip-path="url(#clip060)" d="M1301.95 714.288 L1320.3 714.288 L1320.3 718.223 L1306.23 718.223 L1306.23 726.695 Q1307.25 726.348 1308.27 726.186 Q1309.29 726.001 1310.3 726.001 Q1316.09 726.001 1319.47 729.172 Q1322.85 732.343 1322.85 737.76 Q1322.85 743.339 1319.38 746.44 Q1315.91 749.519 1309.59 749.519 Q1307.41 749.519 1305.14 749.149 Q1302.9 748.778 1300.49 748.038 L1300.49 743.339 Q1302.57 744.473 1304.79 745.028 Q1307.02 745.584 1309.49 745.584 Q1313.5 745.584 1315.84 743.478 Q1318.17 741.371 1318.17 737.76 Q1318.17 734.149 1315.84 732.042 Q1313.5 729.936 1309.49 729.936 Q1307.62 729.936 1305.74 730.353 Q1303.89 730.769 1301.95 731.649 L1301.95 714.288 Z" fill="#000000" fill-rule="evenodd" fill-opacity="1" /><path clip-path="url(#clip060)" d="M1342.06 717.367 Q1338.45 717.367 1336.62 720.931 Q1334.82 724.473 1334.82 731.603 Q1334.82 738.709 1336.62 742.274 Q1338.45 745.815 1342.06 745.815 Q1345.7 745.815 1347.5 742.274 Q1349.33 738.709 1349.33 731.603 Q1349.33 724.473 1347.5 720.931 Q1345.7 717.367 1342.06 717.367 M1342.06 713.663 Q1347.87 713.663 1350.93 718.269 Q1354.01 722.853 1354.01 731.603 Q1354.01 740.329 1350.93 744.936 Q1347.87 749.519 1342.06 749.519 Q1336.25 749.519 1333.17 744.936 Q1330.12 740.329 1330.12 731.603 Q1330.12 722.853 1333.17 718.269 Q1336.25 713.663 1342.06 713.663 Z" fill="#000000" fill-rule="evenodd" fill-opacity="1" /><path clip-path="url(#clip060)" d="M1761.69 717.367 Q1758.08 717.367 1756.25 720.931 Q1754.45 724.473 1754.45 731.603 Q1754.45 738.709 1756.25 742.274 Q1758.08 745.815 1761.69 745.815 Q1765.33 745.815 1767.13 742.274 Q1768.96 738.709 1768.96 731.603 Q1768.96 724.473 1767.13 720.931 Q1765.33 717.367 1761.69 717.367 M1761.69 713.663 Q1767.5 713.663 1770.56 718.269 Q1773.64 722.853 1773.64 731.603 Q1773.64 740.329 1770.56 744.936 Q1767.5 749.519 1761.69 749.519 Q1755.88 749.519 1752.8 744.936 Q1749.75 740.329 1749.75 731.603 Q1749.75 722.853 1752.8 718.269 Q1755.88 713.663 1761.69 713.663 Z" fill="#000000" fill-rule="evenodd" fill-opacity="1" /><path clip-path="url(#clip060)" d="M1781.85 742.968 L1786.74 742.968 L1786.74 748.848 L1781.85 748.848 L1781.85 742.968 Z" fill="#000000" fill-rule="evenodd" fill-opacity="1" /><path clip-path="url(#clip060)" d="M1795.74 714.288 L1817.96 714.288 L1817.96 716.279 L1805.42 748.848 L1800.53 748.848 L1812.34 718.223 L1795.74 718.223 L1795.74 714.288 Z" fill="#000000" fill-rule="evenodd" fill-opacity="1" /><path clip-path="url(#clip060)" d="M1827.13 714.288 L1845.49 714.288 L1845.49 718.223 L1831.41 718.223 L1831.41 726.695 Q1832.43 726.348 1833.45 726.186 Q1834.47 726.001 1835.49 726.001 Q1841.27 726.001 1844.65 729.172 Q1848.03 732.343 1848.03 737.76 Q1848.03 743.339 1844.56 746.44 Q1841.09 749.519 1834.77 749.519 Q1832.59 749.519 1830.32 749.149 Q1828.08 748.778 1825.67 748.038 L1825.67 743.339 Q1827.76 744.473 1829.98 745.028 Q1832.2 745.584 1834.68 745.584 Q1838.68 745.584 1841.02 743.478 Q1843.36 741.371 1843.36 737.76 Q1843.36 734.149 1841.02 732.042 Q1838.68 729.936 1834.68 729.936 Q1832.8 729.936 1830.93 730.353 Q1829.07 730.769 1827.13 731.649 L1827.13 714.288 Z" fill="#000000" fill-rule="evenodd" fill-opacity="1" /><path clip-path="url(#clip060)" d="M2245.49 744.913 L2253.12 744.913 L2253.12 718.547 L2244.81 720.214 L2244.81 715.955 L2253.08 714.288 L2257.75 714.288 L2257.75 744.913 L2265.39 744.913 L2265.39 748.848 L2245.49 748.848 L2245.49 744.913 Z" fill="#000000" fill-rule="evenodd" fill-opacity="1" /><path clip-path="url(#clip060)" d="M2274.84 742.968 L2279.72 742.968 L2279.72 748.848 L2274.84 748.848 L2274.84 742.968 Z" fill="#000000" fill-rule="evenodd" fill-opacity="1" /><path clip-path="url(#clip060)" d="M2299.91 717.367 Q2296.3 717.367 2294.47 720.931 Q2292.66 724.473 2292.66 731.603 Q2292.66 738.709 2294.47 742.274 Q2296.3 745.815 2299.91 745.815 Q2303.54 745.815 2305.35 742.274 Q2307.17 738.709 2307.17 731.603 Q2307.17 724.473 2305.35 720.931 Q2303.54 717.367 2299.91 717.367 M2299.91 713.663 Q2305.72 713.663 2308.77 718.269 Q2311.85 722.853 2311.85 731.603 Q2311.85 740.329 2308.77 744.936 Q2305.72 749.519 2299.91 749.519 Q2294.1 749.519 2291.02 744.936 Q2287.96 740.329 2287.96 731.603 Q2287.96 722.853 2291.02 718.269 Q2294.1 713.663 2299.91 713.663 Z" fill="#000000" fill-rule="evenodd" fill-opacity="1" /><path clip-path="url(#clip060)" d="M2330.07 717.367 Q2326.46 717.367 2324.63 720.931 Q2322.82 724.473 2322.82 731.603 Q2322.82 738.709 2324.63 742.274 Q2326.46 745.815 2330.07 745.815 Q2333.7 745.815 2335.51 742.274 Q2337.34 738.709 2337.34 731.603 Q2337.34 724.473 2335.51 720.931 Q2333.7 717.367 2330.07 717.367 M2330.07 713.663 Q2335.88 713.663 2338.93 718.269 Q2342.01 722.853 2342.01 731.603 Q2342.01 740.329 2338.93 744.936 Q2335.88 749.519 2330.07 749.519 Q2324.26 749.519 2321.18 744.936 Q2318.12 740.329 2318.12 731.603 Q2318.12 722.853 2321.18 718.269 Q2324.26 713.663 2330.07 713.663 Z" fill="#000000" fill-rule="evenodd" fill-opacity="1" /><polyline clip-path="url(#clip063)" style="stroke:#000000; stroke-linecap:round; stroke-linejoin:round; stroke-width:2; stroke-opacity:0.1; fill:none" points="
  255.977,683.061 2352.76,683.061 
  "/>
<polyline clip-path="url(#clip063)" style="stroke:#000000; stroke-linecap:round; stroke-linejoin:round; stroke-width:2; stroke-opacity:0.1; fill:none" points="
  255.977,589.472 2352.76,589.472 
  "/>
<polyline clip-path="url(#clip063)" style="stroke:#000000; stroke-linecap:round; stroke-linejoin:round; stroke-width:2; stroke-opacity:0.1; fill:none" points="
  255.977,495.883 2352.76,495.883 
  "/>
<polyline clip-path="url(#clip063)" style="stroke:#000000; stroke-linecap:round; stroke-linejoin:round; stroke-width:2; stroke-opacity:0.1; fill:none" points="
  255.977,402.293 2352.76,402.293 
  "/>
<polyline clip-path="url(#clip063)" style="stroke:#000000; stroke-linecap:round; stroke-linejoin:round; stroke-width:2; stroke-opacity:0.1; fill:none" points="
  255.977,308.704 2352.76,308.704 
  "/>
<polyline clip-path="url(#clip063)" style="stroke:#000000; stroke-linecap:round; stroke-linejoin:round; stroke-width:2; stroke-opacity:0.1; fill:none" points="
  255.977,215.114 2352.76,215.114 
  "/>
<polyline clip-path="url(#clip063)" style="stroke:#000000; stroke-linecap:round; stroke-linejoin:round; stroke-width:2; stroke-opacity:0.1; fill:none" points="
  255.977,121.525 2352.76,121.525 
  "/>
<polyline clip-path="url(#clip060)" style="stroke:#000000; stroke-linecap:round; stroke-linejoin:round; stroke-width:4; stroke-opacity:1; fill:none" points="
  255.977,686.448 255.977,47.2441 
  "/>
<polyline clip-path="url(#clip060)" style="stroke:#000000; stroke-linecap:round; stroke-linejoin:round; stroke-width:4; stroke-opacity:1; fill:none" points="
  255.977,683.061 274.875,683.061 
  "/>
<polyline clip-path="url(#clip060)" style="stroke:#000000; stroke-linecap:round; stroke-linejoin:round; stroke-width:4; stroke-opacity:1; fill:none" points="
  255.977,589.472 274.875,589.472 
  "/>
<polyline clip-path="url(#clip060)" style="stroke:#000000; stroke-linecap:round; stroke-linejoin:round; stroke-width:4; stroke-opacity:1; fill:none" points="
  255.977,495.883 274.875,495.883 
  "/>
<polyline clip-path="url(#clip060)" style="stroke:#000000; stroke-linecap:round; stroke-linejoin:round; stroke-width:4; stroke-opacity:1; fill:none" points="
  255.977,402.293 274.875,402.293 
  "/>
<polyline clip-path="url(#clip060)" style="stroke:#000000; stroke-linecap:round; stroke-linejoin:round; stroke-width:4; stroke-opacity:1; fill:none" points="
  255.977,308.704 274.875,308.704 
  "/>
<polyline clip-path="url(#clip060)" style="stroke:#000000; stroke-linecap:round; stroke-linejoin:round; stroke-width:4; stroke-opacity:1; fill:none" points="
  255.977,215.114 274.875,215.114 
  "/>
<polyline clip-path="url(#clip060)" style="stroke:#000000; stroke-linecap:round; stroke-linejoin:round; stroke-width:4; stroke-opacity:1; fill:none" points="
  255.977,121.525 274.875,121.525 
  "/>
<path clip-path="url(#clip060)" d="M114.26 683.513 L143.936 683.513 L143.936 687.448 L114.26 687.448 L114.26 683.513 Z" fill="#000000" fill-rule="evenodd" fill-opacity="1" /><path clip-path="url(#clip060)" d="M164.028 668.86 Q160.417 668.86 158.589 672.425 Q156.783 675.967 156.783 683.096 Q156.783 690.203 158.589 693.767 Q160.417 697.309 164.028 697.309 Q167.663 697.309 169.468 693.767 Q171.297 690.203 171.297 683.096 Q171.297 675.967 169.468 672.425 Q167.663 668.86 164.028 668.86 M164.028 665.157 Q169.839 665.157 172.894 669.763 Q175.973 674.346 175.973 683.096 Q175.973 691.823 172.894 696.429 Q169.839 701.013 164.028 701.013 Q158.218 701.013 155.14 696.429 Q152.084 691.823 152.084 683.096 Q152.084 674.346 155.14 669.763 Q158.218 665.157 164.028 665.157 Z" fill="#000000" fill-rule="evenodd" fill-opacity="1" /><path clip-path="url(#clip060)" d="M184.19 694.462 L189.075 694.462 L189.075 700.341 L184.19 700.341 L184.19 694.462 Z" fill="#000000" fill-rule="evenodd" fill-opacity="1" /><path clip-path="url(#clip060)" d="M200.07 696.406 L207.709 696.406 L207.709 670.041 L199.399 671.707 L199.399 667.448 L207.662 665.781 L212.338 665.781 L212.338 696.406 L219.977 696.406 L219.977 700.341 L200.07 700.341 L200.07 696.406 Z" fill="#000000" fill-rule="evenodd" fill-opacity="1" /><path clip-path="url(#clip060)" d="M162.802 575.271 Q159.19 575.271 157.362 578.836 Q155.556 582.377 155.556 589.507 Q155.556 596.613 157.362 600.178 Q159.19 603.72 162.802 603.72 Q166.436 603.72 168.241 600.178 Q170.07 596.613 170.07 589.507 Q170.07 582.377 168.241 578.836 Q166.436 575.271 162.802 575.271 M162.802 571.567 Q168.612 571.567 171.667 576.174 Q174.746 580.757 174.746 589.507 Q174.746 598.234 171.667 602.84 Q168.612 607.423 162.802 607.423 Q156.991 607.423 153.913 602.84 Q150.857 598.234 150.857 589.507 Q150.857 580.757 153.913 576.174 Q156.991 571.567 162.802 571.567 Z" fill="#000000" fill-rule="evenodd" fill-opacity="1" /><path clip-path="url(#clip060)" d="M182.963 600.872 L187.848 600.872 L187.848 606.752 L182.963 606.752 L182.963 600.872 Z" fill="#000000" fill-rule="evenodd" fill-opacity="1" /><path clip-path="url(#clip060)" d="M208.033 575.271 Q204.422 575.271 202.593 578.836 Q200.787 582.377 200.787 589.507 Q200.787 596.613 202.593 600.178 Q204.422 603.72 208.033 603.72 Q211.667 603.72 213.473 600.178 Q215.301 596.613 215.301 589.507 Q215.301 582.377 213.473 578.836 Q211.667 575.271 208.033 575.271 M208.033 571.567 Q213.843 571.567 216.898 576.174 Q219.977 580.757 219.977 589.507 Q219.977 598.234 216.898 602.84 Q213.843 607.423 208.033 607.423 Q202.223 607.423 199.144 602.84 Q196.088 598.234 196.088 589.507 Q196.088 580.757 199.144 576.174 Q202.223 571.567 208.033 571.567 Z" fill="#000000" fill-rule="evenodd" fill-opacity="1" /><path clip-path="url(#clip060)" d="M164.028 481.681 Q160.417 481.681 158.589 485.246 Q156.783 488.788 156.783 495.917 Q156.783 503.024 158.589 506.589 Q160.417 510.13 164.028 510.13 Q167.663 510.13 169.468 506.589 Q171.297 503.024 171.297 495.917 Q171.297 488.788 169.468 485.246 Q167.663 481.681 164.028 481.681 M164.028 477.978 Q169.839 477.978 172.894 482.584 Q175.973 487.167 175.973 495.917 Q175.973 504.644 172.894 509.251 Q169.839 513.834 164.028 513.834 Q158.218 513.834 155.14 509.251 Q152.084 504.644 152.084 495.917 Q152.084 487.167 155.14 482.584 Q158.218 477.978 164.028 477.978 Z" fill="#000000" fill-rule="evenodd" fill-opacity="1" /><path clip-path="url(#clip060)" d="M184.19 507.283 L189.075 507.283 L189.075 513.163 L184.19 513.163 L184.19 507.283 Z" fill="#000000" fill-rule="evenodd" fill-opacity="1" /><path clip-path="url(#clip060)" d="M200.07 509.228 L207.709 509.228 L207.709 482.862 L199.399 484.529 L199.399 480.269 L207.662 478.603 L212.338 478.603 L212.338 509.228 L219.977 509.228 L219.977 513.163 L200.07 513.163 L200.07 509.228 Z" fill="#000000" fill-rule="evenodd" fill-opacity="1" /><path clip-path="url(#clip060)" d="M164.399 388.092 Q160.788 388.092 158.959 391.657 Q157.153 395.198 157.153 402.328 Q157.153 409.434 158.959 412.999 Q160.788 416.541 164.399 416.541 Q168.033 416.541 169.839 412.999 Q171.667 409.434 171.667 402.328 Q171.667 395.198 169.839 391.657 Q168.033 388.092 164.399 388.092 M164.399 384.388 Q170.209 384.388 173.264 388.995 Q176.343 393.578 176.343 402.328 Q176.343 411.055 173.264 415.661 Q170.209 420.245 164.399 420.245 Q158.589 420.245 155.51 415.661 Q152.454 411.055 152.454 402.328 Q152.454 393.578 155.51 388.995 Q158.589 384.388 164.399 384.388 Z" fill="#000000" fill-rule="evenodd" fill-opacity="1" /><path clip-path="url(#clip060)" d="M184.561 413.694 L189.445 413.694 L189.445 419.573 L184.561 419.573 L184.561 413.694 Z" fill="#000000" fill-rule="evenodd" fill-opacity="1" /><path clip-path="url(#clip060)" d="M203.658 415.638 L219.977 415.638 L219.977 419.573 L198.033 419.573 L198.033 415.638 Q200.695 412.883 205.278 408.254 Q209.885 403.601 211.065 402.259 Q213.311 399.735 214.19 397.999 Q215.093 396.24 215.093 394.55 Q215.093 391.796 213.149 390.06 Q211.227 388.323 208.125 388.323 Q205.926 388.323 203.473 389.087 Q201.042 389.851 198.264 391.402 L198.264 386.68 Q201.088 385.546 203.542 384.967 Q205.996 384.388 208.033 384.388 Q213.403 384.388 216.598 387.073 Q219.792 389.759 219.792 394.249 Q219.792 396.379 218.982 398.3 Q218.195 400.198 216.088 402.791 Q215.51 403.462 212.408 406.68 Q209.306 409.874 203.658 415.638 Z" fill="#000000" fill-rule="evenodd" fill-opacity="1" /><path clip-path="url(#clip060)" d="M163.45 294.503 Q159.839 294.503 158.01 298.067 Q156.204 301.609 156.204 308.739 Q156.204 315.845 158.01 319.41 Q159.839 322.951 163.45 322.951 Q167.084 322.951 168.889 319.41 Q170.718 315.845 170.718 308.739 Q170.718 301.609 168.889 298.067 Q167.084 294.503 163.45 294.503 M163.45 290.799 Q169.26 290.799 172.315 295.405 Q175.394 299.989 175.394 308.739 Q175.394 317.465 172.315 322.072 Q169.26 326.655 163.45 326.655 Q157.64 326.655 154.561 322.072 Q151.505 317.465 151.505 308.739 Q151.505 299.989 154.561 295.405 Q157.64 290.799 163.45 290.799 Z" fill="#000000" fill-rule="evenodd" fill-opacity="1" /><path clip-path="url(#clip060)" d="M183.612 320.104 L188.496 320.104 L188.496 325.984 L183.612 325.984 L183.612 320.104 Z" fill="#000000" fill-rule="evenodd" fill-opacity="1" /><path clip-path="url(#clip060)" d="M212.848 307.35 Q216.204 308.067 218.079 310.336 Q219.977 312.604 219.977 315.938 Q219.977 321.053 216.459 323.854 Q212.94 326.655 206.459 326.655 Q204.283 326.655 201.968 326.215 Q199.676 325.799 197.223 324.942 L197.223 320.428 Q199.167 321.563 201.482 322.141 Q203.797 322.72 206.32 322.72 Q210.718 322.72 213.01 320.984 Q215.324 319.248 215.324 315.938 Q215.324 312.882 213.172 311.169 Q211.042 309.433 207.223 309.433 L203.195 309.433 L203.195 305.59 L207.408 305.59 Q210.857 305.59 212.686 304.225 Q214.514 302.836 214.514 300.243 Q214.514 297.581 212.616 296.169 Q210.741 294.734 207.223 294.734 Q205.301 294.734 203.102 295.151 Q200.903 295.567 198.264 296.447 L198.264 292.28 Q200.926 291.54 203.241 291.169 Q205.579 290.799 207.639 290.799 Q212.963 290.799 216.065 293.229 Q219.167 295.637 219.167 299.757 Q219.167 302.628 217.523 304.618 Q215.88 306.586 212.848 307.35 Z" fill="#000000" fill-rule="evenodd" fill-opacity="1" /><path clip-path="url(#clip060)" d="M162.315 200.913 Q158.704 200.913 156.876 204.478 Q155.07 208.02 155.07 215.149 Q155.07 222.256 156.876 225.82 Q158.704 229.362 162.315 229.362 Q165.95 229.362 167.755 225.82 Q169.584 222.256 169.584 215.149 Q169.584 208.02 167.755 204.478 Q165.95 200.913 162.315 200.913 M162.315 197.209 Q168.126 197.209 171.181 201.816 Q174.26 206.399 174.26 215.149 Q174.26 223.876 171.181 228.482 Q168.126 233.066 162.315 233.066 Q156.505 233.066 153.427 228.482 Q150.371 223.876 150.371 215.149 Q150.371 206.399 153.427 201.816 Q156.505 197.209 162.315 197.209 Z" fill="#000000" fill-rule="evenodd" fill-opacity="1" /><path clip-path="url(#clip060)" d="M182.477 226.515 L187.362 226.515 L187.362 232.394 L182.477 232.394 L182.477 226.515 Z" fill="#000000" fill-rule="evenodd" fill-opacity="1" /><path clip-path="url(#clip060)" d="M210.394 201.909 L198.588 220.357 L210.394 220.357 L210.394 201.909 M209.167 197.834 L215.047 197.834 L215.047 220.357 L219.977 220.357 L219.977 224.246 L215.047 224.246 L215.047 232.394 L210.394 232.394 L210.394 224.246 L194.792 224.246 L194.792 219.732 L209.167 197.834 Z" fill="#000000" fill-rule="evenodd" fill-opacity="1" /><path clip-path="url(#clip060)" d="M163.797 107.324 Q160.186 107.324 158.357 110.889 Q156.552 114.43 156.552 121.56 Q156.552 128.666 158.357 132.231 Q160.186 135.773 163.797 135.773 Q167.431 135.773 169.237 132.231 Q171.065 128.666 171.065 121.56 Q171.065 114.43 169.237 110.889 Q167.431 107.324 163.797 107.324 M163.797 103.62 Q169.607 103.62 172.663 108.227 Q175.741 112.81 175.741 121.56 Q175.741 130.287 172.663 134.893 Q169.607 139.476 163.797 139.476 Q157.987 139.476 154.908 134.893 Q151.853 130.287 151.853 121.56 Q151.853 112.81 154.908 108.227 Q157.987 103.62 163.797 103.62 Z" fill="#000000" fill-rule="evenodd" fill-opacity="1" /><path clip-path="url(#clip060)" d="M183.959 132.925 L188.843 132.925 L188.843 138.805 L183.959 138.805 L183.959 132.925 Z" fill="#000000" fill-rule="evenodd" fill-opacity="1" /><path clip-path="url(#clip060)" d="M199.075 104.245 L217.431 104.245 L217.431 108.18 L203.357 108.18 L203.357 116.652 Q204.375 116.305 205.394 116.143 Q206.412 115.958 207.431 115.958 Q213.218 115.958 216.598 119.129 Q219.977 122.301 219.977 127.717 Q219.977 133.296 216.505 136.398 Q213.033 139.476 206.713 139.476 Q204.537 139.476 202.269 139.106 Q200.024 138.736 197.616 137.995 L197.616 133.296 Q199.7 134.43 201.922 134.986 Q204.144 135.541 206.621 135.541 Q210.625 135.541 212.963 133.435 Q215.301 131.328 215.301 127.717 Q215.301 124.106 212.963 122 Q210.625 119.893 206.621 119.893 Q204.746 119.893 202.871 120.31 Q201.019 120.726 199.075 121.606 L199.075 104.245 Z" fill="#000000" fill-rule="evenodd" fill-opacity="1" /><path clip-path="url(#clip060)" d="M24.1199 349.961 Q25.8912 349.961 26.9862 351.088 Q28.0812 352.183 28.0812 353.568 Q28.0812 354.566 27.4693 355.307 Q26.8574 356.016 25.7946 356.016 Q24.6996 356.016 23.5402 355.178 Q22.3807 354.341 22.2197 352.441 Q21.0281 353.697 21.0281 355.694 Q21.0281 356.692 21.6722 357.529 Q22.2841 358.334 23.2825 358.785 Q24.3131 359.268 30.1424 360.363 Q32.0425 360.718 33.8782 361.04 Q35.714 361.362 37.6463 361.748 L37.6463 356.273 Q37.6463 355.565 37.6785 355.275 Q37.7107 354.985 37.8718 354.76 Q38.0328 354.502 38.3871 354.502 Q39.2888 354.502 39.5143 354.921 Q39.7075 355.307 39.7075 356.466 L39.7075 362.135 L60.6091 366.096 Q61.221 366.193 63.1534 366.611 Q65.0535 366.998 68.1775 367.932 Q71.3337 368.866 73.2016 369.8 Q74.2644 370.315 75.2628 370.991 Q76.2934 371.635 77.3239 372.569 Q78.3545 373.503 78.9664 374.727 Q79.6106 375.951 79.6106 377.239 Q79.6106 379.429 78.3867 381.136 Q77.1629 382.843 75.0695 382.843 Q73.2982 382.843 72.2032 381.748 Q71.1082 380.621 71.1082 379.236 Q71.1082 378.238 71.7201 377.529 Q72.332 376.788 73.3948 376.788 Q73.8457 376.788 74.361 376.949 Q74.8763 377.11 75.456 377.465 Q76.0679 377.819 76.4866 378.592 Q76.9053 379.365 76.9697 380.428 Q78.1613 379.172 78.1613 377.239 Q78.1613 376.627 77.9036 376.08 Q77.6782 375.532 77.0985 375.081 Q76.5188 374.598 75.9391 374.244 Q75.3916 373.89 74.3288 373.536 Q73.2982 373.181 72.5253 372.956 Q71.7523 372.73 70.3675 372.441 Q68.9826 372.119 68.1453 371.957 Q67.3401 371.796 65.762 371.507 L39.7075 366.579 L39.7075 370.927 Q39.7075 371.7 39.6753 372.022 Q39.6431 372.312 39.4821 372.537 Q39.2888 372.763 38.9023 372.763 Q38.2904 372.763 38.0328 372.505 Q37.7429 372.215 37.7107 371.893 Q37.6463 371.571 37.6463 370.798 L37.6463 366.225 Q29.4982 364.679 27.3082 364.067 Q24.9894 363.359 23.3791 362.264 Q21.7366 361.169 20.9637 359.945 Q20.1907 358.721 19.9009 357.723 Q19.5788 356.692 19.5788 355.694 Q19.5788 353.439 20.8027 351.7 Q21.9943 349.961 24.1199 349.961 Z" fill="#000000" fill-rule="evenodd" fill-opacity="1" /><polyline clip-path="url(#clip063)" style="stroke:#009af9; stroke-linecap:round; stroke-linejoin:round; stroke-width:4; stroke-opacity:1; fill:none" points="
  315.32,126.432 335.301,160.23 355.281,125.699 375.262,189.671 395.243,174.17 415.224,202.502 435.204,182.097 455.185,143.596 475.166,171.011 495.147,161.6 
  515.127,267.277 535.108,225.419 555.089,289.207 575.07,234.542 595.05,246.668 615.031,210.608 635.012,229.189 654.993,259.419 674.973,322.98 694.954,330.978 
  714.935,414.065 734.915,348.4 754.896,409.368 774.877,302.629 794.858,313.293 814.838,358.386 834.819,391.924 854.8,376.881 874.781,317.827 894.761,339.162 
  914.742,432.637 934.723,413.13 954.704,482.803 974.684,420.977 994.665,414.504 1014.65,416.33 1034.63,539.459 1054.61,453.551 1074.59,526.964 1094.57,513.503 
  1114.55,468.367 1134.53,500.646 1154.51,531.622 1174.49,504.927 1194.47,466.192 1214.45,581.213 1234.43,624.573 1254.41,625.141 1274.4,624.3 1294.38,620.881 
  1314.36,553.128 1334.34,668.357 1354.32,550.353 1374.3,588.462 1394.28,491.224 1414.26,573.354 1434.24,523.606 1454.22,558.475 1474.2,537.135 1494.18,508.056 
  1514.16,497.23 1534.15,501.723 1554.13,415.007 1574.11,432.703 1594.09,362.277 1614.07,452.705 1634.05,380.457 1654.03,519.244 1674.01,381.775 1693.99,384.911 
  1713.97,410.444 1733.95,351.037 1753.93,333.148 1773.91,316.49 1793.89,335.855 1813.88,318.013 1833.86,368.321 1853.84,378.67 1873.82,330.586 1893.8,299.974 
  1913.78,254.846 1933.76,326.978 1953.74,303.532 1973.72,132.078 1993.7,291.043 2013.68,162.69 2033.66,198.215 2053.64,259.935 2073.62,229.46 2093.61,225.183 
  2113.59,183.599 2133.57,132.492 2153.55,263.678 2173.53,82.9789 2193.51,131.923 2213.49,184.647 2233.47,155.499 2253.45,126.224 2273.43,117.025 2293.41,65.3348 
  
  "/>
<path clip-path="url(#clip060)" d="
M255.977 1486.45 L2352.76 1486.45 L2352.76 847.244 L255.977 847.244  Z
  " fill="#ffffff" fill-rule="evenodd" fill-opacity="1"/>
<defs>
  <clipPath id="clip064">
    <rect x="255" y="847" width="2098" height="640"/>
  </clipPath>
</defs>
<polyline clip-path="url(#clip064)" style="stroke:#000000; stroke-linecap:round; stroke-linejoin:round; stroke-width:2; stroke-opacity:0.1; fill:none" points="
  315.32,1486.45 315.32,847.244 
  "/>
<polyline clip-path="url(#clip064)" style="stroke:#000000; stroke-linecap:round; stroke-linejoin:round; stroke-width:2; stroke-opacity:0.1; fill:none" points="
  809.843,1486.45 809.843,847.244 
  "/>
<polyline clip-path="url(#clip064)" style="stroke:#000000; stroke-linecap:round; stroke-linejoin:round; stroke-width:2; stroke-opacity:0.1; fill:none" points="
  1304.37,1486.45 1304.37,847.244 
  "/>
<polyline clip-path="url(#clip064)" style="stroke:#000000; stroke-linecap:round; stroke-linejoin:round; stroke-width:2; stroke-opacity:0.1; fill:none" points="
  1798.89,1486.45 1798.89,847.244 
  "/>
<polyline clip-path="url(#clip064)" style="stroke:#000000; stroke-linecap:round; stroke-linejoin:round; stroke-width:2; stroke-opacity:0.1; fill:none" points="
  2293.41,1486.45 2293.41,847.244 
  "/>
<polyline clip-path="url(#clip060)" style="stroke:#000000; stroke-linecap:round; stroke-linejoin:round; stroke-width:4; stroke-opacity:1; fill:none" points="
  255.977,1486.45 2352.76,1486.45 
  "/>
<polyline clip-path="url(#clip060)" style="stroke:#000000; stroke-linecap:round; stroke-linejoin:round; stroke-width:4; stroke-opacity:1; fill:none" points="
  315.32,1486.45 315.32,1467.55 
  "/>
<polyline clip-path="url(#clip060)" style="stroke:#000000; stroke-linecap:round; stroke-linejoin:round; stroke-width:4; stroke-opacity:1; fill:none" points="
  809.843,1486.45 809.843,1467.55 
  "/>
<polyline clip-path="url(#clip060)" style="stroke:#000000; stroke-linecap:round; stroke-linejoin:round; stroke-width:4; stroke-opacity:1; fill:none" points="
  1304.37,1486.45 1304.37,1467.55 
  "/>
<polyline clip-path="url(#clip060)" style="stroke:#000000; stroke-linecap:round; stroke-linejoin:round; stroke-width:4; stroke-opacity:1; fill:none" points="
  1798.89,1486.45 1798.89,1467.55 
  "/>
<polyline clip-path="url(#clip060)" style="stroke:#000000; stroke-linecap:round; stroke-linejoin:round; stroke-width:4; stroke-opacity:1; fill:none" points="
  2293.41,1486.45 2293.41,1467.55 
  "/>
<path clip-path="url(#clip060)" d="M277.623 1517.37 Q274.012 1517.37 272.184 1520.93 Q270.378 1524.47 270.378 1531.6 Q270.378 1538.71 272.184 1542.27 Q274.012 1545.82 277.623 1545.82 Q281.258 1545.82 283.063 1542.27 Q284.892 1538.71 284.892 1531.6 Q284.892 1524.47 283.063 1520.93 Q281.258 1517.37 277.623 1517.37 M277.623 1513.66 Q283.434 1513.66 286.489 1518.27 Q289.568 1522.85 289.568 1531.6 Q289.568 1540.33 286.489 1544.94 Q283.434 1549.52 277.623 1549.52 Q271.813 1549.52 268.735 1544.94 Q265.679 1540.33 265.679 1531.6 Q265.679 1522.85 268.735 1518.27 Q271.813 1513.66 277.623 1513.66 Z" fill="#000000" fill-rule="evenodd" fill-opacity="1" /><path clip-path="url(#clip060)" d="M297.785 1542.97 L302.67 1542.97 L302.67 1548.85 L297.785 1548.85 L297.785 1542.97 Z" fill="#000000" fill-rule="evenodd" fill-opacity="1" /><path clip-path="url(#clip060)" d="M322.855 1517.37 Q319.244 1517.37 317.415 1520.93 Q315.609 1524.47 315.609 1531.6 Q315.609 1538.71 317.415 1542.27 Q319.244 1545.82 322.855 1545.82 Q326.489 1545.82 328.294 1542.27 Q330.123 1538.71 330.123 1531.6 Q330.123 1524.47 328.294 1520.93 Q326.489 1517.37 322.855 1517.37 M322.855 1513.66 Q328.665 1513.66 331.72 1518.27 Q334.799 1522.85 334.799 1531.6 Q334.799 1540.33 331.72 1544.94 Q328.665 1549.52 322.855 1549.52 Q317.045 1549.52 313.966 1544.94 Q310.91 1540.33 310.91 1531.6 Q310.91 1522.85 313.966 1518.27 Q317.045 1513.66 322.855 1513.66 Z" fill="#000000" fill-rule="evenodd" fill-opacity="1" /><path clip-path="url(#clip060)" d="M353.017 1517.37 Q349.405 1517.37 347.577 1520.93 Q345.771 1524.47 345.771 1531.6 Q345.771 1538.71 347.577 1542.27 Q349.405 1545.82 353.017 1545.82 Q356.651 1545.82 358.456 1542.27 Q360.285 1538.71 360.285 1531.6 Q360.285 1524.47 358.456 1520.93 Q356.651 1517.37 353.017 1517.37 M353.017 1513.66 Q358.827 1513.66 361.882 1518.27 Q364.961 1522.85 364.961 1531.6 Q364.961 1540.33 361.882 1544.94 Q358.827 1549.52 353.017 1549.52 Q347.206 1549.52 344.128 1544.94 Q341.072 1540.33 341.072 1531.6 Q341.072 1522.85 344.128 1518.27 Q347.206 1513.66 353.017 1513.66 Z" fill="#000000" fill-rule="evenodd" fill-opacity="1" /><path clip-path="url(#clip060)" d="M772.644 1517.37 Q769.033 1517.37 767.205 1520.93 Q765.399 1524.47 765.399 1531.6 Q765.399 1538.71 767.205 1542.27 Q769.033 1545.82 772.644 1545.82 Q776.279 1545.82 778.084 1542.27 Q779.913 1538.71 779.913 1531.6 Q779.913 1524.47 778.084 1520.93 Q776.279 1517.37 772.644 1517.37 M772.644 1513.66 Q778.455 1513.66 781.51 1518.27 Q784.589 1522.85 784.589 1531.6 Q784.589 1540.33 781.51 1544.94 Q778.455 1549.52 772.644 1549.52 Q766.834 1549.52 763.756 1544.94 Q760.7 1540.33 760.7 1531.6 Q760.7 1522.85 763.756 1518.27 Q766.834 1513.66 772.644 1513.66 Z" fill="#000000" fill-rule="evenodd" fill-opacity="1" /><path clip-path="url(#clip060)" d="M792.806 1542.97 L797.691 1542.97 L797.691 1548.85 L792.806 1548.85 L792.806 1542.97 Z" fill="#000000" fill-rule="evenodd" fill-opacity="1" /><path clip-path="url(#clip060)" d="M811.903 1544.91 L828.223 1544.91 L828.223 1548.85 L806.278 1548.85 L806.278 1544.91 Q808.94 1542.16 813.524 1537.53 Q818.13 1532.88 819.311 1531.53 Q821.556 1529.01 822.436 1527.27 Q823.339 1525.51 823.339 1523.82 Q823.339 1521.07 821.394 1519.33 Q819.473 1517.6 816.371 1517.6 Q814.172 1517.6 811.718 1518.36 Q809.288 1519.13 806.51 1520.68 L806.51 1515.95 Q809.334 1514.82 811.788 1514.24 Q814.241 1513.66 816.278 1513.66 Q821.649 1513.66 824.843 1516.35 Q828.038 1519.03 828.038 1523.52 Q828.038 1525.65 827.227 1527.57 Q826.44 1529.47 824.334 1532.07 Q823.755 1532.74 820.653 1535.95 Q817.552 1539.15 811.903 1544.91 Z" fill="#000000" fill-rule="evenodd" fill-opacity="1" /><path clip-path="url(#clip060)" d="M838.084 1514.29 L856.44 1514.29 L856.44 1518.22 L842.366 1518.22 L842.366 1526.7 Q843.385 1526.35 844.403 1526.19 Q845.422 1526 846.44 1526 Q852.227 1526 855.607 1529.17 Q858.987 1532.34 858.987 1537.76 Q858.987 1543.34 855.514 1546.44 Q852.042 1549.52 845.723 1549.52 Q843.547 1549.52 841.278 1549.15 Q839.033 1548.78 836.626 1548.04 L836.626 1543.34 Q838.709 1544.47 840.931 1545.03 Q843.153 1545.58 845.63 1545.58 Q849.635 1545.58 851.973 1543.48 Q854.311 1541.37 854.311 1537.76 Q854.311 1534.15 851.973 1532.04 Q849.635 1529.94 845.63 1529.94 Q843.755 1529.94 841.88 1530.35 Q840.028 1530.77 838.084 1531.65 L838.084 1514.29 Z" fill="#000000" fill-rule="evenodd" fill-opacity="1" /><path clip-path="url(#clip060)" d="M1266.67 1517.37 Q1263.06 1517.37 1261.23 1520.93 Q1259.42 1524.47 1259.42 1531.6 Q1259.42 1538.71 1261.23 1542.27 Q1263.06 1545.82 1266.67 1545.82 Q1270.3 1545.82 1272.11 1542.27 Q1273.94 1538.71 1273.94 1531.6 Q1273.94 1524.47 1272.11 1520.93 Q1270.3 1517.37 1266.67 1517.37 M1266.67 1513.66 Q1272.48 1513.66 1275.54 1518.27 Q1278.61 1522.85 1278.61 1531.6 Q1278.61 1540.33 1275.54 1544.94 Q1272.48 1549.52 1266.67 1549.52 Q1260.86 1549.52 1257.78 1544.94 Q1254.73 1540.33 1254.73 1531.6 Q1254.73 1522.85 1257.78 1518.27 Q1260.86 1513.66 1266.67 1513.66 Z" fill="#000000" fill-rule="evenodd" fill-opacity="1" /><path clip-path="url(#clip060)" d="M1286.83 1542.97 L1291.72 1542.97 L1291.72 1548.85 L1286.83 1548.85 L1286.83 1542.97 Z" fill="#000000" fill-rule="evenodd" fill-opacity="1" /><path clip-path="url(#clip060)" d="M1301.95 1514.29 L1320.3 1514.29 L1320.3 1518.22 L1306.23 1518.22 L1306.23 1526.7 Q1307.25 1526.35 1308.27 1526.19 Q1309.29 1526 1310.3 1526 Q1316.09 1526 1319.47 1529.17 Q1322.85 1532.34 1322.85 1537.76 Q1322.85 1543.34 1319.38 1546.44 Q1315.91 1549.52 1309.59 1549.52 Q1307.41 1549.52 1305.14 1549.15 Q1302.9 1548.78 1300.49 1548.04 L1300.49 1543.34 Q1302.57 1544.47 1304.79 1545.03 Q1307.02 1545.58 1309.49 1545.58 Q1313.5 1545.58 1315.84 1543.48 Q1318.17 1541.37 1318.17 1537.76 Q1318.17 1534.15 1315.84 1532.04 Q1313.5 1529.94 1309.49 1529.94 Q1307.62 1529.94 1305.74 1530.35 Q1303.89 1530.77 1301.95 1531.65 L1301.95 1514.29 Z" fill="#000000" fill-rule="evenodd" fill-opacity="1" /><path clip-path="url(#clip060)" d="M1342.06 1517.37 Q1338.45 1517.37 1336.62 1520.93 Q1334.82 1524.47 1334.82 1531.6 Q1334.82 1538.71 1336.62 1542.27 Q1338.45 1545.82 1342.06 1545.82 Q1345.7 1545.82 1347.5 1542.27 Q1349.33 1538.71 1349.33 1531.6 Q1349.33 1524.47 1347.5 1520.93 Q1345.7 1517.37 1342.06 1517.37 M1342.06 1513.66 Q1347.87 1513.66 1350.93 1518.27 Q1354.01 1522.85 1354.01 1531.6 Q1354.01 1540.33 1350.93 1544.94 Q1347.87 1549.52 1342.06 1549.52 Q1336.25 1549.52 1333.17 1544.94 Q1330.12 1540.33 1330.12 1531.6 Q1330.12 1522.85 1333.17 1518.27 Q1336.25 1513.66 1342.06 1513.66 Z" fill="#000000" fill-rule="evenodd" fill-opacity="1" /><path clip-path="url(#clip060)" d="M1761.69 1517.37 Q1758.08 1517.37 1756.25 1520.93 Q1754.45 1524.47 1754.45 1531.6 Q1754.45 1538.71 1756.25 1542.27 Q1758.08 1545.82 1761.69 1545.82 Q1765.33 1545.82 1767.13 1542.27 Q1768.96 1538.71 1768.96 1531.6 Q1768.96 1524.47 1767.13 1520.93 Q1765.33 1517.37 1761.69 1517.37 M1761.69 1513.66 Q1767.5 1513.66 1770.56 1518.27 Q1773.64 1522.85 1773.64 1531.6 Q1773.64 1540.33 1770.56 1544.94 Q1767.5 1549.52 1761.69 1549.52 Q1755.88 1549.52 1752.8 1544.94 Q1749.75 1540.33 1749.75 1531.6 Q1749.75 1522.85 1752.8 1518.27 Q1755.88 1513.66 1761.69 1513.66 Z" fill="#000000" fill-rule="evenodd" fill-opacity="1" /><path clip-path="url(#clip060)" d="M1781.85 1542.97 L1786.74 1542.97 L1786.74 1548.85 L1781.85 1548.85 L1781.85 1542.97 Z" fill="#000000" fill-rule="evenodd" fill-opacity="1" /><path clip-path="url(#clip060)" d="M1795.74 1514.29 L1817.96 1514.29 L1817.96 1516.28 L1805.42 1548.85 L1800.53 1548.85 L1812.34 1518.22 L1795.74 1518.22 L1795.74 1514.29 Z" fill="#000000" fill-rule="evenodd" fill-opacity="1" /><path clip-path="url(#clip060)" d="M1827.13 1514.29 L1845.49 1514.29 L1845.49 1518.22 L1831.41 1518.22 L1831.41 1526.7 Q1832.43 1526.35 1833.45 1526.19 Q1834.47 1526 1835.49 1526 Q1841.27 1526 1844.65 1529.17 Q1848.03 1532.34 1848.03 1537.76 Q1848.03 1543.34 1844.56 1546.44 Q1841.09 1549.52 1834.77 1549.52 Q1832.59 1549.52 1830.32 1549.15 Q1828.08 1548.78 1825.67 1548.04 L1825.67 1543.34 Q1827.76 1544.47 1829.98 1545.03 Q1832.2 1545.58 1834.68 1545.58 Q1838.68 1545.58 1841.02 1543.48 Q1843.36 1541.37 1843.36 1537.76 Q1843.36 1534.15 1841.02 1532.04 Q1838.68 1529.94 1834.68 1529.94 Q1832.8 1529.94 1830.93 1530.35 Q1829.07 1530.77 1827.13 1531.65 L1827.13 1514.29 Z" fill="#000000" fill-rule="evenodd" fill-opacity="1" /><path clip-path="url(#clip060)" d="M2245.49 1544.91 L2253.12 1544.91 L2253.12 1518.55 L2244.81 1520.21 L2244.81 1515.95 L2253.08 1514.29 L2257.75 1514.29 L2257.75 1544.91 L2265.39 1544.91 L2265.39 1548.85 L2245.49 1548.85 L2245.49 1544.91 Z" fill="#000000" fill-rule="evenodd" fill-opacity="1" /><path clip-path="url(#clip060)" d="M2274.84 1542.97 L2279.72 1542.97 L2279.72 1548.85 L2274.84 1548.85 L2274.84 1542.97 Z" fill="#000000" fill-rule="evenodd" fill-opacity="1" /><path clip-path="url(#clip060)" d="M2299.91 1517.37 Q2296.3 1517.37 2294.47 1520.93 Q2292.66 1524.47 2292.66 1531.6 Q2292.66 1538.71 2294.47 1542.27 Q2296.3 1545.82 2299.91 1545.82 Q2303.54 1545.82 2305.35 1542.27 Q2307.17 1538.71 2307.17 1531.6 Q2307.17 1524.47 2305.35 1520.93 Q2303.54 1517.37 2299.91 1517.37 M2299.91 1513.66 Q2305.72 1513.66 2308.77 1518.27 Q2311.85 1522.85 2311.85 1531.6 Q2311.85 1540.33 2308.77 1544.94 Q2305.72 1549.52 2299.91 1549.52 Q2294.1 1549.52 2291.02 1544.94 Q2287.96 1540.33 2287.96 1531.6 Q2287.96 1522.85 2291.02 1518.27 Q2294.1 1513.66 2299.91 1513.66 Z" fill="#000000" fill-rule="evenodd" fill-opacity="1" /><path clip-path="url(#clip060)" d="M2330.07 1517.37 Q2326.46 1517.37 2324.63 1520.93 Q2322.82 1524.47 2322.82 1531.6 Q2322.82 1538.71 2324.63 1542.27 Q2326.46 1545.82 2330.07 1545.82 Q2333.7 1545.82 2335.51 1542.27 Q2337.34 1538.71 2337.34 1531.6 Q2337.34 1524.47 2335.51 1520.93 Q2333.7 1517.37 2330.07 1517.37 M2330.07 1513.66 Q2335.88 1513.66 2338.93 1518.27 Q2342.01 1522.85 2342.01 1531.6 Q2342.01 1540.33 2338.93 1544.94 Q2335.88 1549.52 2330.07 1549.52 Q2324.26 1549.52 2321.18 1544.94 Q2318.12 1540.33 2318.12 1531.6 Q2318.12 1522.85 2321.18 1518.27 Q2324.26 1513.66 2330.07 1513.66 Z" fill="#000000" fill-rule="evenodd" fill-opacity="1" /><polyline clip-path="url(#clip064)" style="stroke:#000000; stroke-linecap:round; stroke-linejoin:round; stroke-width:2; stroke-opacity:0.1; fill:none" points="
  255.977,1353.97 2352.76,1353.97 
  "/>
<polyline clip-path="url(#clip064)" style="stroke:#000000; stroke-linecap:round; stroke-linejoin:round; stroke-width:2; stroke-opacity:0.1; fill:none" points="
  255.977,1186.14 2352.76,1186.14 
  "/>
<polyline clip-path="url(#clip064)" style="stroke:#000000; stroke-linecap:round; stroke-linejoin:round; stroke-width:2; stroke-opacity:0.1; fill:none" points="
  255.977,1018.31 2352.76,1018.31 
  "/>
<polyline clip-path="url(#clip064)" style="stroke:#000000; stroke-linecap:round; stroke-linejoin:round; stroke-width:2; stroke-opacity:0.1; fill:none" points="
  255.977,850.475 2352.76,850.475 
  "/>
<polyline clip-path="url(#clip060)" style="stroke:#000000; stroke-linecap:round; stroke-linejoin:round; stroke-width:4; stroke-opacity:1; fill:none" points="
  255.977,1486.45 255.977,847.244 
  "/>
<polyline clip-path="url(#clip060)" style="stroke:#000000; stroke-linecap:round; stroke-linejoin:round; stroke-width:4; stroke-opacity:1; fill:none" points="
  255.977,1353.97 274.875,1353.97 
  "/>
<polyline clip-path="url(#clip060)" style="stroke:#000000; stroke-linecap:round; stroke-linejoin:round; stroke-width:4; stroke-opacity:1; fill:none" points="
  255.977,1186.14 274.875,1186.14 
  "/>
<polyline clip-path="url(#clip060)" style="stroke:#000000; stroke-linecap:round; stroke-linejoin:round; stroke-width:4; stroke-opacity:1; fill:none" points="
  255.977,1018.31 274.875,1018.31 
  "/>
<polyline clip-path="url(#clip060)" style="stroke:#000000; stroke-linecap:round; stroke-linejoin:round; stroke-width:4; stroke-opacity:1; fill:none" points="
  255.977,850.475 274.875,850.475 
  "/>
<path clip-path="url(#clip060)" d="M128.103 1354.42 L157.778 1354.42 L157.778 1358.36 L128.103 1358.36 L128.103 1354.42 Z" fill="#000000" fill-rule="evenodd" fill-opacity="1" /><path clip-path="url(#clip060)" d="M168.681 1367.32 L176.32 1367.32 L176.32 1340.95 L168.01 1342.62 L168.01 1338.36 L176.274 1336.69 L180.95 1336.69 L180.95 1367.32 L188.588 1367.32 L188.588 1371.25 L168.681 1371.25 L168.681 1367.32 Z" fill="#000000" fill-rule="evenodd" fill-opacity="1" /><path clip-path="url(#clip060)" d="M208.033 1339.77 Q204.422 1339.77 202.593 1343.34 Q200.787 1346.88 200.787 1354.01 Q200.787 1361.11 202.593 1364.68 Q204.422 1368.22 208.033 1368.22 Q211.667 1368.22 213.473 1364.68 Q215.301 1361.11 215.301 1354.01 Q215.301 1346.88 213.473 1343.34 Q211.667 1339.77 208.033 1339.77 M208.033 1336.07 Q213.843 1336.07 216.898 1340.67 Q219.977 1345.26 219.977 1354.01 Q219.977 1362.73 216.898 1367.34 Q213.843 1371.92 208.033 1371.92 Q202.223 1371.92 199.144 1367.34 Q196.088 1362.73 196.088 1354.01 Q196.088 1345.26 199.144 1340.67 Q202.223 1336.07 208.033 1336.07 Z" fill="#000000" fill-rule="evenodd" fill-opacity="1" /><path clip-path="url(#clip060)" d="M208.033 1171.94 Q204.422 1171.94 202.593 1175.5 Q200.787 1179.04 200.787 1186.17 Q200.787 1193.28 202.593 1196.85 Q204.422 1200.39 208.033 1200.39 Q211.667 1200.39 213.473 1196.85 Q215.301 1193.28 215.301 1186.17 Q215.301 1179.04 213.473 1175.5 Q211.667 1171.94 208.033 1171.94 M208.033 1168.23 Q213.843 1168.23 216.898 1172.84 Q219.977 1177.42 219.977 1186.17 Q219.977 1194.9 216.898 1199.51 Q213.843 1204.09 208.033 1204.09 Q202.223 1204.09 199.144 1199.51 Q196.088 1194.9 196.088 1186.17 Q196.088 1177.42 199.144 1172.84 Q202.223 1168.23 208.033 1168.23 Z" fill="#000000" fill-rule="evenodd" fill-opacity="1" /><path clip-path="url(#clip060)" d="M168.681 1031.65 L176.32 1031.65 L176.32 1005.29 L168.01 1006.95 L168.01 1002.69 L176.274 1001.03 L180.95 1001.03 L180.95 1031.65 L188.588 1031.65 L188.588 1035.59 L168.681 1035.59 L168.681 1031.65 Z" fill="#000000" fill-rule="evenodd" fill-opacity="1" /><path clip-path="url(#clip060)" d="M208.033 1004.11 Q204.422 1004.11 202.593 1007.67 Q200.787 1011.21 200.787 1018.34 Q200.787 1025.45 202.593 1029.01 Q204.422 1032.55 208.033 1032.55 Q211.667 1032.55 213.473 1029.01 Q215.301 1025.45 215.301 1018.34 Q215.301 1011.21 213.473 1007.67 Q211.667 1004.11 208.033 1004.11 M208.033 1000.4 Q213.843 1000.4 216.898 1005.01 Q219.977 1009.59 219.977 1018.34 Q219.977 1027.07 216.898 1031.68 Q213.843 1036.26 208.033 1036.26 Q202.223 1036.26 199.144 1031.68 Q196.088 1027.07 196.088 1018.34 Q196.088 1009.59 199.144 1005.01 Q202.223 1000.4 208.033 1000.4 Z" fill="#000000" fill-rule="evenodd" fill-opacity="1" /><path clip-path="url(#clip060)" d="M171.899 863.819 L188.218 863.819 L188.218 867.755 L166.274 867.755 L166.274 863.819 Q168.936 861.065 173.519 856.435 Q178.126 851.783 179.306 850.44 Q181.551 847.917 182.431 846.181 Q183.334 844.421 183.334 842.732 Q183.334 839.977 181.389 838.241 Q179.468 836.505 176.366 836.505 Q174.167 836.505 171.714 837.269 Q169.283 838.033 166.505 839.584 L166.505 834.861 Q169.329 833.727 171.783 833.148 Q174.237 832.57 176.274 832.57 Q181.644 832.57 184.838 835.255 Q188.033 837.94 188.033 842.431 Q188.033 844.56 187.223 846.482 Q186.436 848.38 184.329 850.972 Q183.751 851.644 180.649 854.861 Q177.547 858.056 171.899 863.819 Z" fill="#000000" fill-rule="evenodd" fill-opacity="1" /><path clip-path="url(#clip060)" d="M208.033 836.273 Q204.422 836.273 202.593 839.838 Q200.787 843.38 200.787 850.509 Q200.787 857.616 202.593 861.181 Q204.422 864.722 208.033 864.722 Q211.667 864.722 213.473 861.181 Q215.301 857.616 215.301 850.509 Q215.301 843.38 213.473 839.838 Q211.667 836.273 208.033 836.273 M208.033 832.57 Q213.843 832.57 216.898 837.176 Q219.977 841.759 219.977 850.509 Q219.977 859.236 216.898 863.843 Q213.843 868.426 208.033 868.426 Q202.223 868.426 199.144 863.843 Q196.088 859.236 196.088 850.509 Q196.088 841.759 199.144 837.176 Q202.223 832.57 208.033 832.57 Z" fill="#000000" fill-rule="evenodd" fill-opacity="1" /><path clip-path="url(#clip060)" d="M38.0709 1220.38 L38.9952 1220.94 Q37.4847 1224.44 35.0725 1228.79 Q37.4847 1233.14 38.9952 1236.63 L38.0709 1237.17 Q34.7569 1233.36 32.2094 1228.79 Q34.7794 1224.17 38.0709 1220.38 Z" fill="#000000" fill-rule="evenodd" fill-opacity="1" /><path clip-path="url(#clip060)" d="M65.7312 1216.15 Q69.8858 1216.99 72.269 1218.12 Q75.9083 1219.96 75.9083 1223.01 Q75.9083 1225.14 74.7167 1226.75 Q73.4928 1228.33 71.4639 1228.88 Q72.269 1229.49 72.8165 1230.04 Q73.364 1230.55 74.2014 1231.55 Q75.0065 1232.55 75.4574 1233.9 Q75.9083 1235.22 75.9083 1236.73 Q75.9083 1237.89 75.6828 1238.96 Q75.4896 1240.02 74.9421 1241.15 Q74.3624 1242.24 73.4928 1243.05 Q72.6233 1243.82 71.2062 1244.33 Q69.7892 1244.85 67.9856 1244.85 Q65.7312 1244.85 62.6717 1243.98 Q59.6121 1243.08 54.1371 1241.02 Q51.2386 1239.89 49.6283 1239.89 Q48.8876 1239.89 48.4045 1240.05 Q47.9214 1240.21 47.7604 1240.53 Q47.5671 1240.82 47.5349 1241.02 Q47.4705 1241.21 47.4705 1241.53 Q47.4705 1243.53 49.4995 1245.27 Q51.5284 1247.01 55.6508 1248.2 Q56.4559 1248.46 56.6492 1248.62 Q56.8424 1248.78 56.8424 1249.26 Q56.8102 1250.07 56.1661 1250.07 Q55.9084 1250.07 54.9101 1249.78 Q53.8795 1249.49 52.3658 1248.81 Q50.8199 1248.1 49.4351 1247.14 Q48.018 1246.17 47.0196 1244.66 Q46.0212 1243.11 46.0212 1241.34 Q46.0212 1238.92 47.5993 1237.44 Q49.1452 1235.93 51.4318 1235.93 Q52.8489 1235.93 55.5864 1237.06 Q65.0871 1240.63 69.0484 1240.63 Q74.4268 1240.63 74.4268 1236.54 Q74.4268 1235.19 73.8793 1233.93 Q73.3318 1232.64 72.5589 1231.81 Q71.7859 1230.97 70.9486 1230.33 Q70.1112 1229.65 69.5637 1229.36 Q69.0162 1229.04 68.8874 1229 L49.0486 1224.08 Q48.2757 1223.88 47.7604 1223.53 Q47.2129 1223.14 47.0196 1222.69 Q46.8264 1222.24 46.7942 1221.98 Q46.7298 1221.73 46.7298 1221.5 Q46.7298 1220.7 47.2129 1220.15 Q47.696 1219.57 48.5333 1219.57 Q48.6943 1219.57 49.4673 1219.76 Q50.208 1219.92 51.303 1220.18 Q52.3658 1220.44 52.9455 1220.57 Q57.0034 1221.6 57.4221 1221.69 L64.5396 1223.53 Q64.9583 1223.63 66.3109 1223.95 Q67.6636 1224.24 68.3721 1224.4 Q69.0484 1224.56 69.9824 1224.72 Q70.8842 1224.85 71.3995 1224.85 Q73.0098 1224.85 73.7183 1224.37 Q74.4268 1223.88 74.4268 1222.82 Q74.4268 1221.82 73.7505 1221.05 Q73.042 1220.24 71.6893 1219.63 Q70.3045 1219.02 69.1773 1218.67 Q68.0501 1218.31 66.2787 1217.86 Q65.5058 1217.7 65.3126 1217.57 Q65.0871 1217.41 65.0871 1216.96 Q65.0871 1216.15 65.7312 1216.15 Z" fill="#000000" fill-rule="evenodd" fill-opacity="1" /><path clip-path="url(#clip060)" d="M64.503 1176.67 L72.4836 1177.59 Q73.205 1177.66 73.4304 1177.77 Q73.6333 1177.89 73.6333 1178.25 Q73.6333 1178.79 73.0923 1178.79 Q72.8668 1178.79 72.2581 1178.7 Q71.0182 1178.56 69.7557 1178.56 Q68.3355 1178.56 67.4562 1178.83 Q66.5545 1179.08 65.9007 1179.8 Q65.2469 1180.53 64.9764 1181.86 Q64.6833 1183.19 64.6833 1185.3 L64.6833 1191.39 Q64.6833 1192.88 64.9538 1193.24 Q65.2244 1193.58 66.4868 1193.89 L78.2098 1196.85 L78.2098 1192.65 Q78.2098 1189.72 77.3531 1188.57 Q76.4964 1187.42 73.7686 1186.7 Q73.3402 1186.59 73.1824 1186.54 Q73.0021 1186.48 72.9119 1186.36 Q72.7992 1186.23 72.7992 1186 Q72.7992 1185.8 72.9345 1185.67 Q73.0472 1185.53 73.1824 1185.49 L73.3177 1185.44 Q73.5431 1185.44 74.0617 1185.58 L84.0712 1188.12 Q84.7476 1188.3 84.9054 1188.42 Q85.0406 1188.51 85.0406 1188.82 Q85.0406 1189.05 84.8828 1189.2 Q84.725 1189.36 84.477 1189.36 Q84.2065 1189.32 83.9811 1189.23 Q82.6059 1188.91 81.7267 1188.91 Q81.1631 1188.91 80.8249 1189.02 Q80.4867 1189.14 80.1937 1189.52 Q79.9006 1189.9 79.7653 1190.69 Q79.6301 1191.48 79.6301 1192.74 L79.6301 1197.21 L91.1275 1200.07 L92.1871 1200.27 Q92.6605 1200.27 92.8409 1200.03 Q93.0213 1199.76 93.1114 1198.79 Q93.2241 1197.34 93.2241 1196.4 Q93.2241 1195.22 93.2692 1195.09 Q93.4045 1194.82 93.7652 1194.82 Q94.171 1194.82 94.3964 1195 Q94.5993 1195.18 94.6219 1195.34 Q94.6444 1195.49 94.6444 1195.79 L94.5092 1202.66 L94.6444 1208.75 Q94.6444 1209.45 94.0808 1209.45 Q93.6525 1209.45 93.4721 1209.27 Q93.2692 1209.09 93.2467 1208.89 Q93.2241 1208.68 93.2241 1208.16 Q93.2241 1207.04 93.1565 1206.36 Q93.0889 1205.68 92.9987 1205.26 Q92.886 1204.81 92.5704 1204.58 Q92.2548 1204.33 91.9842 1204.22 Q91.6911 1204.11 91.0374 1203.95 L66.6221 1197.86 Q65.788 1197.64 65.5174 1197.64 Q65.2244 1197.64 65.044 1197.84 Q64.8637 1198.02 64.796 1198.52 Q64.7059 1199.01 64.7059 1199.42 Q64.6833 1199.8 64.6833 1200.63 Q64.6833 1201.18 64.6608 1201.4 Q64.6382 1201.6 64.5255 1201.76 Q64.4128 1201.92 64.1648 1201.92 Q63.5336 1201.92 63.3983 1201.65 Q63.2405 1201.36 63.2405 1200.54 L63.2405 1177.91 Q63.2405 1177.01 63.4434 1176.81 Q63.6237 1176.58 64.503 1176.67 Z" fill="#000000" fill-rule="evenodd" fill-opacity="1" /><path clip-path="url(#clip060)" d="M74.7831 1138.68 Q78.5028 1138.68 82.155 1140.29 Q85.7846 1141.86 88.535 1144.43 Q91.2628 1146.98 92.9536 1150.43 Q94.6444 1153.88 94.6444 1157.4 L94.6444 1172.68 Q94.6444 1173.22 94.6219 1173.45 Q94.5993 1173.65 94.4866 1173.81 Q94.3514 1173.97 94.0808 1173.97 Q93.6525 1173.97 93.4721 1173.79 Q93.2692 1173.61 93.2467 1173.4 Q93.2241 1173.2 93.2241 1172.68 Q93.2241 1171.55 93.1565 1170.88 Q93.0889 1170.2 92.9987 1169.77 Q92.886 1169.32 92.5704 1169.1 Q92.2548 1168.85 91.9842 1168.74 Q91.6911 1168.62 91.0374 1168.47 L66.2389 1162.29 Q65.4949 1162.11 65.3822 1162.11 Q64.9989 1162.11 64.8637 1162.33 Q64.7059 1162.54 64.6382 1163.12 Q64.548 1164.25 64.548 1165.11 Q64.548 1165.67 64.5255 1165.9 Q64.503 1166.1 64.3902 1166.28 Q64.255 1166.44 63.9844 1166.44 Q63.5561 1166.44 63.3758 1166.26 Q63.1729 1166.05 63.1503 1165.83 Q63.1052 1165.6 63.1052 1165.06 L63.1052 1149.55 Q63.1052 1146.19 64.6833 1143.69 Q66.2389 1141.19 68.8765 1139.95 Q71.4916 1138.68 74.7831 1138.68 M73.0923 1142.72 Q68.7863 1142.72 66.6672 1145.06 Q64.548 1147.39 64.548 1151.06 L64.548 1156 Q64.548 1157.46 64.8186 1157.82 Q65.0666 1158.19 66.3065 1158.5 L91.6461 1164.84 Q92.4802 1165.06 92.7056 1165.06 Q92.9536 1165.06 93.0438 1164.95 Q93.1114 1164.81 93.1565 1164.45 Q93.2241 1164.05 93.2241 1163.44 L93.2241 1158.23 Q93.2241 1156.22 92.6831 1154.4 Q92.1195 1152.55 91.2403 1151.22 Q90.3385 1149.89 89.572 1149.03 Q88.783 1148.18 87.9939 1147.57 Q86.2129 1146.19 83.8909 1145.18 Q81.5688 1144.14 79.4497 1143.67 Q77.308 1143.17 75.7299 1142.95 Q74.1293 1142.72 73.0923 1142.72 Z" fill="#000000" fill-rule="evenodd" fill-opacity="1" /><path clip-path="url(#clip060)" d="M63.6237 1088.75 Q64.2775 1088.75 64.4128 1089.04 Q64.548 1089.31 64.548 1090.21 Q64.548 1091.27 64.6382 1091.93 Q64.7059 1092.58 64.8186 1092.99 Q64.9088 1093.39 65.2244 1093.64 Q65.54 1093.87 65.8105 1093.96 Q66.0585 1094.05 66.6672 1094.2 L91.2628 1100.34 Q92.0969 1100.56 92.39 1100.56 Q92.6831 1100.56 92.8634 1100.38 Q93.0438 1100.18 93.134 1099.68 Q93.2016 1099.19 93.2241 1098.8 Q93.2241 1098.4 93.2241 1097.56 Q93.2241 1096.53 93.4045 1096.37 Q93.5172 1096.28 93.7201 1096.28 Q94.1485 1096.28 94.3739 1096.46 Q94.5768 1096.64 94.6219 1096.8 Q94.6444 1096.93 94.6444 1097.16 Q94.6444 1098.11 94.5768 1100.04 Q94.5092 1101.98 94.5092 1102.93 L94.6444 1108.66 Q94.6444 1109.33 94.0808 1109.33 Q93.6525 1109.33 93.4721 1109.15 Q93.2692 1108.97 93.2467 1108.77 Q93.2241 1108.57 93.2241 1108.05 Q93.2241 1106.2 93.0213 1105.41 Q92.8184 1104.6 92.4576 1104.37 Q92.0744 1104.12 91.0374 1103.85 L64.5931 1097.25 L64.5931 1097.29 L93.8103 1115.94 L94.0132 1116.07 Q94.1935 1116.21 94.2612 1116.25 Q94.3063 1116.3 94.4415 1116.43 Q94.5542 1116.55 94.5993 1116.68 Q94.6444 1116.79 94.6444 1116.95 Q94.6444 1117.22 94.4641 1117.38 Q94.2837 1117.52 94.1485 1117.56 Q93.9906 1117.58 93.5849 1117.65 L64.9538 1121.62 L64.9538 1121.66 L90.1131 1127.95 Q90.8119 1128.13 91.1726 1128.13 Q92.0969 1128.13 92.6605 1127.48 Q93.2016 1126.8 93.2241 1125 Q93.2241 1124.17 93.7201 1124.17 Q94.6444 1124.17 94.6444 1125 Q94.6444 1125.77 94.5768 1127.37 Q94.5092 1128.97 94.5092 1129.76 Q94.5092 1130.52 94.5768 1132.08 Q94.6444 1133.61 94.6444 1134.36 Q94.6444 1135.01 94.0808 1135.01 Q93.2241 1135.01 93.2241 1134.18 Q93.1791 1132.82 92.9085 1131.9 Q92.638 1130.97 92.1195 1130.46 Q91.601 1129.91 91.0825 1129.67 Q90.5414 1129.4 89.7524 1129.19 L66.2389 1123.33 Q65.4949 1123.15 65.3822 1123.15 Q64.9989 1123.15 64.8637 1123.38 Q64.7059 1123.58 64.6382 1124.17 Q64.548 1125.29 64.548 1126.15 Q64.548 1126.71 64.5255 1126.94 Q64.503 1127.14 64.3902 1127.32 Q64.255 1127.48 63.9844 1127.48 Q63.5561 1127.48 63.3758 1127.3 Q63.1729 1127.1 63.1503 1126.87 Q63.1052 1126.65 63.1052 1126.1 L63.1052 1119.77 Q63.1052 1118.85 63.263 1118.64 Q63.3983 1118.44 64.1648 1118.35 L90.2934 1114.74 L63.9844 1097.88 Q63.3307 1097.45 63.2179 1097.23 Q63.1052 1097 63.1052 1096.1 L63.1052 1089.99 Q63.1052 1089.49 63.1278 1089.29 Q63.1503 1089.09 63.263 1088.93 Q63.3758 1088.75 63.6237 1088.75 Z" fill="#000000" fill-rule="evenodd" fill-opacity="1" /><polyline clip-path="url(#clip064)" style="stroke:#009af9; stroke-linecap:round; stroke-linejoin:round; stroke-width:4; stroke-opacity:1; fill:none" points="
  315.32,1246.14 335.301,1124.83 355.281,1299.71 375.262,1158.62 395.243,1236.44 415.224,1149.91 435.204,1117.79 455.185,1234.81 475.166,1169.43 495.147,1373.75 
  515.127,1111.83 535.108,1299.39 555.089,1089.09 575.07,1207.67 595.05,1122.12 615.031,1219.13 635.012,1239.81 654.993,1298.98 674.973,1200.34 694.954,1333.65 
  714.935,1069.56 734.915,1294.38 754.896,996.639 774.877,1205.07 794.858,1266.2 814.838,1245.68 834.819,1159.43 854.8,1081.3 874.781,1224.02 894.761,1352.09 
  914.742,1151.51 934.723,1309.83 954.704,1076.38 974.684,1174.65 994.665,1189.38 1014.65,1404.74 1034.63,1033.62 1054.61,1316.47 1074.59,1162.24 1094.57,1106.01 
  1114.55,1243.45 1134.53,1241.13 1154.51,1138.75 1174.49,1117.37 1194.47,1390.34 1214.45,1263.12 1234.43,1187.15 1254.41,1184.65 1274.4,1180.07 1294.38,1065.85 
  1314.36,1390.71 1334.34,976.641 1354.32,1253.8 1374.3,1013.51 1394.28,1331.95 1414.26,1097.82 1434.24,1248.04 1454.22,1148.25 1474.2,1134.51 1494.18,1166.92 
  1514.16,1194.12 1534.15,1032.19 1554.13,1217.56 1574.11,1061.11 1594.09,1346.68 1614.07,1057.87 1634.05,1432.54 1654.03,942.082 1674.01,1191.71 1693.99,1231.47 
  1713.97,1080.67 1733.95,1154.38 1753.93,1156.57 1773.91,1220.52 1793.89,1154.46 1813.88,1275.45 1833.86,1204.51 1853.84,1100.77 1873.82,1131.79 1893.8,1106.02 
  1913.78,1314.2 1933.76,1144.51 1953.74,881.749 1973.72,1468.36 1993.7,958.268 2013.68,1249.21 2033.66,1295.71 2053.64,1132.04 2073.62,1178.55 2093.61,1112.31 
  2113.59,1095.41 2133.57,1419.04 2153.55,865.335 2173.53,1273.03 2193.51,1279.74 2213.49,1134.39 2233.47,1134.17 2253.45,1169.81 2273.43,1094.37 
  "/>
</svg>
